<svg width="152" height="147" viewBox="0 0 152 147" fill="none" xmlns="http://www.w3.org/2000/svg">
<path d="M52.2069 3.80551C43.6374 3.80551 35.6605 7.13807 29.7459 13.1899C23.8271 19.2438 20.6817 27.2955 20.8854 35.8587C21.3074 53.5423 36.0513 67.9286 53.7494 67.9286C62.3189 67.9286 70.2958 64.596 76.2125 58.5421C82.1292 52.4882 85.2746 44.4365 85.0709 35.8733C84.6488 18.1918 69.9049 3.80551 52.2069 3.80551ZM53.7494 68.4941C35.7457 68.4941 20.7482 53.8603 20.3179 35.8733C20.11 27.1563 23.3136 18.959 29.3384 12.7949C35.3611 6.63288 43.4836 3.23796 52.2069 3.23796C70.2105 3.23796 85.2081 17.8738 85.6384 35.8587C85.8463 44.5778 82.6427 52.7731 76.6179 58.9371C70.5951 65.1012 62.4748 68.4941 53.7494 68.4941Z" fill="#1958DF"/>
<path d="M85.3536 35.865C85.7818 53.7294 71.6304 68.2114 53.7494 68.2114C35.8684 68.2114 21.0288 53.7294 20.6026 35.865C20.1765 18.0027 34.3258 3.52283 52.2068 3.52283C70.0858 3.52283 84.9274 18.0027 85.3536 35.865Z" fill="#99B9FF"/>
<path d="M52.2069 3.80551C43.6374 3.80551 35.6605 7.13807 29.7459 13.1899C23.8271 19.2438 20.6817 27.2955 20.8854 35.8587C21.3074 53.5423 36.0513 67.9286 53.7494 67.9286C62.3189 67.9286 70.2958 64.596 76.2125 58.5421C82.1292 52.4882 85.2746 44.4365 85.0709 35.8733C84.6488 18.1918 69.9049 3.80551 52.2069 3.80551ZM53.7494 68.4941C35.7457 68.4941 20.7482 53.8603 20.3179 35.8733C20.11 27.1563 23.3136 18.959 29.3384 12.7949C35.3611 6.63288 43.4836 3.23796 52.2069 3.23796C70.2105 3.23796 85.2081 17.8738 85.6384 35.8587C85.8463 44.5778 82.6427 52.7731 76.6179 58.9371C70.5951 65.1012 62.4748 68.4941 53.7494 68.4941Z" fill="black"/>
<path d="M52.2046 3.76605C47.9511 3.76605 43.8847 5.62879 40.4419 9.14845C34.5959 15.1296 31.2592 25.1148 31.5149 35.8588C31.939 53.5631 41.9138 67.9681 53.7514 67.9681C58.0028 67.9681 62.0713 66.1054 65.514 62.5837C71.36 56.6025 74.6968 46.6173 74.441 35.8733C74.019 18.169 64.0442 3.76605 52.2046 3.76605ZM53.7514 68.5336C41.6082 68.5336 31.3777 53.8833 30.9494 35.8733C30.6896 24.9796 34.0866 14.8406 40.0365 8.75345C43.5874 5.11945 47.7952 3.1985 52.2046 3.1985C64.3478 3.1985 74.5783 17.8509 75.0065 35.8588C75.2664 46.7525 71.8694 56.8915 65.9194 62.9787C62.3686 66.6127 58.1608 68.5336 53.7514 68.5336Z" fill="black"/>
<path d="M52.2089 3.95731C51.4064 3.95731 50.6144 4.35231 49.8514 5.13399C46.0344 9.03826 43.6062 21.6741 43.9451 35.8588C44.1488 44.4323 45.3068 52.4883 47.2028 58.5442C49.0406 64.411 51.4272 67.7769 53.7473 67.7769C54.5498 67.7769 55.3419 67.3798 56.1069 66.5981C59.9218 62.6959 62.35 50.0601 62.0112 35.8733C61.8074 27.2997 60.6495 19.2438 58.7535 13.1878C56.9157 7.32105 54.5311 3.95731 52.2089 3.95731ZM53.7473 68.3423C51.1237 68.3423 48.6082 64.9225 46.6623 58.7147C44.7497 52.6109 43.5834 44.4989 43.3775 35.8733C43.2071 28.7321 43.7081 21.9652 44.8224 16.3C45.9263 10.7014 47.523 6.7036 49.4439 4.73691C50.3192 3.84297 51.2484 3.38976 52.2089 3.38976C54.8326 3.38976 57.3481 6.80962 59.294 13.0174C61.2066 19.1232 62.3729 27.2353 62.5787 35.8588C62.7492 43 62.2502 49.769 61.1338 55.4341C60.0299 61.0307 58.4312 65.0306 56.5103 66.9952C55.6371 67.8891 54.7078 68.3423 53.7473 68.3423Z" fill="black"/>
<path d="M85.4406 36.0147H20.9579C20.7999 36.0147 20.6731 35.8858 20.6731 35.7319C20.6731 35.5739 20.7999 35.4471 20.9579 35.4471H85.4406C85.5966 35.4471 85.7234 35.5739 85.7234 35.7319C85.7234 35.8858 85.5966 36.0147 85.4406 36.0147Z" fill="black"/>
<path d="M80.9564 21.0691H23.6959C23.54 21.0691 23.4111 20.9423 23.4111 20.7864C23.4111 20.6284 23.54 20.5016 23.6959 20.5016H80.9564C81.1123 20.5016 81.2392 20.6284 81.2392 20.7864C81.2392 20.9423 81.1123 21.0691 80.9564 21.0691Z" fill="black"/>
<path d="M81.6694 50.9582H24.409C24.253 50.9582 24.1262 50.8314 24.1262 50.6754C24.1262 50.5195 24.253 50.3927 24.409 50.3927H81.6694C81.8254 50.3927 81.9522 50.5195 81.9522 50.6754C81.9522 50.8314 81.8254 50.9582 81.6694 50.9582Z" fill="black"/>
<path d="M135.005 139.775H21.2244V99.2126H135.005V139.775Z" fill="black"/>
<path d="M89.74 101.329H17.2991V81.4563H89.74V101.329Z" fill="#1958DF"/>
<path d="M17.5839 101.044H89.4573V81.7391H17.5839V101.044ZM89.7401 101.612H17.2991C17.1432 101.612 17.0164 101.485 17.0164 101.329V81.4564C17.0164 81.3005 17.1432 81.1736 17.2991 81.1736H89.7401C89.898 81.1736 90.0249 81.3005 90.0249 81.4564V101.329C90.0249 101.485 89.898 101.612 89.7401 101.612Z" fill="black"/>
<path d="M138.889 101.329H48.8452V81.4563H138.889V101.329Z" fill="#1958DF"/>
<path d="M49.1279 101.044H138.606V81.7391H49.1279V101.044ZM138.889 101.612H48.8451C48.6871 101.612 48.5603 101.485 48.5603 101.329V81.4564C48.5603 81.3005 48.6871 81.1736 48.8451 81.1736H138.889C139.044 81.1736 139.171 81.3005 139.171 81.4564V101.329C139.171 101.485 139.044 101.612 138.889 101.612Z" fill="black"/>
<path d="M133.464 82.9407H53.8802C51.9177 82.9407 50.3293 84.213 50.3293 85.7826V97.0027C50.3293 98.5723 51.9177 99.8467 53.8802 99.8467H133.464C135.425 99.8467 137.015 98.5723 137.015 97.0027V85.7826C137.015 84.213 135.425 82.9407 133.464 82.9407Z" fill="#99B9FF"/>
<path d="M60.3167 91.3916C60.3167 92.3666 59.5267 93.1566 58.5516 93.1566C57.5766 93.1566 56.7866 92.3666 56.7866 91.3916C56.7866 90.4186 57.5766 89.6286 58.5516 89.6286C59.5267 89.6286 60.3167 90.4186 60.3167 91.3916Z" fill="white"/>
<path d="M65.9568 91.3916C65.9568 92.3666 65.1668 93.1566 64.1918 93.1566C63.2168 93.1566 62.4268 92.3666 62.4268 91.3916C62.4268 90.4186 63.2168 89.6286 64.1918 89.6286C65.1668 89.6286 65.9568 90.4186 65.9568 91.3916Z" fill="white"/>
<path d="M71.5972 91.3916C71.5972 92.3666 70.8093 93.1566 69.8322 93.1566C68.8592 93.1566 68.0671 92.3666 68.0671 91.3916C68.0671 90.4186 68.8592 89.6286 69.8322 89.6286C70.8093 89.6286 71.5972 90.4186 71.5972 91.3916Z" fill="white"/>
<path d="M21.3449 98.8675C21.1017 98.8675 20.9021 98.67 20.9021 98.4268V84.7723C20.9021 84.5311 21.1017 84.3315 21.3449 84.3315C21.5882 84.3315 21.7857 84.5311 21.7857 84.7723V98.4268C21.7857 98.67 21.5882 98.8675 21.3449 98.8675Z" fill="black"/>
<path d="M24.7689 98.8675C24.5256 98.8675 24.3281 98.67 24.3281 98.4268V84.7723C24.3281 84.5311 24.5256 84.3315 24.7689 84.3315C25.0121 84.3315 25.2117 84.5311 25.2117 84.7723V98.4268C25.2117 98.67 25.0121 98.8675 24.7689 98.8675Z" fill="black"/>
<path d="M28.195 98.8675C27.9518 98.8675 27.7522 98.67 27.7522 98.4268V84.7723C27.7522 84.5311 27.9518 84.3315 28.195 84.3315C28.4383 84.3315 28.6358 84.5311 28.6358 84.7723V98.4268C28.6358 98.67 28.4383 98.8675 28.195 98.8675Z" fill="black"/>
<path d="M31.561 98.8675C31.3177 98.8675 31.1182 98.67 31.1182 98.4268V84.7723C31.1182 84.5311 31.3177 84.3315 31.561 84.3315C31.8042 84.3315 32.0017 84.5311 32.0017 84.7723V98.4268C32.0017 98.67 31.8042 98.8675 31.561 98.8675Z" fill="black"/>
<path d="M34.9849 98.8675C34.7417 98.8675 34.5442 98.67 34.5442 98.4268V84.7723C34.5442 84.5311 34.7417 84.3315 34.9849 84.3315C35.2282 84.3315 35.4277 84.5311 35.4277 84.7723V98.4268C35.4277 98.67 35.2282 98.8675 34.9849 98.8675Z" fill="black"/>
<path d="M38.4108 98.8675C38.1676 98.8675 37.968 98.67 37.968 98.4268V84.7723C37.968 84.5311 38.1676 84.3315 38.4108 84.3315C38.6541 84.3315 38.8516 84.5311 38.8516 84.7723V98.4268C38.8516 98.67 38.6541 98.8675 38.4108 98.8675Z" fill="black"/>
<path d="M41.5937 98.8675C41.3505 98.8675 41.1509 98.67 41.1509 98.4268V84.7723C41.1509 84.5311 41.3505 84.3315 41.5937 84.3315C41.8369 84.3315 42.0344 84.5311 42.0344 84.7723V98.4268C42.0344 98.67 41.8369 98.8675 41.5937 98.8675Z" fill="black"/>
<path d="M45.0176 98.8675C44.7744 98.8675 44.5769 98.67 44.5769 98.4268V84.7723C44.5769 84.5311 44.7744 84.3315 45.0176 84.3315C45.2609 84.3315 45.4605 84.5311 45.4605 84.7723V98.4268C45.4605 98.67 45.2609 98.8675 45.0176 98.8675Z" fill="black"/>
<path d="M89.74 123.651H17.2991V103.778H89.74V123.651Z" fill="#1958DF"/>
<path d="M17.5839 123.368H89.4573V104.063H17.5839V123.368ZM89.7401 123.933H17.2991C17.1432 123.933 17.0164 123.807 17.0164 123.651V103.778C17.0164 103.622 17.1432 103.495 17.2991 103.495H89.7401C89.898 103.495 90.0249 103.622 90.0249 103.778V123.651C90.0249 123.807 89.898 123.933 89.7401 123.933Z" fill="black"/>
<path d="M138.889 123.651H48.8452V103.778H138.889V123.651Z" fill="#1958DF"/>
<path d="M49.1279 123.368H138.606V104.063H49.1279V123.368ZM138.889 123.933H48.8451C48.6871 123.933 48.5603 123.807 48.5603 123.651V103.778C48.5603 103.622 48.6871 103.495 48.8451 103.495H138.889C139.044 103.495 139.171 103.622 139.171 103.778V123.651C139.171 123.807 139.044 123.933 138.889 123.933Z" fill="black"/>
<path d="M133.464 105.262H53.8802C51.9177 105.262 50.3293 106.535 50.3293 108.104V119.324C50.3293 120.894 51.9177 122.168 53.8802 122.168H133.464C135.425 122.168 137.015 120.894 137.015 119.324V108.104C137.015 106.535 135.425 105.262 133.464 105.262Z" fill="#99B9FF"/>
<path d="M60.3167 113.715C60.3167 114.688 59.5267 115.478 58.5516 115.478C57.5766 115.478 56.7866 114.688 56.7866 113.715C56.7866 112.74 57.5766 111.95 58.5516 111.95C59.5267 111.95 60.3167 112.74 60.3167 113.715Z" fill="white"/>
<path d="M65.9568 113.715C65.9568 114.688 65.1668 115.478 64.1918 115.478C63.2168 115.478 62.4268 114.688 62.4268 113.715C62.4268 112.74 63.2168 111.95 64.1918 111.95C65.1668 111.95 65.9568 112.74 65.9568 113.715Z" fill="white"/>
<path d="M71.5972 113.715C71.5972 114.688 70.8093 115.478 69.8322 115.478C68.8592 115.478 68.0671 114.688 68.0671 113.715C68.0671 112.74 68.8592 111.95 69.8322 111.95C70.8093 111.95 71.5972 112.74 71.5972 113.715Z" fill="white"/>
<path d="M21.3449 121.189C21.1017 121.189 20.9021 120.992 20.9021 120.748V107.096C20.9021 106.853 21.1017 106.653 21.3449 106.653C21.5882 106.653 21.7857 106.853 21.7857 107.096V120.748C21.7857 120.992 21.5882 121.189 21.3449 121.189Z" fill="black"/>
<path d="M24.7689 121.189C24.5256 121.189 24.3281 120.992 24.3281 120.748V107.096C24.3281 106.853 24.5256 106.653 24.7689 106.653C25.0121 106.653 25.2117 106.853 25.2117 107.096V120.748C25.2117 120.992 25.0121 121.189 24.7689 121.189Z" fill="black"/>
<path d="M28.195 121.189C27.9518 121.189 27.7522 120.992 27.7522 120.748V107.096C27.7522 106.853 27.9518 106.653 28.195 106.653C28.4383 106.653 28.6358 106.853 28.6358 107.096V120.748C28.6358 120.992 28.4383 121.189 28.195 121.189Z" fill="black"/>
<path d="M31.561 121.189C31.3177 121.189 31.1182 120.992 31.1182 120.748V107.096C31.1182 106.853 31.3177 106.653 31.561 106.653C31.8042 106.653 32.0017 106.853 32.0017 107.096V120.748C32.0017 120.992 31.8042 121.189 31.561 121.189Z" fill="black"/>
<path d="M34.9849 121.189C34.7417 121.189 34.5442 120.992 34.5442 120.748V107.096C34.5442 106.853 34.7417 106.653 34.9849 106.653C35.2282 106.653 35.4277 106.853 35.4277 107.096V120.748C35.4277 120.992 35.2282 121.189 34.9849 121.189Z" fill="black"/>
<path d="M38.4108 121.189C38.1676 121.189 37.968 120.992 37.968 120.748V107.096C37.968 106.853 38.1676 106.653 38.4108 106.653C38.6541 106.653 38.8516 106.853 38.8516 107.096V120.748C38.8516 120.992 38.6541 121.189 38.4108 121.189Z" fill="black"/>
<path d="M41.5937 121.189C41.3505 121.189 41.1509 120.992 41.1509 120.748V107.096C41.1509 106.853 41.3505 106.653 41.5937 106.653C41.8369 106.653 42.0344 106.853 42.0344 107.096V120.748C42.0344 120.992 41.8369 121.189 41.5937 121.189Z" fill="black"/>
<path d="M45.0176 121.189C44.7744 121.189 44.5769 120.992 44.5769 120.748V107.096C44.5769 106.853 44.7744 106.653 45.0176 106.653C45.2609 106.653 45.4605 106.853 45.4605 107.096V120.748C45.4605 120.992 45.2609 121.189 45.0176 121.189Z" fill="black"/>
<path d="M89.74 146.245H17.2991V126.372H89.74V146.245Z" fill="#1958DF"/>
<path d="M17.5839 145.962H89.4573V126.655H17.5839V145.962ZM89.7401 146.527H17.2991C17.1432 146.527 17.0164 146.401 17.0164 146.245V126.372C17.0164 126.216 17.1432 126.089 17.2991 126.089H89.7401C89.898 126.089 90.0249 126.216 90.0249 126.372V146.245C90.0249 146.401 89.898 146.527 89.7401 146.527Z" fill="black"/>
<path d="M138.889 146.245H48.8452V126.372H138.889V146.245Z" fill="#1958DF"/>
<path d="M49.1279 145.962H138.606V126.655H49.1279V145.962ZM138.889 146.527H48.8451C48.6871 146.527 48.5603 146.401 48.5603 146.245V126.372C48.5603 126.216 48.6871 126.089 48.8451 126.089H138.889C139.044 126.089 139.171 126.216 139.171 126.372V146.245C139.171 146.401 139.044 146.527 138.889 146.527Z" fill="black"/>
<path d="M133.464 127.856H53.8802C51.9177 127.856 50.3293 129.129 50.3293 130.698V141.918C50.3293 143.488 51.9177 144.762 53.8802 144.762H133.464C135.425 144.762 137.015 143.488 137.015 141.918V130.698C137.015 129.129 135.425 127.856 133.464 127.856Z" fill="#99B9FF"/>
<path d="M60.3167 136.307C60.3167 137.282 59.5267 138.072 58.5516 138.072C57.5766 138.072 56.7866 137.282 56.7866 136.307C56.7866 135.334 57.5766 134.544 58.5516 134.544C59.5267 134.544 60.3167 135.334 60.3167 136.307Z" fill="white"/>
<path d="M65.9568 136.307C65.9568 137.282 65.1668 138.072 64.1918 138.072C63.2168 138.072 62.4268 137.282 62.4268 136.307C62.4268 135.334 63.2168 134.544 64.1918 134.544C65.1668 134.544 65.9568 135.334 65.9568 136.307Z" fill="white"/>
<path d="M71.5972 136.307C71.5972 137.282 70.8093 138.072 69.8322 138.072C68.8592 138.072 68.0671 137.282 68.0671 136.307C68.0671 135.334 68.8592 134.544 69.8322 134.544C70.8093 134.544 71.5972 135.334 71.5972 136.307Z" fill="white"/>
<path d="M21.3449 143.783C21.1017 143.783 20.9021 143.586 20.9021 143.343V129.69C20.9021 129.447 21.1017 129.247 21.3449 129.247C21.5882 129.247 21.7857 129.447 21.7857 129.69V143.343C21.7857 143.586 21.5882 143.783 21.3449 143.783Z" fill="black"/>
<path d="M24.7689 143.783C24.5256 143.783 24.3281 143.586 24.3281 143.343V129.69C24.3281 129.447 24.5256 129.247 24.7689 129.247C25.0121 129.247 25.2117 129.447 25.2117 129.69V143.343C25.2117 143.586 25.0121 143.783 24.7689 143.783Z" fill="black"/>
<path d="M28.195 143.783C27.9518 143.783 27.7522 143.586 27.7522 143.343V129.69C27.7522 129.447 27.9518 129.247 28.195 129.247C28.4383 129.247 28.6358 129.447 28.6358 129.69V143.343C28.6358 143.586 28.4383 143.783 28.195 143.783Z" fill="black"/>
<path d="M31.561 143.783C31.3177 143.783 31.1182 143.586 31.1182 143.343V129.69C31.1182 129.447 31.3177 129.247 31.561 129.247C31.8042 129.247 32.0017 129.447 32.0017 129.69V143.343C32.0017 143.586 31.8042 143.783 31.561 143.783Z" fill="black"/>
<path d="M34.9849 143.783C34.7417 143.783 34.5442 143.586 34.5442 143.343V129.69C34.5442 129.447 34.7417 129.247 34.9849 129.247C35.2282 129.247 35.4277 129.447 35.4277 129.69V143.343C35.4277 143.586 35.2282 143.783 34.9849 143.783Z" fill="black"/>
<path d="M38.4108 143.783C38.1676 143.783 37.968 143.586 37.968 143.343V129.69C37.968 129.447 38.1676 129.247 38.4108 129.247C38.6541 129.247 38.8516 129.447 38.8516 129.69V143.343C38.8516 143.586 38.6541 143.783 38.4108 143.783Z" fill="black"/>
<path d="M41.5937 143.783C41.3505 143.783 41.1509 143.586 41.1509 143.343V129.69C41.1509 129.447 41.3505 129.247 41.5937 129.247C41.8369 129.247 42.0344 129.447 42.0344 129.69V143.343C42.0344 143.586 41.8369 143.783 41.5937 143.783Z" fill="black"/>
<path d="M45.0176 143.783C44.7744 143.783 44.5769 143.586 44.5769 143.343V129.69C44.5769 129.447 44.7744 129.247 45.0176 129.247C45.2609 129.247 45.4605 129.447 45.4605 129.69V143.343C45.4605 143.586 45.2609 143.783 45.0176 143.783Z" fill="black"/>
<path d="M77.6073 108.688C78.5865 105.464 78.4202 103.429 77.5325 101.306L76.0398 98.3374L80.5324 96.537L81.9087 99.9174C82.3536 101.007 82.996 102.005 83.8026 102.859L84.5448 103.647L77.6073 108.688Z" fill="white"/>
<path d="M76.4309 98.485L77.7864 101.179C77.7885 101.186 77.7906 101.192 77.7947 101.198C78.7011 103.362 78.8009 105.318 78.1045 107.98L84.1189 103.608L83.5971 103.055C82.7613 102.169 82.1065 101.15 81.647 100.025L80.3768 96.9029L76.4309 98.485ZM77.6076 108.971C77.5515 108.971 77.4933 108.955 77.4434 108.919C77.3436 108.849 77.302 108.724 77.3374 108.607C78.3623 105.227 78.0546 103.289 77.275 101.427L75.7865 98.4642C75.749 98.3935 75.7449 98.3104 75.774 98.2376C75.801 98.1628 75.8592 98.1045 75.932 98.0754L80.4267 96.273C80.5722 96.2148 80.7364 96.2855 80.7946 96.4289L82.173 99.8114C82.6054 100.872 83.2229 101.832 84.0087 102.666L84.7509 103.452C84.807 103.512 84.8361 103.591 84.8278 103.672C84.8195 103.753 84.7779 103.826 84.7114 103.874L77.776 108.919C77.7261 108.955 77.6658 108.971 77.6076 108.971Z" fill="black"/>
<path d="M82.5116 101.996C82.6239 101.645 83.0854 101.56 83.3369 101.828C84.0479 102.583 85.2912 103.847 86.2371 104.499C87.1186 105.108 87.393 106.281 86.894 107.221C85.4824 109.876 81.9149 115.636 78.1541 120.033C77.8963 120.335 77.256 120.736 76.335 120.324C73.2416 118.934 76.1833 112.653 77.8589 106.113C77.9254 105.857 78.1333 105.659 78.3932 105.612L79.3287 105.441C81.0543 105.096 81.7798 104.285 82.5116 101.996Z" fill="black"/>
<path d="M86.0251 104.356C86.0251 104.356 86.1686 104.454 86.2372 104.499C87.1186 105.109 87.3931 106.281 86.8941 107.221C85.4825 109.876 81.915 115.636 78.1542 120.033C77.8964 120.335 77.2561 120.736 76.3351 120.324C76.0524 120.195 75.6262 119.85 75.6262 119.85L75.8799 119.528C79.4827 114.946 82.7425 110.104 85.6343 105.042L86.0251 104.356Z" fill="white"/>
<path d="M76.0272 119.798C76.1644 119.9 76.3308 120.01 76.4513 120.065C77.3453 120.468 77.8463 119.956 77.9378 119.85C81.6653 115.491 85.1871 109.83 86.6423 107.088C87.0685 106.283 86.8419 105.296 86.1184 104.763L85.8794 105.181C82.9917 110.239 79.7028 115.125 76.1021 119.703L76.0272 119.798ZM77.0958 120.782C76.8276 120.782 76.5345 120.724 76.2185 120.58C75.9108 120.443 75.4929 120.108 75.4472 120.069C75.3287 119.971 75.3079 119.796 75.4035 119.676L75.6572 119.354C79.2392 114.796 82.5135 109.934 85.3867 104.901L85.7796 104.215C85.8191 104.146 85.8835 104.098 85.9604 104.079C86.0374 104.063 86.1184 104.077 86.1829 104.121C86.1829 104.121 86.3284 104.219 86.397 104.267C87.3928 104.955 87.713 106.281 87.1434 107.352C85.6756 110.117 82.1269 115.826 78.3681 120.216C78.1103 120.518 77.6634 120.782 77.0958 120.782Z" fill="black"/>
<path d="M76.5782 111.287C76.4431 111.287 76.3225 111.187 76.2996 111.05C76.2726 110.896 76.3786 110.751 76.5325 110.724L79.6301 110.204C79.7839 110.179 79.9315 110.283 79.9565 110.437C79.9814 110.591 79.8796 110.738 79.7236 110.763L76.626 111.283C76.6094 111.285 76.5948 111.287 76.5782 111.287Z" fill="#CADDFF"/>
<path d="M76.0772 113.05C75.9379 113.05 75.8173 112.948 75.7966 112.809C75.7737 112.653 75.8797 112.51 76.0356 112.487L78.5678 112.11C78.7216 112.088 78.8651 112.196 78.888 112.35C78.9129 112.503 78.8048 112.649 78.651 112.672L76.1188 113.046C76.1042 113.048 76.0897 113.05 76.0772 113.05Z" fill="#CADDFF"/>
<path d="M102.929 61.8602C102.929 61.8602 71.7384 55.0267 62.2314 60.4361C60.799 61.2531 59.4414 62.9599 59.142 64.5794C58.2273 69.5086 60.9757 80.2526 76.0044 100.448C76.2164 100.732 76.5927 100.843 76.9254 100.718L81.6945 98.9112C82.0791 98.7636 82.2891 98.3457 82.1768 97.9486L75.8111 75.6935C75.6468 75.1155 76.1271 74.5542 76.7237 74.627L106.449 78.2776L102.929 61.8602Z" fill="white"/>
<path d="M74.2935 58.6441C69.3768 58.6441 65.0089 59.1825 62.3707 60.6835C60.9342 61.5005 59.691 63.1616 59.4186 64.6314C58.6972 68.5357 59.9197 78.3567 76.2311 100.279C76.3683 100.462 76.6115 100.533 76.8257 100.452L81.5927 98.6472C81.8442 98.5516 81.9773 98.2855 81.9024 98.0256L75.5388 75.7725C75.4348 75.4087 75.5201 75.02 75.7654 74.731C76.0128 74.4441 76.3828 74.3006 76.7591 74.3464L106.089 77.9471L102.69 62.0993C100.894 61.7168 86.0333 58.6441 74.2935 58.6441ZM76.6469 101.05C76.3122 101.05 75.9837 100.895 75.7758 100.616C59.3375 78.523 58.1234 68.5232 58.8635 64.5275C59.1629 62.908 60.5205 61.0848 62.0922 60.1908C66.0858 57.9164 74.1896 57.4612 86.1768 58.8395C95.0747 59.8603 102.91 61.5671 102.989 61.5837C103.097 61.6087 103.183 61.6939 103.205 61.802L106.725 78.2174C106.746 78.3068 106.719 78.4003 106.659 78.4689C106.596 78.5355 106.505 78.5687 106.413 78.5583L76.6905 74.9077C76.5013 74.8848 76.3205 74.9555 76.1978 75.101C76.0731 75.2445 76.0315 75.4337 76.0835 75.6166L82.4492 97.8717C82.6051 98.4144 82.3224 98.9757 81.7943 99.1753L77.0252 100.982C76.9026 101.03 76.7737 101.05 76.6469 101.05Z" fill="black"/>
<path d="M93.717 120.539L93.1058 123.441C92.2887 127.663 95.3781 129.823 95.3781 129.823L86.2432 130.935C86.2432 130.935 88.239 129.723 87.8315 123.857L87.3097 118.95L93.717 120.539Z" fill="white"/>
<path d="M87.6343 119.322L88.1145 123.827C88.3889 127.788 87.5823 129.702 86.9815 130.559L94.7131 129.619C93.842 128.763 92.1955 126.655 92.8275 123.387L93.3846 120.748L87.6343 119.322ZM86.2434 131.218C86.1249 131.218 86.0168 131.143 85.9773 131.027C85.9337 130.902 85.9836 130.761 86.0979 130.692C86.1125 130.684 87.9357 129.441 87.5511 123.877L87.0293 118.979C87.0189 118.888 87.0542 118.796 87.1228 118.736C87.1935 118.676 87.2892 118.653 87.3786 118.676L93.7859 120.264C93.9335 120.301 94.027 120.449 93.9958 120.597L93.3826 123.499C92.6133 127.478 95.422 129.507 95.5426 129.592C95.6361 129.659 95.6819 129.779 95.6528 129.892C95.6237 130.006 95.528 130.091 95.4116 130.104L86.2788 131.216C86.2684 131.216 86.2559 131.218 86.2434 131.218Z" fill="black"/>
<path d="M93.9062 125.921C94.6608 126.786 96.0246 128.411 97.0724 129.985C97.7294 130.973 97.3364 132.112 96.6317 133.058C95.1931 134.989 93.2201 136.474 90.9021 138.004C88.8751 139.338 86.6112 140.746 83.8877 141.991C83.1476 142.33 81.4803 142.792 80.3639 142.236C76.9981 140.559 82.6133 135.303 87.029 129.249C87.2016 129.012 87.4947 128.896 87.7837 128.952L88.819 129.158C89.8522 129.364 90.9063 128.929 91.4925 128.056L92.8813 125.981C93.1183 125.628 93.6255 125.597 93.9062 125.921Z" fill="black"/>
<path d="M96.5301 129.253C96.5301 129.253 97.0208 129.908 97.0727 129.985C97.237 130.233 97.3347 130.522 97.3887 130.817C97.5613 131.767 97.2307 132.74 96.5613 133.44C96.3992 133.609 96.1809 133.823 95.9252 134.066C93.2745 136.586 90.2954 138.733 87.0855 140.486C85.4577 141.374 81.8424 143.201 80.3642 142.236C79.909 141.939 79.6304 141.031 79.6304 141.031C79.6304 141.031 80.4931 141.548 83.0918 140.259C87.4826 138.079 90.4534 135.632 94.0791 132.709C94.7921 132.133 95.2828 131.605 95.79 130.977C96.1913 130.482 96.4491 129.885 96.5301 129.253Z" fill="white"/>
<path d="M80.0878 141.413C80.2063 141.656 80.3623 141.895 80.5203 141.999C81.4599 142.613 83.7426 141.987 86.9504 140.236C90.1811 138.474 93.1353 136.328 95.7298 133.862C95.9939 133.611 96.2059 133.403 96.3577 133.245C96.9793 132.592 97.26 131.704 97.1082 130.867C97.0562 130.58 96.9647 130.337 96.8358 130.141C96.8234 130.12 96.7589 130.035 96.6737 129.919C96.5344 130.366 96.3099 130.786 96.0105 131.156C95.4201 131.885 94.9107 132.399 94.2559 132.929L93.9066 133.21C90.4659 135.989 87.4931 138.388 83.2167 140.513C81.6325 141.299 80.6471 141.442 80.0878 141.413ZM81.4745 142.794C80.9568 142.794 80.5369 142.688 80.2105 142.473C79.6845 142.13 79.3914 141.218 79.3581 141.114C79.3249 141.002 79.3623 140.881 79.4558 140.808C79.5473 140.735 79.6741 140.729 79.776 140.787C79.776 140.787 80.6055 141.176 82.9651 140.006C87.1874 137.91 90.1354 135.528 93.5511 132.769L93.9004 132.488C94.522 131.985 95.0064 131.497 95.5698 130.798C95.9398 130.343 96.1747 129.796 96.2496 129.218C96.2641 129.104 96.3452 129.01 96.4575 128.979C96.5677 128.95 96.6882 128.991 96.7568 129.083C96.84 129.195 97.2558 129.748 97.3078 129.827C97.4803 130.087 97.6009 130.403 97.6674 130.767C97.8504 131.779 97.5136 132.852 96.7672 133.636C96.6092 133.8 96.391 134.014 96.1207 134.272C93.4908 136.773 90.4971 138.948 87.2207 140.733C84.7114 142.103 82.7863 142.794 81.4745 142.794Z" fill="black"/>
<path d="M87.8528 133.748C87.832 133.748 87.8133 133.746 87.7925 133.742L84.3851 133.006C84.2333 132.973 84.1356 132.823 84.1689 132.669C84.2021 132.515 84.3539 132.42 84.5056 132.453L87.913 133.189C88.0648 133.22 88.1625 133.372 88.1293 133.524C88.1022 133.657 87.9837 133.748 87.8528 133.748Z" fill="#CADDFF"/>
<path d="M85.9668 135.276C85.946 135.276 85.9231 135.274 85.9024 135.268L83.1394 134.617C82.9856 134.582 82.892 134.428 82.9274 134.276C82.9648 134.124 83.1145 134.029 83.2683 134.066L86.0333 134.717C86.1851 134.752 86.2786 134.906 86.2433 135.058C86.2121 135.187 86.0957 135.276 85.9668 135.276Z" fill="#CADDFF"/>
<path d="M82.7462 70.7684C91.8354 63.0056 121.078 62.7603 121.078 62.7603C121.078 62.7603 124.728 67.1116 122.986 75.8639C122.413 78.7495 120.369 81.3399 117.14 81.3399L99.199 81.4896C97.8851 81.502 96.8415 82.5956 96.8914 83.9095C97.2261 92.5724 97.5234 110.483 95.0432 122.688C94.9434 123.183 94.5692 123.578 94.0827 123.709C92.9372 124.019 90.692 124.522 88.2554 124.488C87.4966 124.478 86.8625 123.908 86.7607 123.156L80.8107 78.7703C80.6319 77.4335 80.6278 76.0739 80.8523 74.7434C81.0914 73.3214 81.6173 71.7331 82.7462 70.7684Z" fill="white"/>
<path d="M82.9317 70.9847C82.0315 71.7518 81.4265 73.0324 81.1313 74.7892C80.9213 76.0365 80.9089 77.3629 81.0918 78.7329L87.0418 123.118C87.1249 123.73 87.6488 124.197 88.26 124.206C90.6737 124.243 92.894 123.738 94.0083 123.437C94.3971 123.331 94.6881 123.023 94.7671 122.632C97.2036 110.63 96.9667 93.2253 96.6091 83.9199C96.582 83.2068 96.8378 82.5312 97.3305 82.0156C97.8232 81.5 98.4843 81.2152 99.1974 81.2069L117.139 81.0572C120.48 81.0572 122.226 78.2298 122.71 75.8078C124.261 68.0118 121.455 63.7458 120.939 63.0452C118.729 63.0784 91.5156 63.6501 82.9317 70.9847ZM88.4845 124.773C88.4076 124.773 88.3307 124.773 88.2538 124.771C87.3619 124.759 86.5989 124.081 86.4804 123.193L80.5305 78.8078C80.3392 77.3816 80.3538 75.9991 80.5721 74.6956C80.8901 72.8038 81.5596 71.4109 82.5637 70.5543C86.3744 67.2966 94.0208 64.9495 105.287 63.5711C113.652 62.5504 121.003 62.4776 121.076 62.4776C121.076 62.4776 121.076 62.4776 121.078 62.4776C121.161 62.4776 121.24 62.515 121.297 62.5795C121.448 62.7604 125.014 67.1345 123.265 75.918C122.741 78.55 120.823 81.6227 117.141 81.6227L99.2036 81.7744C98.6444 81.7786 98.1246 82.0031 97.74 82.4064C97.3554 82.8097 97.1538 83.3399 97.1745 83.897C97.5363 93.2294 97.7712 110.686 95.3222 122.744C95.1995 123.345 94.7546 123.821 94.1559 123.981C93.0499 124.283 90.8712 124.773 88.4845 124.773Z" fill="black"/>
<path d="M88.9335 42.2557L86.5303 46.8647C84.1935 51.0642 80.4389 53.8437 76.281 56.2532L74.595 57.2283C73.514 57.854 72.2583 58.1035 71.0192 57.9393L70.83 57.9122C68.9403 57.6607 67.0214 58.1118 65.4414 59.1783L69.6326 60.7833C72.1876 61.7624 75.0316 61.7209 77.5367 60.6211C79.9358 59.565 85.3432 58.274 87.894 55.3073C93.239 49.0913 93.0291 47.7108 93.0291 47.7108L88.9335 42.2557Z" fill="white"/>
<path d="M66.0734 59.118L69.7344 60.5172C72.2604 61.486 74.99 61.4298 77.4224 60.3612C78.0003 60.1076 78.7301 59.8457 79.5741 59.5463C82.1936 58.6108 85.7819 57.3301 87.6799 55.1244C92.2058 49.8584 92.6902 48.137 92.7422 47.7982L88.9772 42.7837L86.7797 46.9957C84.2476 51.5507 80.123 54.3552 76.4224 56.4965L74.7385 57.4736C73.6075 58.1264 72.2749 58.3904 70.9818 58.2199L70.7926 58.1929C69.1544 57.9746 67.4996 58.3031 66.0734 59.118ZM73.4079 61.7708C72.1044 61.7708 70.7926 61.5296 69.5307 61.0473L65.3395 59.4423C65.2398 59.4049 65.1712 59.3155 65.1587 59.2116C65.1483 59.1056 65.194 59.0037 65.2834 58.9434C66.9237 57.8374 68.907 57.3717 70.8696 57.6316L71.0567 57.6586C72.2271 57.8125 73.4329 57.5734 74.4537 56.983L76.1397 56.0058C79.7716 53.904 83.8172 51.1557 86.2808 46.7275L88.6841 42.1247C88.7277 42.0374 88.815 41.9792 88.9107 41.9729C89.0105 41.9646 89.1019 42.0083 89.1601 42.0852L93.2557 47.5404C93.2848 47.5778 93.3035 47.6214 93.3097 47.6672C93.3326 47.8231 93.3866 49.3553 88.1103 55.4923C86.1145 57.8145 82.4451 59.1222 79.7654 60.0785C78.9296 60.3758 78.2103 60.6336 77.6511 60.8789C76.2977 61.4735 74.857 61.7708 73.4079 61.7708Z" fill="black"/>
<path d="M101.122 64.515C101.122 64.515 100.815 65.1387 108.929 66.3091C114.775 67.1532 120.084 66.7811 122.594 66.5066C123.411 66.4172 123.964 65.6314 123.762 64.8331C123.103 62.2053 122.623 59.7625 120.091 53.0891C118.334 48.4551 121.003 40.0042 115.544 34.9815C106.33 26.5056 93.6152 37.3182 93.6152 37.3182L89.6174 43.185C94.1994 48.5487 97.7981 54.6795 100.249 61.2926L101.122 64.515Z" fill="#1958DF"/>
<path d="M104.536 48.3179C104.526 48.3179 104.515 48.3158 104.505 48.3158C104.349 48.2992 104.239 48.1599 104.253 48.004L104.939 41.6216C104.956 41.4657 105.093 41.3534 105.251 41.3701C105.407 41.3867 105.519 41.526 105.503 41.6819L104.817 48.0643C104.802 48.2098 104.679 48.3179 104.536 48.3179Z" fill="#CADDFF"/>
<path d="M112.987 51.8251C112.941 51.8251 112.897 51.8147 112.856 51.7918C112.717 51.7191 112.662 51.5486 112.735 51.4093C114.163 48.688 116.047 41.2931 116.082 39.7797C116.087 39.6237 116.213 39.4969 116.373 39.5032C116.529 39.5073 116.654 39.6383 116.65 39.7942C116.61 41.3867 114.729 48.8314 113.238 51.6733C113.186 51.769 113.089 51.8251 112.987 51.8251Z" fill="#CADDFF"/>
<path d="M61.3355 59.7625L82.9919 61.4111L71.092 39.9231C70.6492 39.1123 69.8114 38.5781 68.8717 38.5074L51.2942 37.1685C50.1778 37.0833 49.4086 38.2267 49.9346 39.1893L61.3355 59.7625Z" fill="black"/>
<path d="M64.1483 49.6193C64.5724 50.3947 65.562 51.0725 66.3541 51.1328C67.1482 51.1931 67.4476 50.613 67.0235 49.8376C66.5994 49.0642 65.6119 48.3865 64.8177 48.3262C64.0256 48.2659 63.7242 48.8438 64.1483 49.6193Z" fill="white"/>
<path d="M62.3896 61.1554L96.3638 63.7416C97.0665 63.7956 97.6777 63.2697 97.7297 62.5691L97.7879 62.3778L61.2711 59.5982L61.215 59.7895C61.1609 60.4901 61.6869 61.1013 62.3896 61.1554Z" fill="black"/>
<path d="M79.726 57.2428L84.1479 55.7148C84.8049 55.4882 85.5325 55.6192 86.0689 56.062L88.1208 57.7563C88.5137 58.0806 89.0127 58.2407 89.5199 58.2054C91.734 58.0599 102.041 55.245 102.831 53.3739C103.497 51.8022 104.016 49.9166 104.016 49.9166L112.012 52.7107C112.012 52.7107 111.881 55.1784 108.632 58.4902C105.865 61.3092 98.7276 62.2572 88.9129 61.6647C88.9129 61.6647 86.861 61.434 85.1417 59.3821C84.044 58.0723 81.3663 58.7459 79.778 58.3571C79.2146 58.2199 79.1772 57.432 79.726 57.2428Z" fill="white"/>
<path d="M79.8174 57.511C79.622 57.5775 79.6157 57.7543 79.6178 57.8062C79.6199 57.8582 79.6448 58.0328 79.8465 58.0827C80.3683 58.2116 81.0294 58.2158 81.73 58.222C83.1208 58.2345 84.5595 58.247 85.3578 59.1991C86.9773 61.1326 88.9253 61.382 88.9461 61.3841C99.0996 61.9974 105.844 60.9267 108.43 58.2927C111.022 55.6483 111.584 53.5485 111.7 52.902L104.206 50.2846C104.031 50.8792 103.603 52.2783 103.093 53.4862C102.199 55.6005 91.5842 58.353 89.5386 58.4881C88.9585 58.5276 88.3889 58.3447 87.9398 57.9746L85.8879 56.2803C85.4326 55.9019 84.8006 55.7897 84.2414 55.9809L79.8174 57.511ZM94.1206 62.1138C92.4927 62.1138 90.7485 62.0598 88.8962 61.9475C88.7922 61.9371 86.6966 61.6772 84.9233 59.5629C84.2934 58.8104 82.9878 58.8 81.7238 58.7896C80.9899 58.7813 80.2976 58.7771 79.7093 58.6316C79.3288 58.5401 79.071 58.2262 79.0523 57.8333C79.0336 57.4403 79.2623 57.1035 79.6324 56.9747L84.0564 55.4466C84.8006 55.1888 85.6426 55.3406 86.2497 55.8437L88.3016 57.538C88.6384 57.8166 89.0625 57.9538 89.5011 57.9247C91.8774 57.7667 101.865 54.9373 102.569 53.2637C103.22 51.7274 103.738 49.8605 103.742 49.8418C103.763 49.7669 103.815 49.7046 103.883 49.6672C103.954 49.6297 104.035 49.6256 104.11 49.6505L112.106 52.4425C112.224 52.4841 112.301 52.6005 112.295 52.7253C112.288 52.8313 112.122 55.3385 108.833 58.6877C106.613 60.9496 101.572 62.1138 94.1206 62.1138Z" fill="black"/>
<path d="M94.7193 36.734C89.26 39.657 87.0501 43.9417 84.1895 47.7753C86.204 49.5923 88.6093 52.06 90.1706 53.8147C91.6383 52.6837 93.499 51.5403 94.8503 49.9166L94.7193 36.734Z" fill="#1958DF"/>
<path d="M101.511 26.1126L101.521 32.0875C101.484 32.8671 100.975 33.5449 100.235 33.7964L99.0953 34.285C98.8022 34.4118 99.8562 36.0043 104.54 35.287C106.34 35.0105 108.053 34.3162 109.548 33.2746L110.646 32.5137C109.889 32.4015 107.806 31.8464 107.615 31.1063L105.887 23.3268L101.511 26.1126Z" fill="white"/>
<path d="M99.4134 34.4576C99.744 34.8006 101.085 35.5282 104.496 35.0064C106.23 34.7424 107.92 34.0626 109.388 33.0439L109.947 32.6551C109.054 32.4368 107.542 31.9566 107.343 31.1749L105.698 23.7822L101.794 26.2686L101.804 32.0855C101.763 32.9981 101.185 33.7673 100.336 34.0605L99.4134 34.4576ZM102.332 35.7548C99.7897 35.7548 98.8979 34.8837 98.7856 34.4929C98.717 34.258 98.8355 34.0896 98.9831 34.0251L100.122 33.5366C100.129 33.5345 100.135 33.5303 100.143 33.5283C100.775 33.3121 101.208 32.7424 101.239 32.073L101.226 26.1127C101.226 26.017 101.276 25.9255 101.357 25.8736L105.736 23.0878C105.815 23.0379 105.91 23.0296 105.997 23.0649C106.083 23.1003 106.145 23.1751 106.164 23.2645L107.891 31.0439C108.01 31.5013 109.671 32.0834 110.688 32.2331C110.802 32.2497 110.895 32.337 110.922 32.4493C110.95 32.5616 110.904 32.6801 110.808 32.7466L109.71 33.5075C108.174 34.5761 106.401 35.2891 104.584 35.5656C103.719 35.6987 102.975 35.7548 102.332 35.7548Z" fill="black"/>
<path d="M93.5384 19.379C94.8356 18.4039 94.0685 20.9174 98.0809 16.1483C99.6796 14.246 100.226 17.2293 100.64 16.7387C102.176 14.9217 102.122 14.982 103.216 14.6078C103.939 14.3604 105.099 15.2273 105.548 16.1504C106.145 17.3686 105.415 18.2709 106.178 21.1772C106.713 23.2167 107.53 24.1294 107.027 24.8154C106.517 25.5056 105.415 24.936 104.802 25.6491C104.01 26.5721 105.334 28.1334 104.852 29.4681C104.548 30.308 103.289 31.441 100.326 31.8423C99.8459 31.9067 99.3844 31.6198 99.2305 31.1583C99.033 30.5679 98.7877 29.8194 98.6131 29.0856C97.7836 25.5909 98.3574 24.2936 97.5112 23.8092C96.2119 23.0649 94.5321 25.1044 93.5716 24.4225C92.5758 23.7156 91.765 20.7136 93.5384 19.379Z" fill="black"/>
<path d="M100.9 20.2375L100.998 21.2126C101.044 21.672 101.118 22.1294 101.229 22.5784C101.43 23.4204 101.767 24.8736 101.894 25.701C102.081 26.9151 98.3637 27.7529 98.3637 27.7529L97.8024 27.2997L97.3638 27.387C97.2785 27.4058 97.1912 27.4058 97.1081 27.3767C96.9022 27.308 96.7754 27.1209 96.7754 26.9193C96.7817 25.8195 96.7151 23.4017 96.0769 21.6159C96.0769 21.6159 97.8939 19.5868 100.9 20.2375Z" fill="white"/>
<path d="M97.8022 27.0149C97.8667 27.0149 97.929 27.0378 97.9789 27.0793L98.4342 27.4452C99.8209 27.1126 101.711 26.3725 101.615 25.7426C101.488 24.9172 101.145 23.4474 100.952 22.645C100.84 22.1834 100.761 21.7115 100.715 21.2396L100.64 20.4745C98.349 20.0671 96.8189 21.302 96.4031 21.6907C96.9873 23.4578 97.0663 25.7114 97.06 26.9214C97.058 27.0066 97.1141 27.0814 97.1972 27.1085C97.2264 27.1188 97.2658 27.1188 97.3074 27.1105L97.7461 27.0211C97.7648 27.017 97.7835 27.0149 97.8022 27.0149ZM98.3635 28.0357C98.2991 28.0357 98.2367 28.0128 98.1847 27.9733L97.7274 27.6032L97.4197 27.6656C97.2804 27.6926 97.1411 27.6864 97.0185 27.6448C96.7025 27.5409 96.4904 27.2477 96.4925 26.9193C96.4987 25.9422 96.4426 23.4828 95.8085 21.7115C95.7752 21.6138 95.796 21.5036 95.8646 21.4267C95.9436 21.3394 97.8272 19.2833 100.96 19.961C101.083 19.9881 101.17 20.0878 101.183 20.2105L101.28 21.1855C101.322 21.6304 101.397 22.0774 101.503 22.5119C101.698 23.3248 102.045 24.8112 102.174 25.6573C102.39 27.0627 99.0891 27.8797 98.4259 28.0294C98.4051 28.0336 98.3843 28.0357 98.3635 28.0357Z" fill="black"/>
<path d="M102.037 23.1107C102.037 23.1107 101.805 20.7656 102.894 20.8924C103.985 21.0192 104.177 23.6075 102.037 23.1107Z" fill="white"/>
<path d="M141.887 54.3074C141.76 54.3074 141.643 54.22 141.612 54.0891C140.252 48.2368 138.016 42.607 134.97 37.3598C133.066 34.0792 130.854 30.9712 128.396 28.123C128.294 28.0045 128.309 27.8257 128.425 27.7238C128.546 27.622 128.725 27.6345 128.827 27.753C131.307 30.6281 133.54 33.7653 135.461 37.075C138.535 42.3721 140.791 48.0539 142.165 53.9602C142.198 54.1119 142.105 54.2637 141.951 54.299C141.93 54.3053 141.909 54.3074 141.887 54.3074Z" fill="black"/>
<path d="M147.25 61.4339C147.109 61.4339 146.986 61.3279 146.969 61.1824C146.87 60.3092 146.751 59.4298 146.616 58.5629C146.591 58.4091 146.697 58.2636 146.853 58.2407C147.007 58.2157 147.152 58.3218 147.175 58.4756C147.312 59.3488 147.433 60.2386 147.533 61.1179C147.549 61.2739 147.439 61.4132 147.283 61.4319C147.271 61.4339 147.262 61.4339 147.25 61.4339Z" fill="black"/>
<path d="M146.896 58.802C146.757 58.802 146.636 58.7043 146.616 58.563C145.393 50.7274 142.743 43.2577 138.741 36.3619C138.327 35.6509 137.895 34.9378 137.456 34.2434C137.373 34.1104 137.412 33.9357 137.545 33.8526C137.676 33.7694 137.851 33.8089 137.936 33.942C138.379 34.6405 138.813 35.3598 139.231 36.0791C143.269 43.0353 145.942 50.5694 147.175 58.4756C147.2 58.6316 147.094 58.775 146.94 58.7999C146.925 58.802 146.911 58.802 146.896 58.802Z" fill="black"/>
<path d="M126.768 25.2645L126.758 27.1792L128.367 25.8757L126.768 25.2645ZM126.182 28.3746L126.207 24.4412L129.485 25.699L126.182 28.3746Z" fill="black"/>
<path d="M137.695 19.4184C137.539 19.4184 137.412 19.2916 137.412 19.1357V17.6721C137.412 17.5162 137.539 17.3894 137.695 17.3894C137.853 17.3894 137.98 17.5162 137.98 17.6721V19.1357C137.98 19.2916 137.853 19.4184 137.695 19.4184Z" fill="black"/>
<path d="M137.695 22.83C137.539 22.83 137.412 22.7011 137.412 22.5452V21.0816C137.412 20.9257 137.539 20.7989 137.695 20.7989C137.853 20.7989 137.98 20.9257 137.98 21.0816V22.5452C137.98 22.7011 137.853 22.83 137.695 22.83Z" fill="black"/>
<path d="M136.722 20.3935H135.256C135.1 20.3935 134.974 20.2646 134.974 20.1087C134.974 19.9527 135.1 19.8259 135.256 19.8259H136.722C136.878 19.8259 137.005 19.9527 137.005 20.1087C137.005 20.2646 136.878 20.3935 136.722 20.3935Z" fill="black"/>
<path d="M140.136 20.3935H138.67C138.514 20.3935 138.385 20.2646 138.385 20.1087C138.385 19.9527 138.514 19.8259 138.67 19.8259H140.136C140.292 19.8259 140.419 19.9527 140.419 20.1087C140.419 20.2646 140.292 20.3935 140.136 20.3935Z" fill="black"/>
<path d="M149.866 106.142C149.816 106.142 149.768 106.146 149.718 106.152C149.419 106.19 149.15 106.343 148.963 106.582C148.778 106.824 148.697 107.121 148.737 107.422C148.774 107.724 148.928 107.992 149.167 108.179C149.408 108.364 149.708 108.445 150.007 108.408C150.629 108.329 151.071 107.757 150.99 107.135C150.953 106.834 150.799 106.566 150.56 106.379C150.358 106.225 150.115 106.142 149.866 106.142ZM149.859 108.982C149.485 108.982 149.121 108.859 148.82 108.626C148.46 108.348 148.232 107.946 148.173 107.495C148.115 107.044 148.238 106.597 148.516 106.237C148.795 105.878 149.196 105.647 149.647 105.591C150.098 105.533 150.545 105.655 150.905 105.932C151.265 106.21 151.495 106.612 151.554 107.065C151.672 107.996 151.011 108.851 150.078 108.969C150.007 108.977 149.932 108.982 149.859 108.982Z" fill="black"/>
<path d="M142.562 117.607C142.502 117.607 142.441 117.588 142.389 117.549L141.714 117.027C141.591 116.932 141.568 116.753 141.664 116.63C141.76 116.505 141.938 116.485 142.061 116.58L142.737 117.102C142.859 117.198 142.882 117.374 142.787 117.499C142.73 117.57 142.647 117.607 142.562 117.607Z" fill="black"/>
<path d="M144.924 119.435C144.863 119.435 144.801 119.416 144.751 119.374L144.075 118.855C143.953 118.757 143.93 118.58 144.025 118.455C144.121 118.333 144.3 118.31 144.423 118.405L145.098 118.927C145.221 119.023 145.244 119.202 145.148 119.324C145.092 119.397 145.009 119.435 144.924 119.435Z" fill="black"/>
<path d="M142.232 119.778C142.171 119.778 142.111 119.759 142.059 119.719C141.934 119.622 141.914 119.445 142.007 119.322L142.529 118.647C142.625 118.524 142.803 118.501 142.928 118.597C143.051 118.692 143.074 118.869 142.978 118.994L142.456 119.667C142.4 119.74 142.317 119.778 142.232 119.778Z" fill="black"/>
<path d="M144.057 117.416C143.998 117.416 143.936 117.397 143.884 117.358C143.761 117.262 143.738 117.085 143.834 116.961L144.356 116.287C144.452 116.162 144.63 116.139 144.753 116.237C144.878 116.333 144.898 116.509 144.805 116.634L144.281 117.308C144.227 117.378 144.142 117.416 144.057 117.416Z" fill="black"/>
<path d="M15.0663 1.06755C14.3948 1.06755 13.8481 1.61224 13.8481 2.28374C13.8481 2.95524 14.3948 3.502 15.0663 3.502C15.7378 3.502 16.2846 2.95524 16.2846 2.28374C16.2846 1.61224 15.7378 1.06755 15.0663 1.06755ZM15.0663 4.06747C14.0809 4.06747 13.2805 3.26708 13.2805 2.28374C13.2805 1.30039 14.0809 0.5 15.0663 0.5C16.0497 0.5 16.8501 1.30039 16.8501 2.28374C16.8501 3.26708 16.0497 4.06747 15.0663 4.06747Z" fill="black"/>
<path d="M3.75271 7.02794C3.59679 7.02794 3.46997 6.90112 3.46997 6.7452V5.50199C3.46997 5.34607 3.59679 5.21925 3.75271 5.21925C3.90863 5.21925 4.03544 5.34607 4.03544 5.50199V6.7452C4.03544 6.90112 3.90863 7.02794 3.75271 7.02794Z" fill="black"/>
<path d="M3.75271 9.92596C3.59679 9.92596 3.46997 9.79915 3.46997 9.64323V8.40002C3.46997 8.2441 3.59679 8.11728 3.75271 8.11728C3.90863 8.11728 4.03544 8.2441 4.03544 8.40002V9.64323C4.03544 9.79915 3.90863 9.92596 3.75271 9.92596Z" fill="black"/>
<path d="M2.92524 7.85536H1.67995C1.52403 7.85536 1.39722 7.72854 1.39722 7.57262C1.39722 7.4167 1.52403 7.28989 1.67995 7.28989H2.92524C3.08116 7.28989 3.20798 7.4167 3.20798 7.57262C3.20798 7.72854 3.08116 7.85536 2.92524 7.85536Z" fill="black"/>
<path d="M5.82539 7.85536H4.5801C4.42418 7.85536 4.29736 7.72854 4.29736 7.57262C4.29736 7.4167 4.42418 7.28989 4.5801 7.28989H5.82539C5.98339 7.28989 6.10813 7.4167 6.10813 7.57262C6.10813 7.72854 5.98339 7.85536 5.82539 7.85536Z" fill="black"/>
<path d="M20.3261 13.8781C20.3261 14.9134 19.4862 15.7553 18.4468 15.7553C17.4094 15.7553 16.5674 14.9134 16.5674 13.8781C16.5674 12.8407 17.4094 11.9987 18.4468 11.9987C19.4862 11.9987 20.3261 12.8407 20.3261 13.8781Z" fill="#99B9FF"/>
<path d="M141.608 65.7146C141.412 66.4879 140.629 66.9557 139.857 66.7624C139.086 66.5669 138.618 65.7832 138.814 65.0098C139.009 64.2364 139.793 63.7687 140.566 63.962C141.338 64.1574 141.803 64.9433 141.608 65.7146Z" fill="#99B9FF"/>
<path d="M136.113 76.0262C135.993 76.0262 135.872 76.0137 135.754 75.9867C134.885 75.785 134.33 74.9056 134.519 74.0241C134.564 73.8079 134.652 73.6084 134.776 73.4296C134.864 73.3007 135.043 73.2695 135.169 73.3589C135.298 73.4483 135.332 73.625 135.242 73.7518C135.161 73.8703 135.105 74.0013 135.074 74.1426C134.949 74.7247 135.311 75.3027 135.88 75.4337C136.151 75.496 136.427 75.4482 136.66 75.2985C136.901 75.1468 137.065 74.9077 137.126 74.6229C137.25 74.0429 136.889 73.4649 136.319 73.3339C136.167 73.2986 136.072 73.1468 136.107 72.993C136.142 72.8412 136.294 72.7456 136.446 72.7809C137.317 72.9805 137.87 73.8599 137.681 74.7435C137.587 75.1738 137.334 75.5418 136.966 75.7767C136.706 75.9409 136.413 76.0262 136.113 76.0262Z" fill="black"/>
<path d="M144.354 70.1822L143.495 72.0658L145.198 71.9015L144.354 70.1822ZM142.574 72.7227L144.335 68.8559L146.067 72.388L142.574 72.7227Z" fill="black"/>
<path d="M87.7943 63.0971C87.7672 63.0971 87.7381 63.093 87.709 63.0847C86.9939 62.8581 86.2662 62.6335 85.5469 62.4215C85.3972 62.3757 85.312 62.2198 85.3557 62.0701C85.4014 61.9205 85.5594 61.8331 85.7091 61.8789C86.4305 62.093 87.1623 62.3175 87.8816 62.5441C88.0313 62.592 88.1123 62.752 88.0666 62.9017C88.0271 63.0223 87.9169 63.0971 87.7943 63.0971ZM92.0894 64.5524C92.0582 64.5524 92.0249 64.5462 91.9937 64.5358C91.289 64.2821 90.5717 64.0306 89.8587 63.7894C89.7111 63.7395 89.63 63.5795 89.682 63.4319C89.7318 63.2822 89.8919 63.2032 90.0416 63.2531C90.7568 63.4963 91.4782 63.7479 92.185 64.0036C92.3326 64.0555 92.4095 64.2177 92.3555 64.3653C92.3139 64.4796 92.2058 64.5524 92.0894 64.5524ZM96.3221 66.174C96.2868 66.174 96.2514 66.1677 96.2161 66.1532C95.5176 65.8684 94.8107 65.5898 94.1122 65.3237C93.9646 65.2676 93.8939 65.1033 93.948 64.9578C94.0041 64.8123 94.1704 64.7374 94.3159 64.7936C95.0165 65.0638 95.7275 65.3445 96.4281 65.6272C96.5737 65.6875 96.6444 65.8517 96.5841 65.9973C96.5404 66.1075 96.4344 66.174 96.3221 66.174ZM100.486 67.964C100.447 67.964 100.407 67.9556 100.368 67.939C99.6859 67.6292 98.9894 67.3195 98.3013 67.0243C98.1578 66.9619 98.0913 66.7956 98.1537 66.6521C98.214 66.5087 98.3803 66.4422 98.5258 66.5045C99.2181 66.8018 99.9166 67.1116 100.603 67.4234C100.746 67.4879 100.808 67.6563 100.744 67.7976C100.696 67.9037 100.594 67.964 100.486 67.964ZM104.571 69.9265C104.53 69.9265 104.484 69.9161 104.442 69.8953C103.777 69.5585 103.095 69.2217 102.416 68.8953C102.276 68.8267 102.216 68.6583 102.285 68.517C102.351 68.3777 102.522 68.3174 102.663 68.386C103.345 68.7124 104.031 69.0512 104.7 69.3901C104.84 69.4608 104.896 69.6313 104.825 69.7706C104.775 69.8704 104.675 69.9265 104.571 69.9265ZM108.571 72.0616C108.523 72.0616 108.476 72.0491 108.432 72.0262C107.777 71.6582 107.11 71.2924 106.449 70.9389C106.311 70.8641 106.259 70.6936 106.332 70.5564C106.407 70.4171 106.578 70.3651 106.717 70.44C107.382 70.7955 108.052 71.1614 108.708 71.5314C108.846 71.6084 108.894 71.7809 108.817 71.9181C108.767 72.0096 108.669 72.0616 108.571 72.0616ZM112.471 74.3692C112.419 74.3692 112.367 74.3567 112.322 74.3276C111.69 73.9326 111.039 73.5376 110.388 73.1551C110.253 73.074 110.209 72.9015 110.288 72.7663C110.37 72.6312 110.544 72.5875 110.677 72.6665C111.332 73.0532 111.985 73.4503 112.621 73.8453C112.754 73.9285 112.794 74.1031 112.713 74.2361C112.658 74.3214 112.565 74.3692 112.471 74.3692ZM116.265 76.8494C116.209 76.8494 116.153 76.8348 116.105 76.7995C115.486 76.3754 114.854 75.9513 114.228 75.5417C114.097 75.4565 114.06 75.2798 114.145 75.1488C114.23 75.0178 114.407 74.9825 114.538 75.0677C115.168 75.4814 115.804 75.9055 116.426 76.3338C116.554 76.4211 116.588 76.5978 116.498 76.7267C116.444 76.8078 116.355 76.8494 116.265 76.8494ZM119.939 79.5021C119.881 79.5021 119.82 79.4834 119.768 79.4439C119.176 78.9949 118.565 78.5437 117.951 78.1009C117.825 78.0094 117.798 77.8327 117.889 77.7059C117.981 77.5791 118.157 77.55 118.284 77.6415C118.899 78.0864 119.515 78.5416 120.112 78.9949C120.236 79.0884 120.261 79.2651 120.166 79.3919C120.109 79.4647 120.024 79.5021 119.939 79.5021ZM123.486 82.3253C123.421 82.3253 123.357 82.3025 123.305 82.2588C122.733 81.7807 122.145 81.3004 121.552 80.8306C121.432 80.7329 121.411 80.5562 121.509 80.4335C121.606 80.3108 121.785 80.29 121.908 80.3878C122.5 80.8618 123.093 81.3441 123.669 81.8243C123.789 81.9262 123.804 82.105 123.704 82.2235C123.648 82.29 123.567 82.3253 123.486 82.3253ZM126.893 85.3149C126.824 85.3149 126.756 85.2899 126.702 85.2379C126.151 84.7307 125.585 84.2234 125.022 83.7286C124.903 83.6247 124.891 83.4459 124.995 83.3295C125.099 83.213 125.278 83.2006 125.394 83.3045C125.964 83.8014 126.531 84.3128 127.086 84.8222C127.201 84.9303 127.207 85.109 127.101 85.2234C127.045 85.2837 126.97 85.3149 126.893 85.3149ZM130.165 88.4582C130.095 88.4582 130.022 88.4312 129.966 88.3751C129.419 87.8345 128.939 87.3668 128.542 86.9822L128.344 86.7909C128.232 86.6807 128.23 86.5019 128.338 86.3897C128.446 86.2774 128.625 86.2753 128.739 86.3834L128.939 86.5789C129.334 86.9614 129.816 87.4312 130.365 87.9718C130.475 88.0819 130.477 88.2607 130.367 88.373C130.311 88.4291 130.238 88.4582 130.165 88.4582ZM133.35 91.6931C133.273 91.6931 133.201 91.664 133.144 91.6058C132.637 91.0736 132.107 90.5247 131.569 89.9779C131.458 89.8657 131.46 89.6869 131.571 89.5788C131.683 89.4686 131.862 89.4707 131.972 89.5809C132.512 90.1297 133.045 90.6786 133.554 91.2149C133.662 91.3272 133.658 91.506 133.546 91.6141C133.49 91.6661 133.421 91.6931 133.35 91.6931ZM136.421 95.0339C136.342 95.0339 136.265 95.0007 136.209 94.9383C135.718 94.3832 135.207 93.8178 134.691 93.2585C134.587 93.1421 134.593 92.9633 134.708 92.8573C134.824 92.7513 135.003 92.7596 135.109 92.8739C135.629 93.4373 136.14 94.0069 136.633 94.5641C136.737 94.6805 136.726 94.8593 136.608 94.9633C136.554 95.0111 136.487 95.0339 136.421 95.0339ZM139.35 98.4975C139.267 98.4975 139.186 98.4621 139.13 98.3935C138.672 97.8239 138.188 97.2376 137.689 96.6493C137.587 96.5308 137.604 96.352 137.722 96.2501C137.843 96.1503 138.022 96.1649 138.121 96.2834C138.622 96.8738 139.111 97.4663 139.57 98.038C139.67 98.1586 139.652 98.3374 139.529 98.4351C139.475 98.4767 139.412 98.4975 139.35 98.4975ZM142.098 102.107C142.011 102.107 141.924 102.065 141.868 101.988C141.444 101.393 140.992 100.782 140.527 100.171C140.431 100.046 140.454 99.8696 140.579 99.7739C140.704 99.6804 140.88 99.7033 140.976 99.828C141.446 100.443 141.901 101.059 142.329 101.657C142.421 101.784 142.392 101.963 142.263 102.052C142.215 102.09 142.157 102.107 142.098 102.107ZM144.602 105.89C144.506 105.89 144.412 105.84 144.358 105.753C143.984 105.131 143.577 104.491 143.15 103.849C143.065 103.718 143.101 103.541 143.229 103.456C143.36 103.371 143.537 103.404 143.622 103.535C144.053 104.185 144.464 104.832 144.845 105.46C144.924 105.595 144.882 105.768 144.749 105.849C144.701 105.876 144.651 105.89 144.602 105.89ZM146.743 109.884C146.637 109.884 146.533 109.824 146.485 109.72C146.184 109.065 145.845 108.389 145.477 107.709C145.404 107.57 145.454 107.4 145.593 107.325C145.73 107.252 145.903 107.304 145.978 107.441C146.348 108.129 146.693 108.817 147.001 109.483C147.065 109.624 147.005 109.792 146.861 109.857C146.824 109.876 146.782 109.884 146.743 109.884ZM148.317 114.129C148.192 114.129 148.078 114.046 148.042 113.919C147.857 113.231 147.626 112.514 147.354 111.79C147.3 111.643 147.375 111.481 147.52 111.424C147.666 111.37 147.83 111.445 147.884 111.591C148.163 112.333 148.4 113.067 148.591 113.772C148.631 113.923 148.541 114.079 148.389 114.119C148.367 114.125 148.342 114.129 148.317 114.129ZM148.924 118.601C148.922 118.601 148.92 118.601 148.917 118.601C148.762 118.597 148.637 118.468 148.639 118.312C148.641 118.239 148.641 118.168 148.641 118.096C148.641 117.455 148.593 116.784 148.495 116.1C148.475 115.946 148.581 115.803 148.737 115.78C148.892 115.759 149.034 115.865 149.057 116.021C149.157 116.73 149.208 117.428 149.208 118.096C149.208 118.171 149.208 118.247 149.206 118.322C149.204 118.476 149.078 118.601 148.924 118.601ZM147.951 122.99C147.911 122.99 147.87 122.981 147.832 122.963C147.689 122.896 147.628 122.728 147.695 122.586C148.001 121.929 148.236 121.229 148.394 120.503C148.425 120.351 148.576 120.254 148.73 120.287C148.882 120.32 148.98 120.47 148.947 120.624C148.78 121.389 148.533 122.131 148.209 122.825C148.161 122.929 148.059 122.99 147.951 122.99ZM145.219 126.563C145.142 126.563 145.063 126.53 145.007 126.468C144.903 126.349 144.915 126.17 145.032 126.066C145.604 125.565 146.113 125.025 146.547 124.464C146.645 124.339 146.822 124.316 146.947 124.412C147.069 124.507 147.092 124.684 146.996 124.809C146.539 125.401 146.005 125.967 145.406 126.493C145.352 126.538 145.286 126.563 145.219 126.563ZM141.419 129.006C141.313 129.006 141.211 128.948 141.163 128.846C141.094 128.705 141.155 128.536 141.296 128.468C141.995 128.135 142.651 127.773 143.25 127.393C143.383 127.31 143.558 127.349 143.643 127.48C143.726 127.611 143.687 127.788 143.556 127.871C142.936 128.264 142.259 128.638 141.539 128.979C141.5 128.998 141.46 129.006 141.419 129.006ZM138.695 130.102C138.577 130.102 138.467 130.029 138.427 129.91C138.375 129.763 138.456 129.601 138.604 129.551C138.81 129.48 139.017 129.407 139.23 129.33C139.377 129.278 139.539 129.353 139.591 129.499C139.645 129.646 139.57 129.809 139.423 129.863C139.209 129.942 138.997 130.016 138.787 130.087C138.756 130.097 138.726 130.102 138.695 130.102Z" fill="black"/>
<path d="M18.5028 39.0832C18.3594 39.0832 18.2367 38.973 18.2222 38.8275C18.2055 38.6737 18.3199 38.5344 18.4737 38.5177C19.2076 38.4408 19.9727 38.3805 20.746 38.3348C20.9061 38.3223 21.0371 38.445 21.0454 38.6009C21.0558 38.7568 20.9352 38.8899 20.7793 38.9003C20.0142 38.9439 19.2575 39.0063 18.534 39.0811C18.5236 39.0811 18.5132 39.0832 18.5028 39.0832ZM14.031 39.8025C13.9 39.8025 13.7836 39.7131 13.7545 39.5822C13.7192 39.4304 13.8148 39.2765 13.9686 39.2433C14.6859 39.0811 15.4405 38.9377 16.2118 38.8129C16.3657 38.788 16.5112 38.894 16.5361 39.0479C16.5611 39.2038 16.4551 39.3472 16.3012 39.3743C15.5424 39.4928 14.8002 39.6362 14.0934 39.7963C14.0726 39.8004 14.0518 39.8025 14.031 39.8025ZM9.70681 41.1434C9.59454 41.1434 9.48852 41.079 9.44486 40.9688C9.38457 40.8233 9.45317 40.659 9.5987 40.5988C10.2785 40.3181 11.0061 40.0603 11.7566 39.8275C11.9063 39.7838 12.0643 39.867 12.1101 40.0167C12.1558 40.1663 12.0726 40.3243 11.923 40.3701C11.1891 40.5967 10.4781 40.8482 9.81491 41.1227C9.77957 41.1372 9.74215 41.1434 9.70681 41.1434ZM5.75888 43.345C5.67157 43.345 5.58841 43.3055 5.53228 43.2328C5.43872 43.106 5.46367 42.9293 5.58841 42.8357C6.18299 42.3908 6.8337 41.9709 7.52599 41.5904C7.6632 41.5135 7.83575 41.5634 7.91059 41.7006C7.98544 41.8378 7.93554 42.0104 7.80041 42.0852C7.13099 42.4553 6.50107 42.8607 5.92936 43.2889C5.87738 43.3263 5.81709 43.345 5.75888 43.345ZM2.65709 46.6132C2.60512 46.6132 2.55107 46.5986 2.50325 46.5695C2.37228 46.4843 2.33486 46.3096 2.42009 46.1766C2.83588 45.5383 3.3182 44.9292 3.85872 44.3658C3.96683 44.2515 4.14562 44.2473 4.25788 44.3554C4.37222 44.4635 4.37638 44.6423 4.26828 44.7546C3.7527 45.2951 3.29117 45.8772 2.89617 46.4863C2.84212 46.5695 2.75064 46.6132 2.65709 46.6132ZM0.973144 50.7877C0.954433 50.7877 0.935723 50.7877 0.917012 50.7835C0.76317 50.7523 0.66338 50.6027 0.694565 50.4509C0.846328 49.6838 1.06878 48.9374 1.35151 48.2327C1.40972 48.0871 1.57604 48.0164 1.72157 48.0747C1.86709 48.1329 1.9357 48.2971 1.87749 48.4426C1.60722 49.1162 1.39517 49.8293 1.25172 50.5611C1.2247 50.6962 1.1062 50.7877 0.973144 50.7877ZM0.817223 55.2969C0.673775 55.2969 0.551117 55.1888 0.534486 55.0454C0.46588 54.4217 0.432617 53.8042 0.432617 53.2076C0.432617 53.0537 0.434696 52.8999 0.438854 52.7461C0.445091 52.5881 0.571907 52.4592 0.731986 52.4716C0.887907 52.4758 1.01057 52.6068 1.00641 52.7627C1.00225 52.9103 0.998091 53.06 0.998091 53.2076C0.998091 53.7834 1.03343 54.3801 1.09788 54.983C1.11451 55.1389 1.00225 55.2782 0.848407 55.2948C0.838012 55.2969 0.827618 55.2969 0.817223 55.2969ZM1.80057 59.7105C1.68207 59.7105 1.5698 59.6336 1.53238 59.5151C1.28707 58.7688 1.08125 58.0245 0.919091 57.3073C0.883749 57.1555 0.979381 57.0037 1.13322 56.9684C1.28499 56.9351 1.43675 57.0308 1.47209 57.1825C1.63009 57.8831 1.83175 58.6087 2.07083 59.3384C2.11864 59.4881 2.03757 59.6461 1.88996 59.696C1.86085 59.7043 1.82967 59.7105 1.80057 59.7105ZM3.52401 63.8934C3.42007 63.8934 3.32028 63.8372 3.27038 63.7354C2.92528 63.0368 2.60928 62.3362 2.32862 61.6564C2.26833 61.513 2.33693 61.3467 2.48038 61.2885C2.62591 61.2282 2.79222 61.2968 2.85043 61.4402C3.12901 62.1096 3.44086 62.7978 3.77972 63.488C3.84833 63.6273 3.79012 63.7977 3.64875 63.8663C3.60925 63.8851 3.56767 63.8934 3.52401 63.8934ZM5.73394 67.8475C5.64038 67.8475 5.54683 67.7997 5.49278 67.7145C5.08322 67.0575 4.69238 66.3985 4.33272 65.754C4.2558 65.6168 4.30362 65.4443 4.44083 65.3694C4.57804 65.2925 4.75059 65.3403 4.82751 65.4775C5.18301 66.1137 5.5697 66.7665 5.97509 67.4151C6.05825 67.5482 6.01667 67.7228 5.88362 67.8039C5.83788 67.833 5.78591 67.8475 5.73394 67.8475ZM8.28273 71.5938C8.19541 71.5938 8.11017 71.5522 8.05404 71.4774C7.59875 70.8599 7.15594 70.2342 6.73807 69.6209C6.65075 69.492 6.68401 69.3153 6.81291 69.228C6.9418 69.1386 7.11852 69.1718 7.20583 69.3007C7.62162 69.9098 8.06028 70.5294 8.51141 71.1427C8.60288 71.2674 8.57586 71.4441 8.44904 71.5377C8.39915 71.5751 8.34094 71.5938 8.28273 71.5938ZM11.081 75.1571C10.9999 75.1571 10.9188 75.1218 10.8627 75.0552C10.3721 74.4648 9.88975 73.8702 9.43238 73.2881C9.33467 73.1655 9.35546 72.9867 9.4802 72.8911C9.60286 72.7934 9.77957 72.8141 9.87728 72.9389C10.3326 73.5168 10.8107 74.1072 11.2972 74.6914C11.3991 74.812 11.3824 74.9908 11.2619 75.0906C11.2078 75.1342 11.1454 75.1571 11.081 75.1571ZM14.0705 78.5604C13.9957 78.5604 13.9188 78.5292 13.8626 78.4689C13.345 77.9096 12.8335 77.34 12.3408 76.7808C12.239 76.6644 12.2494 76.4856 12.3679 76.3816C12.4843 76.2797 12.6631 76.2901 12.767 76.4066C13.2556 76.9637 13.7649 77.5292 14.2784 78.0864C14.3865 78.2007 14.3782 78.3795 14.2639 78.4855C14.2098 78.5354 14.1391 78.5604 14.0705 78.5604ZM17.216 81.8243C17.1453 81.8243 17.0725 81.7952 17.0164 81.7411C16.4738 81.2006 15.9374 80.6559 15.4218 80.1216C15.3137 80.0094 15.3179 79.8306 15.4302 79.7225C15.5424 79.6123 15.7212 79.6165 15.8314 79.7287C16.3428 80.2609 16.8771 80.8035 17.4176 81.3399C17.5278 81.4501 17.5278 81.6289 17.4176 81.7391C17.3615 81.7952 17.2887 81.8243 17.216 81.8243Z" fill="black"/>
</svg>
