<svg width="160" height="160" viewBox="0 0 160 160" fill="none" xmlns="http://www.w3.org/2000/svg">
<path d="M42.6091 44.1052C57.7774 28.8527 53.4348 19.2918 63.8132 12.2306C79.7823 1.36193 109.586 10.7114 127.169 25.6589C148.707 43.9648 159.817 77.3923 147.159 107.632C133.68 139.837 98.2136 156.555 66.5655 151.516C38.3039 147.016 10.5231 124.761 7.73908 98.0669C7.43785 95.1744 6.10569 79.5346 15.4476 66.0502C23.1693 54.9046 30.586 56.1975 42.6091 44.1052Z" fill="#CADDFF"/>
<path d="M141.288 57.915L16.5982 54.0682C13.6327 54.0682 11.582 55.9954 11.582 58.3659V127.924C11.582 130.295 13.6327 132.224 16.5982 132.224L61.6521 129.784L55.8688 146.655L49.7488 146.694C47.8403 146.694 46.2874 147.935 46.2874 149.462C46.2874 150.985 47.8403 152.225 49.7488 152.225L101.003 150.272C102.912 150.272 99.3399 132.224 99.3399 132.224C99.3399 132.224 144.252 57.915 141.288 57.915Z" fill="#99B9FF"/>
<path d="M98.5355 123.329H66.7395L57.7175 149.641H107.556L98.5355 123.329Z" fill="white"/>
<path d="M146.117 54.3096H19.1579C16.3551 54.3096 14.4448 56.1263 14.4448 58.3659V127.924C14.4448 130.164 16.3551 131.981 19.1579 131.981H146.117C148.918 131.981 150.83 130.164 150.83 127.924V58.3659C150.83 56.1263 148.918 54.3096 146.117 54.3096Z" fill="white"/>
<path d="M112.967 146.938H52.3067C50.5629 146.938 49.1484 148.068 49.1484 149.462C49.1484 150.854 50.5629 151.984 52.3067 151.984H112.967C114.71 151.984 116.123 150.854 116.123 149.462C116.123 148.068 114.71 146.938 112.967 146.938Z" fill="white"/>
<path d="M106.281 146.187C106.173 146.187 106.072 146.118 106.034 146.01L103.499 138.617C103.452 138.481 103.525 138.331 103.662 138.284C103.799 138.238 103.948 138.31 103.995 138.447L106.53 145.839C106.577 145.978 106.504 146.126 106.366 146.172C106.338 146.184 106.31 146.187 106.281 146.187Z" fill="black"/>
<path d="M112.966 152.246C112.822 152.246 112.705 152.128 112.705 151.984C112.705 151.84 112.822 151.722 112.966 151.722C114.562 151.722 115.861 150.708 115.861 149.462C115.861 148.214 114.562 147.2 112.966 147.2H100.554C100.408 147.2 100.292 147.082 100.292 146.938C100.292 146.794 100.408 146.676 100.554 146.676H112.966C114.852 146.676 116.385 147.926 116.385 149.462C116.385 150.996 114.852 152.246 112.966 152.246Z" fill="black"/>
<path d="M108.555 152.246H92.5537C92.4078 152.246 92.2917 152.128 92.2917 151.984C92.2917 151.84 92.4078 151.722 92.5537 151.722H108.555C108.701 151.722 108.817 151.84 108.817 151.984C108.817 152.128 108.701 152.246 108.555 152.246Z" fill="black"/>
<path d="M83.6274 54.5734H77.6589C77.5148 54.5734 77.397 54.4556 77.397 54.3115C77.397 54.1656 77.5148 54.0496 77.6589 54.0496H83.6274C83.7715 54.0496 83.8894 54.1656 83.8894 54.3115C83.8894 54.4556 83.7715 54.5734 83.6274 54.5734Z" fill="black"/>
<path d="M146.117 132.243H19.1579C16.3214 132.243 14.1829 130.387 14.1829 127.925V58.366C14.1829 55.9037 16.3214 54.0496 19.1579 54.0496H41.1647C41.3106 54.0496 41.4266 54.1656 41.4266 54.3115C41.4266 54.4556 41.3106 54.5734 41.1647 54.5734H19.1579C16.6189 54.5734 14.7067 56.2031 14.7067 58.366V127.925C14.7067 130.087 16.6189 131.719 19.1579 131.719H146.117C148.654 131.719 150.566 130.087 150.566 127.925V58.366C150.566 56.2031 148.654 54.5734 146.117 54.5734H87.8969C87.751 54.5734 87.635 54.4556 87.635 54.3115C87.635 54.1656 87.751 54.0496 87.8969 54.0496H146.117C148.954 54.0496 151.092 55.9037 151.092 58.366V127.925C151.092 130.387 148.954 132.243 146.117 132.243Z" fill="black"/>
<path d="M146.68 126.31C146.68 127.305 145.874 128.112 144.877 128.112H20.5892C19.592 128.112 18.7837 127.305 18.7837 126.31V59.8946C18.7837 58.8992 19.592 58.0909 20.5892 58.0909H144.877C145.874 58.0909 146.68 58.8992 146.68 59.8946V126.31Z" fill="#CADDFF"/>
<path d="M144.158 128.637H21.117C19.5809 128.637 18.3311 127.616 18.3311 126.36C18.3311 126.216 18.4489 126.098 18.593 126.098C18.7389 126.098 18.8549 126.216 18.8549 126.36C18.8549 127.328 19.869 128.115 21.117 128.115H144.158C145.404 128.115 146.419 127.328 146.419 126.36V98.9538C146.419 98.8079 146.536 98.6919 146.68 98.6919C146.826 98.6919 146.942 98.8079 146.942 98.9538V126.36C146.942 127.616 145.693 128.637 144.158 128.637Z" fill="black"/>
<path d="M18.593 67.8632C18.4489 67.8632 18.3311 67.7472 18.3311 67.6013V63.3242C18.3311 63.1801 18.4489 63.0641 18.593 63.0641C18.7389 63.0641 18.8549 63.1801 18.8549 63.3242V67.6013C18.8549 67.7472 18.7389 67.8632 18.593 67.8632Z" fill="black"/>
<path d="M18.593 60.1921C18.4489 60.1921 18.3311 60.0761 18.3311 59.9302C18.3311 58.6747 19.5809 57.6531 21.117 57.6531H28.4345C28.5786 57.6531 28.6964 57.771 28.6964 57.9151C28.6964 58.0591 28.5786 58.177 28.4345 58.177H21.117C19.869 58.177 18.8549 58.9647 18.8549 59.9302C18.8549 60.0761 18.7389 60.1921 18.593 60.1921Z" fill="black"/>
<path d="M146.68 63.588C146.536 63.588 146.418 63.4701 146.418 63.3242V59.932C146.418 58.9628 145.404 58.177 144.158 58.177H136.631C136.489 58.177 136.371 58.061 136.371 57.9151C136.371 57.771 136.489 57.6531 136.631 57.6531H144.158C145.692 57.6531 146.942 58.6747 146.942 59.932V63.3242C146.942 63.4701 146.826 63.588 146.68 63.588Z" fill="black"/>
<path d="M146.68 73.0609C146.536 73.0609 146.418 72.9449 146.418 72.799V68.0728C146.418 67.9287 146.536 67.8109 146.68 67.8109C146.826 67.8109 146.942 67.9287 146.942 68.0728V72.799C146.942 72.9449 146.826 73.0609 146.68 73.0609Z" fill="black"/>
<path d="M104.532 22.0216C106.15 24.7795 109.95 25.324 110.802 25.4175C114.263 25.8067 116.821 24.1434 117.511 23.6588C118.71 24.396 121.616 25.9451 125.409 25.6551C128.408 25.425 133.46 23.9301 134.44 20.4257C135.611 16.2327 130.329 11.3625 125.798 9.64304C122 8.19862 116.205 8.01526 113.432 10.934C112.415 12.008 112.257 13.0202 111.054 13.372C108.895 14.0006 107.309 11.3457 104.51 11.4804C102.831 11.5627 101.522 12.6067 100.711 13.4206C98.6476 14.1017 97.381 15.4712 97.5344 16.5733C97.6953 17.7221 99.3755 18.4181 99.7029 18.5528C101.406 19.2582 102.307 18.5472 103.314 19.2844C104.206 19.9392 103.845 20.8504 104.532 22.0216Z" fill="black"/>
<path d="M106.753 24.858C106.753 24.858 98.2548 27.5691 94.1236 24.858C92.1815 23.582 84.9519 14.5749 83.384 13.7423C82.4298 13.2353 80.9498 12.4757 79.9339 11.9574C79.2266 11.5963 78.3978 11.557 77.6606 11.8507L73.4377 13.5272C73.4377 13.5272 74.667 14.5151 76.669 14.1203C77.96 13.8658 79.2959 13.9949 80.4858 14.5581L80.5682 14.5974L76.7738 15.7761C76.7738 15.7761 77.3482 16.7341 79.3819 16.3655C80.4559 16.1709 81.7488 16.4123 82.731 16.6836L82.8003 16.7191C82.8003 16.7191 86.4263 26.7795 91.7456 29.9284C99.4841 34.5087 107.615 31.6292 107.615 31.6292L106.753 24.858Z" fill="white"/>
<path d="M80.224 16.0362C81.139 16.0362 82.0876 16.2345 82.8004 16.431C82.8191 16.4366 82.836 16.4441 82.8509 16.4516L82.922 16.4871C82.98 16.5189 83.0249 16.5694 83.0474 16.6312C83.0829 16.7322 86.7033 26.6392 91.8786 29.7021C98.7601 33.7771 106.04 31.8425 107.329 31.4477L106.532 25.1985C104.953 25.6625 97.7722 27.5672 93.9797 25.0769C92.9862 24.4239 90.7878 21.9617 88.4621 19.3572C86.2711 16.9062 84.0072 14.371 83.2607 13.9744C82.3177 13.4729 80.8658 12.7264 79.8143 12.1913C79.1744 11.8639 78.4241 11.8283 77.7562 12.094L74.0254 13.5777C74.5156 13.8134 75.4118 14.0997 76.6186 13.8621C78.0088 13.5889 79.384 13.748 80.5982 14.3224L80.6787 14.3598C80.7779 14.4066 80.8359 14.5076 80.8284 14.6161C80.8209 14.7228 80.7479 14.8144 80.645 14.8481L77.2791 15.894C77.5971 16.0942 78.2183 16.3112 79.3353 16.1073C79.6197 16.0568 79.9209 16.0362 80.224 16.0362ZM101.518 32.7705C98.6292 32.7705 95.0705 32.2017 91.6129 30.1548C86.5106 27.135 83.0231 18.0793 82.5946 16.9174C81.7003 16.6761 80.4504 16.4403 79.4289 16.6237C77.2417 17.0204 76.5774 15.9576 76.5494 15.9108C76.5082 15.8416 76.5007 15.7593 76.5288 15.6845C76.5569 15.6096 76.6186 15.5497 76.6972 15.5254L79.7993 14.5618C78.8339 14.2325 77.7824 14.1689 76.7196 14.3766C74.6222 14.7901 73.3275 13.776 73.2732 13.733C73.2003 13.675 73.1629 13.5814 73.1778 13.4898C73.1909 13.3981 73.2527 13.3195 73.3406 13.2839L77.5616 11.6075C78.3717 11.2857 79.2792 11.3287 80.0538 11.7235C81.1072 12.2624 82.5609 13.0089 83.5058 13.5103C84.3365 13.9519 86.5293 16.4085 88.8513 19.0074C91.0534 21.4734 93.3323 24.0235 94.2678 24.6391C98.2475 27.2529 106.588 24.6354 106.673 24.6073C106.746 24.5848 106.828 24.5942 106.893 24.6372C106.959 24.6784 107.002 24.7476 107.013 24.8243L107.876 31.5974C107.891 31.719 107.82 31.835 107.704 31.8762C107.657 31.893 105.105 32.7705 101.518 32.7705Z" fill="black"/>
<path d="M124.692 41.7233C124.692 41.7233 117.302 46.7376 106.989 45.2614C106.989 45.2614 108.383 42.569 110.764 41.6055C113.148 40.6381 124.692 41.7233 124.692 41.7233Z" fill="black"/>
<path d="M134.863 54.3732C134.403 43.1247 127.914 38.9804 127.914 38.9804L114.542 42.3127L109.026 54.3732H134.863Z" fill="black"/>
<path d="M107.041 23.8028L114.07 20.2928C115.854 19.4041 118.011 19.8045 119.349 21.2807C122.417 24.6654 127.701 31.2045 130.358 38.653C130.358 38.653 125.581 44.7413 119.263 44.3184C112.946 43.8937 109.223 43.4877 106.989 45.2614C106.989 45.2614 105.129 35.9251 104.755 27.6796C104.68 26.0499 105.58 24.5306 107.041 23.8028Z" fill="#1958DF"/>
<path d="M118.237 42.8834C118.104 42.8834 117.99 42.7823 117.977 42.6457C117.74 40.1161 116.95 38.3162 115.629 37.2984C114.621 36.5238 113.552 36.3704 112.418 36.2076C111.214 36.0355 109.969 35.8577 108.697 34.9334C107.363 33.9661 106.413 32.4712 105.872 30.4935C105.834 30.3532 105.917 30.2091 106.057 30.1698C106.195 30.1324 106.34 30.2148 106.379 30.3551C106.886 32.2167 107.771 33.6162 109.006 34.5106C110.171 35.3563 111.352 35.5265 112.493 35.6893C113.642 35.8558 114.832 36.0242 115.947 36.8849C117.39 37.9925 118.249 39.9159 118.497 42.5971C118.512 42.7412 118.408 42.8703 118.264 42.8834C118.254 42.8834 118.247 42.8834 118.237 42.8834Z" fill="black"/>
<path d="M129.295 53.9878L114.448 23.6568C113.848 22.4295 114.353 20.9476 115.579 20.3433C116.718 19.7801 118.097 20.1693 118.776 21.2432C120.757 24.3791 124.55 30.6937 125.401 34.3328C126.567 39.3153 128.258 41.7813 129.295 43.3679C129.965 44.3932 130.805 48.0305 131.314 50.4815C131.572 51.722 132.846 52.4704 134.057 52.0887H134.06C135.146 51.7463 136.326 51.9465 137.239 52.6238L138.835 53.8082C139.009 53.9373 138.914 54.2123 138.699 54.2067L129.295 53.9878Z" fill="white"/>
<path d="M129.461 53.7296L138.575 53.941L137.084 52.8334C136.24 52.2066 135.14 52.0232 134.141 52.3376C133.49 52.5415 132.782 52.4629 132.197 52.1205C131.611 51.7763 131.196 51.1981 131.057 50.5339C130.272 46.7563 129.566 44.2623 129.076 43.5101L128.966 43.3399C127.897 41.7102 126.281 39.2442 125.147 34.3927C124.314 30.8359 120.66 24.7159 118.555 21.3817C117.947 20.42 116.716 20.0739 115.695 20.5772C114.602 21.1179 114.149 22.4463 114.684 23.5409L129.461 53.7296ZM138.704 54.4687C138.7 54.4687 138.697 54.4687 138.693 54.4687L129.13 54.2441L114.213 23.771C113.552 22.4183 114.112 20.7755 115.462 20.1076C116.725 19.4845 118.247 19.913 118.999 21.1029C121.12 24.4633 124.806 30.6432 125.658 34.273C126.769 39.0347 128.356 41.4539 129.403 43.0536L129.516 43.2239C130.189 44.2567 131.005 47.7106 131.57 50.4273C131.679 50.9474 132.004 51.3983 132.462 51.6677C132.921 51.9353 133.473 51.9989 133.978 51.8399C135.144 51.4713 136.42 51.6883 137.396 52.4124L138.992 53.5986C139.163 53.724 139.23 53.9429 139.161 54.1431C139.093 54.3396 138.91 54.4687 138.704 54.4687Z" fill="black"/>
<path d="M107.058 17.9316C107.069 17.9204 107.788 17.0971 107.395 16.4965C106.996 15.8885 106.21 16.693 106.21 16.693C106.21 16.693 105.544 15.5386 104.021 15.5797C104.021 15.5797 103.374 17.0541 101.714 17.0466C101.714 17.0466 102.092 17.911 102.652 18.869L102.833 19.898C102.861 20.0552 103.033 20.1357 103.17 20.0552C103.273 19.9935 103.404 20.0215 103.475 20.1169C103.887 20.6558 104.33 21.1067 104.768 21.3032C105.378 21.5763 105.926 21.2957 106.338 20.7681C107.307 21.9431 108.738 23.9413 108.07 24.8057C108.07 24.8057 110.252 25.4362 112.409 22.4725L107.058 17.9316Z" fill="white"/>
<path d="M108.459 24.6017C109.082 24.6372 110.542 24.4745 112.052 22.5137L106.684 17.9596L106.862 17.7594C106.869 17.7501 107.451 17.0634 107.174 16.6406C107.116 16.5526 107.064 16.5358 107.024 16.532C106.826 16.5152 106.515 16.7547 106.396 16.8763L106.154 17.1214L105.982 16.8239C105.958 16.7846 105.412 15.8809 104.18 15.8435C103.971 16.214 103.34 17.1233 102.111 17.2842C102.272 17.6191 102.543 18.1636 102.878 18.7361L102.902 18.7772L103.082 19.8063C103.292 19.7109 103.542 19.7726 103.685 19.9579C104.122 20.5341 104.523 20.9065 104.875 21.0636C105.425 21.3106 105.861 20.9514 106.13 20.6071L106.332 20.3526L106.538 20.6033C108.046 22.4276 108.688 23.7691 108.459 24.6017ZM108.605 25.1275C108.248 25.1275 108.025 25.0657 107.997 25.0582L107.627 24.9516L107.863 24.6466C108.25 24.147 107.675 22.8579 106.326 21.1721C105.831 21.6642 105.236 21.7989 104.659 21.5426C104.231 21.3499 103.769 20.9308 103.28 20.2928C103.146 20.362 102.989 20.3676 102.85 20.304C102.704 20.2366 102.601 20.1038 102.575 19.9448L102.401 18.9606C101.855 18.0176 101.49 17.1888 101.473 17.1532L101.312 16.7827L101.714 16.7865C101.718 16.7865 101.722 16.7865 101.727 16.7865C103.178 16.7865 103.758 15.5273 103.782 15.4749L103.849 15.3234L104.014 15.3196C105.226 15.2803 105.943 15.9371 106.253 16.3094C106.457 16.1578 106.766 15.9801 107.077 16.0119C107.228 16.025 107.445 16.098 107.612 16.3524C107.977 16.91 107.64 17.563 107.415 17.8941L112.763 22.4313L112.621 22.6278C111.047 24.7888 109.451 25.1275 108.605 25.1275Z" fill="black"/>
<path d="M106.336 21.0319C106.278 21.0319 106.216 21.0113 106.167 20.9701C106.057 20.8766 106.044 20.7119 106.135 20.5997C106.377 20.3153 106.594 19.6904 106.659 19.4733C106.699 19.3349 106.845 19.2544 106.983 19.2956C107.121 19.3367 107.202 19.4808 107.161 19.6211C107.151 19.6567 106.899 20.5099 106.538 20.9383C106.485 21.0001 106.41 21.0319 106.336 21.0319Z" fill="black"/>
<path d="M81.3709 17.0541C81.3709 15.4693 80.0836 14.184 78.4989 14.184H33.7892C32.2026 14.184 30.9172 15.4693 30.9172 17.0541V46.6217C30.9172 48.2064 32.2026 49.4918 33.7892 49.4918H78.4989C80.0836 49.4918 81.3709 48.2064 81.3709 46.6217V17.0541Z" fill="#1958DF"/>
<path d="M76.0384 33.5583C76.0384 34.1158 75.5875 34.5686 75.0299 34.5686H37.258C36.7004 34.5686 36.2495 34.1158 36.2495 33.5583V18.8858C36.2495 18.3282 36.7004 17.8773 37.258 17.8773H75.0299C75.5875 17.8773 76.0384 18.3282 76.0384 18.8858V33.5583Z" fill="#CADDFF"/>
<path d="M40.2647 27.5804C40.1992 27.5804 40.1319 27.5542 40.0795 27.5018L38.4854 25.9096C38.3825 25.8067 38.3825 25.642 38.4854 25.5391L40.0795 23.9469C40.1824 23.844 40.3489 23.844 40.4499 23.9469C40.5528 24.0479 40.5528 24.2144 40.4499 24.3155L39.0411 25.7243L40.4499 27.1332C40.5528 27.2342 40.5528 27.4008 40.4499 27.5018C40.3994 27.5542 40.3321 27.5804 40.2647 27.5804Z" fill="black"/>
<path d="M72.0234 27.5804C71.956 27.5804 71.8887 27.5542 71.8382 27.5018C71.7353 27.4008 71.7353 27.2342 71.8382 27.1332L73.247 25.7243L71.8382 24.3155C71.7353 24.2144 71.7353 24.0479 71.8382 23.9469C71.9392 23.844 72.1057 23.844 72.2086 23.9469L73.8027 25.5391C73.9056 25.642 73.9056 25.8067 73.8027 25.9096L72.2086 27.5018C72.1562 27.5542 72.0908 27.5804 72.0234 27.5804Z" fill="black"/>
<path d="M52.6394 37.8054C52.6394 38.1834 52.3326 38.4902 51.9528 38.4902C51.573 38.4902 51.2661 38.1834 51.2661 37.8054C51.2661 37.4256 51.573 37.1188 51.9528 37.1188C52.3326 37.1188 52.6394 37.4256 52.6394 37.8054Z" fill="black"/>
<path d="M56.8306 37.8054C56.8306 38.1834 56.5238 38.4902 56.1439 38.4902C55.7641 38.4902 55.4573 38.1834 55.4573 37.8054C55.4573 37.4256 55.7641 37.1188 56.1439 37.1188C56.5238 37.1188 56.8306 37.4256 56.8306 37.8054Z" fill="black"/>
<path d="M61.0218 37.8054C61.0218 38.1834 60.7149 38.4902 60.3351 38.4902C59.9553 38.4902 59.6484 38.1834 59.6484 37.8054C59.6484 37.4256 59.9553 37.1188 60.3351 37.1188C60.7149 37.1188 61.0218 37.4256 61.0218 37.8054Z" fill="black"/>
<path d="M54.0522 44.5486C54.0522 45.1043 53.5994 45.557 53.0418 45.557H37.258C36.7004 45.557 36.2495 45.1043 36.2495 44.5486V42.1555C36.2495 41.598 36.7004 41.1452 37.258 41.1452H53.0418C53.5994 41.1452 54.0522 41.598 54.0522 42.1555V44.5486Z" fill="#CADDFF"/>
<path d="M76.0405 44.5486C76.0405 45.1043 75.5877 45.557 75.0301 45.557H59.2463C58.6887 45.557 58.2378 45.1043 58.2378 44.5486V42.1555C58.2378 41.598 58.6887 41.1452 59.2463 41.1452H75.0301C75.5877 41.1452 76.0405 41.598 76.0405 42.1555V44.5486Z" fill="#CADDFF"/>
<path d="M81.0098 64.0781C81.0098 62.4934 79.7225 61.208 78.1378 61.208H33.43C31.8434 61.208 30.5562 62.4934 30.5562 64.0781V93.6457C30.5562 95.2304 31.8434 96.5158 33.43 96.5158H78.1378C79.7225 96.5158 81.0098 95.2304 81.0098 93.6457V64.0781Z" fill="#1958DF"/>
<path d="M47.9639 76.0302C47.9639 76.5877 47.513 77.0405 46.9555 77.0405H36.8969C36.3393 77.0405 35.8884 76.5877 35.8884 76.0302V66.0914C35.8884 65.5338 36.3393 65.0829 36.8969 65.0829H46.9555C47.513 65.0829 47.9639 65.5338 47.9639 66.0914V76.0302Z" fill="#CADDFF"/>
<path d="M61.8209 76.0302C61.8209 76.5877 61.3699 77.0405 60.8124 77.0405H50.7538C50.1963 77.0405 49.7454 76.5877 49.7454 76.0302V66.0914C49.7454 65.5338 50.1963 65.0829 50.7538 65.0829H60.8124C61.3699 65.0829 61.8209 65.5338 61.8209 66.0914V76.0302Z" fill="white"/>
<path d="M75.6773 76.0302C75.6773 76.5877 75.2264 77.0405 74.6688 77.0405H64.6103C64.0546 77.0405 63.6018 76.5877 63.6018 76.0302V66.0914C63.6018 65.5338 64.0546 65.0829 64.6103 65.0829H74.6688C75.2264 65.0829 75.6773 65.5338 75.6773 66.0914V76.0302Z" fill="#CADDFF"/>
<path d="M47.9639 80.7826C47.9639 81.3401 47.513 81.7929 46.9555 81.7929H36.8969C36.3393 81.7929 35.8884 81.3401 35.8884 80.7826V80.6909C35.8884 80.1333 36.3393 79.6805 36.8969 79.6805H46.9555C47.513 79.6805 47.9639 80.1333 47.9639 80.6909V80.7826Z" fill="#CADDFF"/>
<path d="M61.4916 81.7929H50.0747C49.8913 81.7929 49.7454 81.6451 49.7454 81.4636V80.0098C49.7454 79.8284 49.8913 79.6805 50.0747 79.6805H61.4916C61.673 79.6805 61.8209 79.8284 61.8209 80.0098V81.4636C61.8209 81.6451 61.673 81.7929 61.4916 81.7929Z" fill="white"/>
<path d="M75.6773 80.7826C75.6773 81.3401 75.2264 81.7929 74.6688 81.7929H64.6103C64.0546 81.7929 63.6018 81.3401 63.6018 80.7826V80.6909C63.6018 80.1333 64.0546 79.6805 64.6103 79.6805H74.6688C75.2264 79.6805 75.6773 80.1333 75.6773 80.6909V80.7826Z" fill="#CADDFF"/>
<path d="M46.7011 84.6705H44.1789C44.0349 84.6705 43.917 84.5526 43.917 84.4085C43.917 84.2626 44.0349 84.1466 44.1789 84.1466H46.7011C46.8451 84.1466 46.963 84.2626 46.963 84.4085C46.963 84.5526 46.8451 84.6705 46.7011 84.6705Z" fill="#CADDFF"/>
<path d="M42.7962 84.6705H37.1513C37.0073 84.6705 36.8894 84.5526 36.8894 84.4085C36.8894 84.2626 37.0073 84.1466 37.1513 84.1466H42.7962C42.9421 84.1466 43.06 84.2626 43.06 84.4085C43.06 84.5526 42.9421 84.6705 42.7962 84.6705Z" fill="#CADDFF"/>
<path d="M46.701 86.171H40.6277C40.4836 86.171 40.3657 86.0531 40.3657 85.909C40.3657 85.7631 40.4836 85.6471 40.6277 85.6471H46.701C46.845 85.6471 46.9629 85.7631 46.9629 85.909C46.9629 86.0531 46.845 86.171 46.701 86.171Z" fill="#CADDFF"/>
<path d="M39.2188 86.171H37.1513C37.0073 86.171 36.8894 86.0531 36.8894 85.909C36.8894 85.7631 37.0073 85.6471 37.1513 85.6471H39.2188C39.3629 85.6471 39.4808 85.7631 39.4808 85.909C39.4808 86.0531 39.3629 86.171 39.2188 86.171Z" fill="#CADDFF"/>
<path d="M46.701 87.6716H37.1513C37.0073 87.6716 36.8894 87.5537 36.8894 87.4096C36.8894 87.2656 37.0073 87.1477 37.1513 87.1477H46.701C46.845 87.1477 46.9629 87.2656 46.9629 87.4096C46.9629 87.5537 46.845 87.6716 46.701 87.6716Z" fill="#CADDFF"/>
<path d="M60.5577 84.6705H55.1242C54.9783 84.6705 54.8623 84.5526 54.8623 84.4085C54.8623 84.2626 54.9783 84.1466 55.1242 84.1466H60.5577C60.7036 84.1466 60.8196 84.2626 60.8196 84.4085C60.8196 84.5526 60.7036 84.6705 60.5577 84.6705Z" fill="#CADDFF"/>
<path d="M53.6911 84.6705H51.008C50.864 84.6705 50.7461 84.5526 50.7461 84.4085C50.7461 84.2626 50.864 84.1466 51.008 84.1466H53.6911C53.8351 84.1466 53.953 84.2626 53.953 84.4085C53.953 84.5526 53.8351 84.6705 53.6911 84.6705Z" fill="#CADDFF"/>
<path d="M60.5577 86.171H51.008C50.864 86.171 50.7461 86.0531 50.7461 85.909C50.7461 85.7631 50.864 85.6471 51.008 85.6471H60.5577C60.7036 85.6471 60.8196 85.7631 60.8196 85.909C60.8196 86.0531 60.7036 86.171 60.5577 86.171Z" fill="#CADDFF"/>
<path d="M60.5577 87.6716H58.8083C58.6643 87.6716 58.5464 87.5537 58.5464 87.4096C58.5464 87.2656 58.6643 87.1477 58.8083 87.1477H60.5577C60.7037 87.1477 60.8197 87.2656 60.8197 87.4096C60.8197 87.5537 60.7037 87.6716 60.5577 87.6716Z" fill="#CADDFF"/>
<path d="M57.4181 87.6716H51.008C50.864 87.6716 50.7461 87.5537 50.7461 87.4096C50.7461 87.2656 50.864 87.1477 51.008 87.1477H57.4181C57.5622 87.1477 57.6801 87.2656 57.6801 87.4096C57.6801 87.5537 57.5622 87.6716 57.4181 87.6716Z" fill="#CADDFF"/>
<path d="M74.4145 84.6705H68.6294C68.4853 84.6705 68.3674 84.5526 68.3674 84.4085C68.3674 84.2626 68.4853 84.1466 68.6294 84.1466H74.4145C74.5586 84.1466 74.6765 84.2626 74.6765 84.4085C74.6765 84.5526 74.5586 84.6705 74.4145 84.6705Z" fill="#CADDFF"/>
<path d="M67.0933 84.6705H64.865C64.7209 84.6705 64.603 84.5526 64.603 84.4085C64.603 84.2626 64.7209 84.1466 64.865 84.1466H67.0933C67.2374 84.1466 67.3553 84.2626 67.3553 84.4085C67.3553 84.5526 67.2374 84.6705 67.0933 84.6705Z" fill="#CADDFF"/>
<path d="M74.4145 86.171H72.6127C72.4668 86.171 72.3489 86.0531 72.3489 85.909C72.3489 85.7631 72.4668 85.6471 72.6127 85.6471H74.4145C74.5585 85.6471 74.6764 85.7631 74.6764 85.909C74.6764 86.0531 74.5585 86.171 74.4145 86.171Z" fill="#CADDFF"/>
<path d="M71.1104 86.171H64.865C64.7209 86.171 64.603 86.0531 64.603 85.909C64.603 85.7631 64.7209 85.6471 64.865 85.6471H71.1104C71.2545 85.6471 71.3723 85.7631 71.3723 85.909C71.3723 86.0531 71.2545 86.171 71.1104 86.171Z" fill="#CADDFF"/>
<path d="M74.4144 87.6716H69.4338C69.2879 87.6716 69.1719 87.5537 69.1719 87.4096C69.1719 87.2656 69.2879 87.1477 69.4338 87.1477H74.4144C74.5585 87.1477 74.6764 87.2656 74.6764 87.4096C74.6764 87.5537 74.5585 87.6716 74.4144 87.6716Z" fill="#CADDFF"/>
<path d="M67.9877 87.6716H64.865C64.7209 87.6716 64.603 87.5537 64.603 87.4096C64.603 87.2656 64.7209 87.1477 64.865 87.1477H67.9877C68.1318 87.1477 68.2496 87.2656 68.2496 87.4096C68.2496 87.5537 68.1318 87.6716 67.9877 87.6716Z" fill="#CADDFF"/>
<path d="M52.2784 91.7074C52.2784 92.0872 51.9715 92.394 51.5917 92.394C51.2119 92.394 50.905 92.0872 50.905 91.7074C50.905 91.3294 51.2119 91.0226 51.5917 91.0226C51.9715 91.0226 52.2784 91.3294 52.2784 91.7074Z" fill="black"/>
<path d="M56.4695 91.7074C56.4695 92.0872 56.1627 92.394 55.7829 92.394C55.403 92.394 55.0962 92.0872 55.0962 91.7074C55.0962 91.3294 55.403 91.0226 55.7829 91.0226C56.1627 91.0226 56.4695 91.3294 56.4695 91.7074Z" fill="black"/>
<path d="M60.6607 91.7074C60.6607 92.0872 60.3538 92.394 59.974 92.394C59.5942 92.394 59.2874 92.0872 59.2874 91.7074C59.2874 91.3294 59.5942 91.0226 59.974 91.0226C60.3538 91.0226 60.6607 91.3294 60.6607 91.7074Z" fill="black"/>
<path d="M138.927 64.0781C138.927 62.4915 137.639 61.208 136.053 61.208H91.3449C89.7583 61.208 88.4729 62.4915 88.4729 64.0781V93.6457C88.4729 95.2304 89.7583 96.5158 91.3449 96.5158H136.053C137.639 96.5158 138.927 95.2304 138.927 93.6457V64.0781Z" fill="#1958DF"/>
<path d="M116.353 86.4011C116.353 86.9568 115.902 87.4096 115.344 87.4096H94.8138C94.2563 87.4096 93.8035 86.9568 93.8035 86.4011V66.0913C93.8035 65.5338 94.2563 65.081 94.8138 65.081H115.344C115.902 65.081 116.353 65.5338 116.353 66.0913V86.4011Z" fill="#CADDFF"/>
<path d="M132.584 65.0829H122.527C121.97 65.0829 121.517 65.5338 121.517 66.0914V76.0302C121.517 76.5877 121.97 77.0405 122.527 77.0405H132.584C133.142 77.0405 133.594 76.5877 133.594 76.0302V66.0914C133.594 65.5338 133.142 65.0829 132.584 65.0829ZM132.584 65.6068C132.852 65.6068 133.069 65.8238 133.069 66.0914V76.0302C133.069 76.2977 132.852 76.5166 132.584 76.5166H122.527C122.26 76.5166 122.041 76.2977 122.041 76.0302V66.0914C122.041 65.8238 122.26 65.6068 122.527 65.6068H132.584Z" fill="black"/>
<path d="M132.332 80.5524H129.809C129.663 80.5524 129.547 80.4364 129.547 80.2904C129.547 80.1464 129.663 80.0285 129.809 80.0285H132.332C132.476 80.0285 132.593 80.1464 132.593 80.2904C132.593 80.4364 132.476 80.5524 132.332 80.5524Z" fill="white"/>
<path d="M128.425 80.5524H122.78C122.636 80.5524 122.518 80.4364 122.518 80.2923C122.518 80.1482 122.636 80.0285 122.78 80.0285H128.425C128.571 80.0285 128.689 80.1482 128.689 80.2923C128.689 80.4364 128.571 80.5524 128.425 80.5524Z" fill="white"/>
<path d="M132.332 82.053H126.258C126.114 82.053 125.996 81.937 125.996 81.791C125.996 81.6469 126.114 81.5309 126.258 81.5309H132.332C132.476 81.5309 132.594 81.6469 132.594 81.791C132.594 81.937 132.476 82.053 132.332 82.053Z" fill="white"/>
<path d="M124.847 82.0548H122.782C122.636 82.0548 122.518 81.9369 122.518 81.791C122.518 81.6488 122.636 81.5291 122.782 81.5291H124.847C124.993 81.5291 125.111 81.6488 125.111 81.791C125.111 81.9369 124.993 82.0548 124.847 82.0548Z" fill="white"/>
<path d="M132.332 85.0073H129.809C129.663 85.0073 129.547 84.8894 129.547 84.7435C129.547 84.6013 129.663 84.4834 129.809 84.4834H132.332C132.476 84.4834 132.593 84.6013 132.593 84.7435C132.593 84.8894 132.476 85.0073 132.332 85.0073Z" fill="white"/>
<path d="M128.425 85.0073H122.78C122.636 85.0073 122.518 84.8894 122.518 84.7453C122.518 84.6013 122.636 84.4834 122.78 84.4834H128.425C128.571 84.4834 128.689 84.6013 128.689 84.7453C128.689 84.8894 128.571 85.0073 128.425 85.0073Z" fill="white"/>
<path d="M132.332 86.5078H126.258C126.114 86.5078 125.996 86.39 125.996 86.2459C125.996 86.1018 126.114 85.9839 126.258 85.9839H132.332C132.476 85.9839 132.594 86.1018 132.594 86.2459C132.594 86.39 132.476 86.5078 132.332 86.5078Z" fill="white"/>
<path d="M124.847 86.5078H122.782C122.636 86.5078 122.518 86.39 122.518 86.2459C122.518 86.1018 122.636 85.9839 122.782 85.9839H124.847C124.993 85.9839 125.111 86.1018 125.111 86.2459C125.111 86.39 124.993 86.5078 124.847 86.5078Z" fill="white"/>
<path d="M132.331 83.5554H122.782C122.636 83.5554 122.52 83.4375 122.52 83.2934C122.52 83.1475 122.636 83.0315 122.782 83.0315H132.331C132.475 83.0315 132.593 83.1475 132.593 83.2934C132.593 83.4375 132.475 83.5554 132.331 83.5554Z" fill="white"/>
<path d="M110.194 91.7074C110.194 92.0872 109.887 92.394 109.507 92.394C109.129 92.394 108.822 92.0872 108.822 91.7074C108.822 91.3294 109.129 91.0226 109.507 91.0226C109.887 91.0226 110.194 91.3294 110.194 91.7074Z" fill="black"/>
<path d="M114.385 91.7074C114.385 92.0872 114.078 92.394 113.698 92.394C113.32 92.394 113.013 92.0872 113.013 91.7074C113.013 91.3294 113.32 91.0226 113.698 91.0226C114.078 91.0226 114.385 91.3294 114.385 91.7074Z" fill="black"/>
<path d="M118.576 91.7092C118.576 92.0872 118.269 92.394 117.889 92.394C117.511 92.394 117.202 92.0872 117.202 91.7092C117.202 91.3294 117.511 91.0226 117.889 91.0226C118.269 91.0226 118.576 91.3294 118.576 91.7092Z" fill="black"/>
<path d="M138.927 107.151C138.927 105.564 137.639 104.281 136.053 104.281H91.3449C89.7583 104.281 88.4729 105.564 88.4729 107.151V136.718C88.4729 138.303 89.7583 139.588 91.3449 139.588H136.053C137.639 139.588 138.927 138.303 138.927 136.718V107.151Z" fill="#1958DF"/>
<path d="M120.233 122.358C120.233 122.916 119.781 123.367 119.223 123.367H109.166C108.609 123.367 108.156 122.916 108.156 122.358V112.419C108.156 111.862 108.609 111.409 109.166 111.409H119.223C119.781 111.409 120.233 111.862 120.233 112.419V122.358Z" fill="white"/>
<path d="M118.971 126.88H116.447C116.303 126.88 116.185 126.763 116.185 126.619C116.185 126.474 116.303 126.357 116.447 126.357H118.971C119.115 126.357 119.231 126.474 119.231 126.619C119.231 126.763 119.115 126.88 118.971 126.88Z" fill="white"/>
<path d="M115.066 126.88H109.421C109.277 126.88 109.159 126.763 109.159 126.619C109.159 126.474 109.277 126.357 109.421 126.357H115.066C115.212 126.357 115.328 126.474 115.328 126.619C115.328 126.763 115.212 126.88 115.066 126.88Z" fill="white"/>
<path d="M119.016 131.842C119.016 132.456 118.518 132.952 117.906 132.952H111.174C110.561 132.952 110.065 132.456 110.065 131.842C110.065 131.23 110.561 130.735 111.174 130.735H117.906C118.518 130.735 119.016 131.23 119.016 131.842Z" fill="#CADDFF"/>
<path d="M111.829 131.842C111.829 132.063 111.651 132.243 111.429 132.243C111.208 132.243 111.028 132.063 111.028 131.842C111.028 131.622 111.208 131.442 111.429 131.442C111.651 131.442 111.829 131.622 111.829 131.842Z" fill="#1958DF"/>
<path d="M113.322 131.842C113.322 132.063 113.144 132.243 112.922 132.243C112.701 132.243 112.521 132.063 112.521 131.842C112.521 131.622 112.701 131.442 112.922 131.442C113.144 131.442 113.322 131.622 113.322 131.842Z" fill="#1958DF"/>
<path d="M114.817 131.842C114.817 132.063 114.637 132.243 114.415 132.243C114.194 132.243 114.014 132.063 114.014 131.842C114.014 131.622 114.194 131.442 114.415 131.442C114.637 131.442 114.817 131.622 114.817 131.842Z" fill="#1958DF"/>
<path d="M116.31 131.842C116.31 132.063 116.13 132.243 115.91 132.243C115.687 132.243 115.507 132.063 115.507 131.842C115.507 131.622 115.687 131.442 115.91 131.442C116.13 131.442 116.31 131.622 116.31 131.842Z" fill="black"/>
<path d="M117.803 131.842C117.803 132.063 117.623 132.243 117.403 132.243C117.18 132.243 117.002 132.063 117.002 131.842C117.002 131.622 117.18 131.442 117.403 131.442C117.623 131.442 117.803 131.622 117.803 131.842Z" fill="#1958DF"/>
<path d="M134.012 112.021H129.321C129.175 112.021 129.059 111.905 129.059 111.761C129.059 111.617 129.175 111.499 129.321 111.499H134.012C134.158 111.499 134.274 111.617 134.274 111.761C134.274 111.905 134.158 112.021 134.012 112.021Z" fill="black"/>
<path d="M127.938 112.023H124.462C124.318 112.023 124.2 111.905 124.2 111.761C124.2 111.617 124.318 111.499 124.462 111.499H127.938C128.083 111.499 128.2 111.617 128.2 111.761C128.2 111.905 128.083 112.023 127.938 112.023Z" fill="black"/>
<path d="M134.012 113.523H131.679C131.534 113.523 131.417 113.406 131.417 113.261C131.417 113.116 131.534 113 131.679 113H134.012C134.158 113 134.274 113.116 134.274 113.261C134.274 113.406 134.158 113.523 134.012 113.523Z" fill="black"/>
<path d="M130.272 113.523H124.462C124.318 113.523 124.2 113.406 124.2 113.261C124.2 113.116 124.318 113 124.462 113H130.272C130.416 113 130.534 113.116 130.534 113.261C130.534 113.406 130.416 113.523 130.272 113.523Z" fill="black"/>
<path d="M134.012 115.024H124.462C124.318 115.024 124.2 114.906 124.2 114.762C124.2 114.618 124.318 114.5 124.462 114.5H134.012C134.158 114.5 134.274 114.618 134.274 114.762C134.274 114.906 134.158 115.024 134.012 115.024Z" fill="black"/>
<path d="M104.053 112.023H99.3606C99.2165 112.023 99.0986 111.905 99.0986 111.761C99.0986 111.617 99.2165 111.499 99.3606 111.499H104.053C104.197 111.499 104.315 111.617 104.315 111.761C104.315 111.905 104.197 112.023 104.053 112.023Z" fill="black"/>
<path d="M97.9797 112.023H94.5034C94.3575 112.023 94.2415 111.905 94.2415 111.761C94.2415 111.617 94.3575 111.499 94.5034 111.499H97.9797C98.1238 111.499 98.2417 111.617 98.2417 111.761C98.2417 111.905 98.1238 112.023 97.9797 112.023Z" fill="black"/>
<path d="M104.053 113.523H101.196C101.052 113.523 100.934 113.406 100.934 113.261C100.934 113.116 101.052 113 101.196 113H104.053C104.197 113 104.315 113.116 104.315 113.261C104.315 113.406 104.197 113.523 104.053 113.523Z" fill="black"/>
<path d="M99.7871 113.523H94.5034C94.3575 113.523 94.2415 113.406 94.2415 113.261C94.2415 113.116 94.3575 113 94.5034 113H99.7871C99.9312 113 100.049 113.116 100.049 113.261C100.049 113.406 99.9312 113.523 99.7871 113.523Z" fill="black"/>
<path d="M93.9943 150.004H74.8184L88.067 128.157C88.4823 127.474 89.2382 127.06 90.069 127.06H105.632C106.62 127.06 107.267 128.119 106.777 128.929L93.9943 150.004Z" fill="black"/>
<path d="M93.6596 138.765C93.0796 139.723 91.7736 140.5 90.7446 140.5C89.7137 140.5 89.3507 139.723 89.9307 138.765C90.5107 137.809 91.8167 137.033 92.8476 137.033C93.8767 137.033 94.2415 137.809 93.6596 138.765Z" fill="#CADDFF"/>
<path d="M93.7083 152.16H52.7575C52.3534 152.16 52.0278 151.834 52.0278 151.43V149.819H94.4361V151.43C94.4361 151.834 94.1106 152.16 93.7083 152.16Z" fill="black"/>
<path d="M93.1769 150.289H73.7165C73.5706 150.289 73.4546 150.173 73.4546 150.027C73.4546 149.883 73.5706 149.765 73.7165 149.765H93.1769C93.321 149.765 93.4388 149.883 93.4388 150.027C93.4388 150.173 93.321 150.289 93.1769 150.289Z" fill="white"/>
<path d="M36.3899 111.445C33.3158 112.137 30.5692 110.038 29.5345 108.863C28.7599 107.985 28.7038 107.368 28.7113 107.08C28.7318 106.103 29.5401 105.403 29.8582 105.109C32.805 102.398 31.8227 99.7209 34.4104 98.2877C35.7893 97.5243 37.2 97.7676 39.0542 98.0613C40.2891 98.2559 44.4783 98.9164 45.0658 101.178C45.3857 102.406 44.134 103.899 41.6175 106.831C39.1833 109.669 37.9353 111.095 36.3899 111.445Z" fill="black"/>
<path d="M41.9728 103.644C41.9728 103.644 36.9735 103.861 35.617 104.528C34.2587 105.195 35.8079 108.711 35.8079 108.711C35.8079 108.711 33.6917 107.688 33.2857 109.091C32.8797 110.494 35.5946 110.73 35.5946 110.73L29.1658 119.146L38.8857 119.067L40.6762 114.075C40.6762 114.075 42.3208 114.887 43.2189 114.199C44.1189 113.512 44.4725 110.242 44.4725 110.242C44.9852 109.925 45.1105 109.235 44.7401 108.76L44.0815 107.914C43.6792 107.398 43.4135 106.791 43.3087 106.144C43.1684 105.285 42.7736 104.486 42.1712 103.854L41.9728 103.644Z" fill="white"/>
<path d="M34.3692 108.612C34.2046 108.612 34.0493 108.636 33.9183 108.696C33.7293 108.78 33.604 108.934 33.5366 109.164C33.4786 109.366 33.5011 109.531 33.6077 109.686C33.9726 110.217 35.1831 110.432 35.6172 110.47C35.7126 110.477 35.7949 110.537 35.8342 110.625C35.8735 110.711 35.8604 110.812 35.8024 110.889L29.6992 118.88L38.7006 118.807L40.4294 113.987C40.4537 113.916 40.508 113.862 40.5772 113.832C40.6465 113.806 40.725 113.808 40.7924 113.841C41.2096 114.045 42.4314 114.474 43.0601 113.991C43.7243 113.484 44.1172 111.093 44.2126 110.214C44.2219 110.133 44.2669 110.062 44.3361 110.019C44.5194 109.905 44.6411 109.727 44.6803 109.514C44.7178 109.302 44.6654 109.091 44.5344 108.921L43.8739 108.075C43.4474 107.527 43.1611 106.874 43.0507 106.187C42.9179 105.375 42.5493 104.632 41.9824 104.035L41.8645 103.912C41.103 103.949 36.9119 104.183 35.7313 104.763C34.8089 105.216 35.6714 107.753 36.0475 108.606C36.0905 108.706 36.0681 108.822 35.9895 108.898C35.9109 108.975 35.7931 108.996 35.6939 108.947C35.4581 108.833 34.8725 108.612 34.3692 108.612ZM29.1659 119.408C29.0668 119.408 28.977 119.352 28.9321 119.264C28.8872 119.174 28.8965 119.065 28.9583 118.987L35.1139 110.928C34.5339 110.825 33.5815 110.573 33.1755 109.982C32.9828 109.699 32.9341 109.366 33.0333 109.018C33.1456 108.636 33.3701 108.367 33.705 108.217C34.2158 107.991 34.8744 108.111 35.3421 108.255C34.9361 107.16 34.2757 104.894 35.5012 104.292C36.8913 103.609 41.7541 103.392 41.9618 103.383C42.0347 103.379 42.1096 103.409 42.162 103.463L42.3622 103.674C43.0021 104.348 43.4193 105.186 43.5671 106.103C43.6644 106.704 43.9132 107.274 44.2874 107.753L44.9479 108.599C45.1687 108.883 45.2604 109.252 45.1967 109.607C45.1387 109.92 44.9685 110.197 44.7196 110.389C44.6411 111.056 44.2687 113.727 43.3781 114.408C42.5886 115.013 41.3668 114.639 40.8279 114.427L39.1328 119.157C39.0954 119.26 38.9981 119.329 38.8877 119.329L29.1678 119.408H29.1659Z" fill="black"/>
<path d="M40.6764 114.337C40.6371 114.337 40.596 114.33 40.5585 114.311C39.2208 113.643 38.5996 112.723 38.5734 112.683C38.4929 112.562 38.5266 112.401 38.6464 112.32C38.768 112.242 38.9289 112.274 39.0093 112.393C39.015 112.403 39.5875 113.241 40.7924 113.841C40.9215 113.905 40.9739 114.064 40.9103 114.193C40.8635 114.285 40.7718 114.337 40.6764 114.337Z" fill="black"/>
<path d="M74.4388 113.564L68.0025 114.506C68.0025 114.506 65.3906 124.525 58.8421 124.854C55.6913 125.013 53.3076 124.033 51.6817 122.972C49.2195 121.367 46.4111 120.375 43.4811 120.134L31.7124 119.164C25.2088 118.631 19.0083 122.014 15.951 127.775C12.6824 133.936 10.8862 142.153 8.30047 149.464C7.82337 150.811 8.81874 152.225 10.2482 152.225H39.2227L46.0949 135.032C49.5188 136.488 54.7951 137.773 62.2061 137.092C77.874 135.65 74.4388 113.564 74.4388 113.564Z" fill="#1958DF"/>
<path d="M39.2227 152.487C39.1909 152.487 39.1591 152.482 39.1273 152.47C38.9926 152.416 38.9271 152.263 38.9813 152.128L45.8517 134.935C45.8779 134.87 45.9303 134.817 45.9958 134.791C46.0594 134.765 46.1342 134.765 46.1978 134.791C49.2944 136.108 54.58 137.532 62.1819 136.831C65.8116 136.497 68.693 134.995 70.7474 132.366C75.554 126.207 74.4426 115.641 74.2143 113.862L68.2103 114.741C67.823 116.113 65.1268 124.802 58.8552 125.116C56.1666 125.249 53.7043 124.603 51.5377 123.191C49.0904 121.595 46.297 120.628 43.4605 120.396L31.6919 119.426C25.2799 118.897 19.1935 122.224 16.1831 127.898C14.0258 131.962 12.4785 137.042 10.9817 141.957C10.6692 142.984 10.3549 144.013 10.0368 145.037C9.99379 145.175 9.84598 145.254 9.70753 145.209C9.56907 145.166 9.49236 145.02 9.5354 144.881C9.85534 143.86 10.1678 142.831 10.4803 141.806C11.9845 136.866 13.5394 131.76 15.7191 127.653C18.8287 121.793 25.1153 118.358 31.7349 118.904L43.5036 119.872C46.4261 120.113 49.3056 121.108 51.8258 122.753C53.8952 124.102 56.2526 124.721 58.829 124.592C65.1137 124.278 67.7219 114.539 67.7481 114.44C67.7743 114.339 67.8604 114.262 67.9633 114.247L74.3996 113.306C74.5418 113.284 74.6746 113.381 74.6971 113.525C74.7158 113.647 76.5325 125.803 71.159 132.688C69.0148 135.435 66.01 137.005 62.2286 137.354C54.7165 138.043 49.4216 136.686 46.239 135.377L39.4678 152.324C39.4266 152.427 39.3275 152.487 39.2227 152.487Z" fill="black"/>
<path d="M47.3766 138.458C42.512 136.847 39.8832 129.29 39.8832 129.29L25.5569 132.174C25.5569 132.174 35.4863 148.008 42.3286 149.458C46.5945 150.362 55.1637 146.341 61.0163 143.183C60.266 141.525 59.1864 139.147 58.3875 137.397C54.1085 138.436 49.5863 139.188 47.3766 138.458Z" fill="#1958DF"/>
<path d="M43.6868 149.847C43.1779 149.847 42.7064 149.804 42.2742 149.712C35.402 148.257 25.742 132.963 25.3341 132.312C25.2574 132.19 25.2948 132.029 25.4164 131.951C25.5399 131.876 25.7008 131.912 25.7775 132.035C25.8767 132.192 35.7275 147.791 42.3827 149.202C45.5653 149.877 52.0558 147.697 60.6756 143.068C59.9515 141.465 58.9823 139.332 58.2377 137.702C52.8641 138.993 49.1838 139.33 47.2941 138.705C42.364 137.074 39.7446 129.689 39.6361 129.376C39.5874 129.24 39.6604 129.09 39.797 129.043C39.9336 128.997 40.0832 129.068 40.13 129.204C40.1562 129.279 42.7738 136.658 47.4588 138.209C49.2531 138.801 53.0101 138.434 58.3237 137.143C58.4472 137.113 58.5726 137.173 58.625 137.287C59.4145 139.016 60.4904 141.388 61.2537 143.074C61.3117 143.199 61.2612 143.347 61.1396 143.413C55.521 146.446 48.2072 149.847 43.6868 149.847Z" fill="black"/>
<path d="M76.5774 139.068L69.9465 135.388C68.9231 134.819 67.7088 134.698 66.5956 135.059C64.7451 135.654 61.6355 136.608 58.3875 137.397C59.1864 139.147 60.2659 141.525 61.0162 143.183C64.5543 141.274 67.0989 139.68 67.0989 139.68L71.3797 141.933C71.3797 141.933 71.1403 145.688 71.9916 145.791C72.841 145.894 73.1609 142.429 73.1609 142.429C73.1609 142.429 73.8906 146.73 75.1536 145.791L75.6382 140.595C75.6382 140.595 76.4764 142.896 76.9572 142.992C77.4381 143.087 77.4381 143.087 77.4381 143.087L76.5774 139.068Z" fill="white"/>
<path d="M73.1609 142.168C73.2881 142.168 73.3966 142.26 73.4191 142.385C73.6268 143.607 74.1656 145.428 74.712 145.645C74.7569 145.664 74.8186 145.677 74.9047 145.637L75.378 140.572C75.3893 140.451 75.4828 140.352 75.6044 140.337C75.7261 140.32 75.8421 140.391 75.8851 140.507C76.2911 141.62 76.8112 142.644 77.0208 142.739L77.0994 142.754L76.3472 139.24L69.8193 135.616C68.8613 135.085 67.7144 134.971 66.6741 135.307C64.747 135.929 61.8357 136.817 58.756 137.575C59.4913 139.182 60.4287 141.25 61.1378 142.818C64.5 140.995 66.9342 139.472 66.9585 139.457C67.039 139.409 67.1381 139.405 67.2204 139.448L71.5013 141.701C71.593 141.749 71.6473 141.847 71.6416 141.95C71.5163 143.925 71.7427 145.497 72.0233 145.531C72.0289 145.531 72.0476 145.534 72.0869 145.501C72.5023 145.168 72.8054 143.426 72.9008 142.406C72.9121 142.275 73.0187 142.172 73.1497 142.168C73.1534 142.168 73.1572 142.168 73.1609 142.168ZM74.798 146.187C74.6895 146.187 74.5922 146.161 74.5155 146.131C73.9093 145.888 73.4846 144.82 73.2208 143.884C73.0655 144.696 72.811 145.591 72.4162 145.909C72.2404 146.051 72.072 146.064 71.9597 146.051C71.0149 145.937 71.0373 143.364 71.1084 142.086L67.1101 139.981C66.5469 140.327 64.2006 141.761 61.1397 143.413C61.076 143.448 61.0012 143.454 60.932 143.431C60.8628 143.407 60.8066 143.357 60.7767 143.289C60.0133 141.605 58.9375 139.231 58.1479 137.506C58.1161 137.435 58.1161 137.352 58.1517 137.281C58.1853 137.212 58.249 137.162 58.3238 137.143C61.5008 136.372 64.5318 135.448 66.5151 134.808C67.6919 134.428 68.9885 134.557 70.0737 135.158L76.7046 138.84C76.7719 138.875 76.8187 138.939 76.8337 139.014L77.6944 143.033C77.7131 143.119 77.6869 143.207 77.6251 143.27C77.5634 143.334 77.4736 143.36 77.3875 143.343L76.9067 143.248C76.5399 143.177 76.1283 142.447 75.799 141.703L75.4155 145.815C75.408 145.888 75.3706 145.955 75.3107 146C75.1236 146.141 74.9477 146.187 74.798 146.187Z" fill="black"/>
<path d="M42.7796 120.674L43.0715 118.902C43.1688 118.311 42.7852 117.748 42.1977 117.625C39.2696 117.007 31.155 115.25 30.0979 114.506C28.805 113.596 19.4462 122.407 20.8495 122.177C31.2972 120.455 42.7796 120.674 42.7796 120.674Z" fill="#1958DF"/>
<path d="M29.849 114.702C29.7686 114.702 29.6301 114.725 29.3981 114.816C27.1211 115.716 21.9814 120.573 21.0946 121.87C30.5712 120.347 40.9067 120.39 42.5588 120.411L42.8133 118.859C42.8881 118.405 42.5943 117.974 42.1434 117.881C38.0347 117.015 30.9885 115.454 29.9463 114.721C29.9445 114.719 29.9201 114.702 29.849 114.702ZM20.8008 122.442C20.5819 122.442 20.4977 122.297 20.4753 122.248C20.3967 122.076 20.2788 121.818 21.987 120.07C22.9693 119.063 24.2753 117.868 25.4783 116.871C29.3513 113.66 30.0268 114.135 30.2494 114.292C31.0671 114.869 36.9851 116.259 42.252 117.368C42.9779 117.52 43.4513 118.214 43.3297 118.946L43.0378 120.717C43.0172 120.846 42.9087 120.933 42.774 120.936C42.6598 120.933 31.1943 120.738 20.8925 122.435C20.8588 122.441 20.8289 122.442 20.8008 122.442Z" fill="black"/>
<path d="M71.2112 102.984C71.3908 102.628 72.2852 101.564 72.6931 101.259L76.9926 97.2624C76.9926 97.2624 77.5521 99.1877 76.8748 100.323C78.1957 100.368 79.2397 100.593 79.2397 100.593C79.2397 100.593 81.2043 98.8621 81.6945 98.5646C82.1828 98.2653 82.8208 97.7938 83.4794 97.8012C84.1399 97.8106 84.7929 98.3139 84.7929 98.3139L81.0153 103.1L74.145 104.99L74.5304 115.398L68.0024 114.506L71.2112 102.984Z" fill="white"/>
<path d="M68.3356 114.287L74.2555 115.097L73.8831 104.999C73.8794 104.877 73.958 104.769 74.0759 104.737L80.862 102.87L84.4113 98.3756C84.1868 98.2447 83.8257 98.0688 83.4758 98.0632C83.4721 98.0632 83.4665 98.0632 83.4627 98.0632C82.9781 98.0632 82.4617 98.3906 82.0464 98.6525C81.9715 98.6993 81.9004 98.7461 81.8312 98.7873C81.4439 99.023 79.9546 100.312 79.412 100.789C79.3502 100.843 79.266 100.866 79.1837 100.849C79.1744 100.845 78.1453 100.628 76.8655 100.585C76.772 100.583 76.6897 100.531 76.6448 100.449C76.5999 100.368 76.6017 100.269 76.6504 100.189C77.077 99.472 76.9535 98.3663 76.8393 97.7638L72.8709 101.45C72.8634 101.457 72.856 101.463 72.8485 101.468C72.4818 101.743 71.6435 102.739 71.4564 103.081L68.3356 114.287ZM74.5305 115.66C74.5174 115.66 74.5062 115.66 74.495 115.658L67.967 114.766C67.8922 114.756 67.8248 114.713 67.7837 114.65C67.7406 114.588 67.7294 114.509 67.75 114.436L70.9588 102.913C70.9625 102.896 70.97 102.881 70.9775 102.866C71.1702 102.482 72.0739 101.403 72.5248 101.059L76.815 97.0715C76.8824 97.0098 76.9759 96.9873 77.0639 97.0098C77.1499 97.0341 77.2192 97.1033 77.2454 97.1894C77.2678 97.2642 77.7225 98.8714 77.2772 100.08C78.1696 100.134 78.8806 100.256 79.1631 100.31C79.5729 99.9529 81.1127 98.6114 81.558 98.3401C81.6235 98.3008 81.6946 98.2559 81.7657 98.2091C82.2391 97.9097 82.8266 97.5393 83.4627 97.5393C83.4702 97.5393 83.4758 97.5412 83.4833 97.5412C84.2223 97.5505 84.924 98.0838 84.9539 98.1062C85.01 98.1492 85.0456 98.2129 85.0531 98.2821C85.0624 98.3513 85.0437 98.4224 84.9988 98.4767L81.2212 103.261C81.1857 103.306 81.1389 103.338 81.0847 103.353L74.4145 105.186L74.7925 115.389C74.7943 115.465 74.7625 115.54 74.7064 115.593C74.6577 115.636 74.5941 115.66 74.5305 115.66Z" fill="black"/>
<path d="M55.7998 61.4699C55.6538 61.4699 55.5378 61.3521 55.5378 61.208V49.4917C55.5378 49.3458 55.6538 49.2298 55.7998 49.2298C55.9439 49.2298 56.0617 49.3458 56.0617 49.4917V61.208C56.0617 61.3521 55.9439 61.4699 55.7998 61.4699Z" fill="black"/>
<path d="M56.3759 49.4899C56.3759 49.8079 56.1177 50.0661 55.7997 50.0661C55.4816 50.0661 55.2234 49.8079 55.2234 49.4899C55.2234 49.1718 55.4816 48.9155 55.7997 48.9155C56.1177 48.9155 56.3759 49.1718 56.3759 49.4899Z" fill="black"/>
<path d="M56.3759 61.208C56.3759 61.5261 56.1177 61.7843 55.7997 61.7843C55.4816 61.7843 55.2234 61.5261 55.2234 61.208C55.2234 60.89 55.4816 60.6318 55.7997 60.6318C56.1177 60.6318 56.3759 60.89 56.3759 61.208Z" fill="black"/>
<path d="M55.7998 98.3401C55.6538 98.3401 55.5378 98.2222 55.5378 98.0782V96.5065C55.5378 96.3624 55.6538 96.2446 55.7998 96.2446C55.9439 96.2446 56.0617 96.3624 56.0617 96.5065V98.0782C56.0617 98.2222 55.9439 98.3401 55.7998 98.3401ZM55.7998 101.482C55.6538 101.482 55.5378 101.364 55.5378 101.22V99.6479C55.5378 99.5039 55.6538 99.386 55.7998 99.386C55.9439 99.386 56.0617 99.5039 56.0617 99.6479V101.22C56.0617 101.364 55.9439 101.482 55.7998 101.482ZM55.7998 104.623C55.6538 104.623 55.5378 104.507 55.5378 104.361V102.791C55.5378 102.647 55.6538 102.529 55.7998 102.529C55.9439 102.529 56.0617 102.647 56.0617 102.791V104.361C56.0617 104.507 55.9439 104.623 55.7998 104.623ZM55.7998 107.766C55.6538 107.766 55.5378 107.648 55.5378 107.502V105.933C55.5378 105.789 55.6538 105.671 55.7998 105.671C55.9439 105.671 56.0617 105.789 56.0617 105.933V107.502C56.0617 107.648 55.9439 107.766 55.7998 107.766Z" fill="black"/>
<path d="M56.3759 96.5066C56.3759 96.8246 56.1177 97.0828 55.7997 97.0828C55.4816 97.0828 55.2234 96.8246 55.2234 96.5066C55.2234 96.1885 55.4816 95.9303 55.7997 95.9303C56.1177 95.9303 56.3759 96.1885 56.3759 96.5066Z" fill="black"/>
<path d="M88.4731 79.1248H80.6242C80.4783 79.1248 80.3623 79.007 80.3623 78.8629C80.3623 78.717 80.4783 78.601 80.6242 78.601H88.4731C88.6172 78.601 88.7351 78.717 88.7351 78.8629C88.7351 79.007 88.6172 79.1248 88.4731 79.1248Z" fill="black"/>
<path d="M80.6244 78.2866C80.9424 78.2866 81.2006 78.5448 81.2006 78.8629C81.2006 79.181 80.9424 79.4373 80.6244 79.4373C80.3063 79.4373 80.0481 79.181 80.0481 78.8629C80.0481 78.5448 80.3063 78.2866 80.6244 78.2866Z" fill="black"/>
<path d="M88.4732 78.2866C88.7913 78.2866 89.0495 78.5448 89.0495 78.8629C89.0495 79.181 88.7913 79.4373 88.4732 79.4373C88.1552 79.4373 87.897 79.181 87.897 78.8629C87.897 78.5448 88.1552 78.2866 88.4732 78.2866Z" fill="black"/>
<path d="M113.698 104.612C113.554 104.612 113.436 104.494 113.436 104.35V96.5065C113.436 96.3606 113.554 96.2446 113.698 96.2446C113.842 96.2446 113.96 96.3606 113.96 96.5065V104.35C113.96 104.494 113.842 104.612 113.698 104.612Z" fill="black"/>
<path d="M113.124 104.348C113.124 104.03 113.38 103.773 113.698 103.773C114.018 103.773 114.274 104.03 114.274 104.348C114.274 104.666 114.018 104.924 113.698 104.924C113.38 104.924 113.124 104.666 113.124 104.348Z" fill="black"/>
<path d="M113.124 96.5066C113.124 96.1885 113.38 95.9303 113.698 95.9303C114.018 95.9303 114.274 96.1885 114.274 96.5066C114.274 96.8246 114.018 97.0828 113.698 97.0828C113.38 97.0828 113.124 96.8246 113.124 96.5066Z" fill="black"/>
<path d="M126.369 144.004C125.879 144.066 125.433 143.718 125.371 143.229C125.312 142.743 125.658 142.296 126.146 142.236C126.634 142.176 127.082 142.522 127.141 143.01C127.203 143.499 126.855 143.942 126.369 144.004Z" fill="#CADDFF"/>
<path d="M145.109 27.9172C145.079 27.9172 145.049 27.9172 145.019 27.9209C144.828 27.9452 144.654 28.0425 144.538 28.1941C144.418 28.3475 144.366 28.5365 144.388 28.7292C144.414 28.92 144.51 29.0921 144.663 29.21C144.817 29.3279 145.006 29.3803 145.197 29.356C145.593 29.3092 145.876 28.9462 145.825 28.5496C145.803 28.3587 145.705 28.1866 145.554 28.0687C145.425 27.9695 145.27 27.9172 145.109 27.9172ZM145.107 29.8873C144.83 29.8873 144.562 29.7956 144.341 29.6235C144.08 29.4177 143.911 29.124 143.87 28.7928C143.829 28.4635 143.919 28.1361 144.123 27.8741C144.328 27.6103 144.622 27.4438 144.953 27.4008C145.284 27.3596 145.612 27.4494 145.874 27.6552C146.138 27.8592 146.306 28.1548 146.345 28.4841C146.431 29.167 145.945 29.7919 145.262 29.8761C145.21 29.8836 145.157 29.8873 145.107 29.8873Z" fill="black"/>
<path d="M140.558 24.2668C140.412 24.265 140.296 24.1471 140.298 24.003L140.304 23.1442C140.304 23.0002 140.42 22.8842 140.566 22.8842H140.568C140.712 22.886 140.828 23.0039 140.828 23.148L140.822 24.0049C140.82 24.1508 140.702 24.2668 140.558 24.2668Z" fill="black"/>
<path d="M140.536 27.2717H140.534C140.39 27.2698 140.274 27.1519 140.274 27.006L140.28 26.149C140.283 26.005 140.399 25.889 140.543 25.889C140.543 25.889 140.543 25.889 140.545 25.889C140.689 25.889 140.805 26.0069 140.804 26.1528L140.798 27.0097C140.798 27.1538 140.68 27.2717 140.536 27.2717Z" fill="black"/>
<path d="M139.477 25.3371H138.618C138.472 25.3371 138.356 25.2192 138.356 25.0751C138.356 24.9292 138.474 24.8132 138.618 24.8132H139.477C139.623 24.815 139.739 24.931 139.739 25.077C139.739 25.2211 139.623 25.3371 139.477 25.3371Z" fill="black"/>
<path d="M142.484 25.3426L141.625 25.3408C141.481 25.3408 141.363 25.2229 141.363 25.0788C141.363 24.9348 141.481 24.8169 141.625 24.8169C141.625 24.8169 141.625 24.8169 141.627 24.8169L142.484 24.8188C142.629 24.8188 142.745 24.9366 142.745 25.0807C142.745 25.2248 142.629 25.3426 142.484 25.3426Z" fill="black"/>
<path d="M17.9043 26.7328C17.8369 26.7328 17.7696 26.7066 17.7191 26.6542C17.6162 26.5532 17.618 26.3867 17.7209 26.2857L18.4095 25.6084C18.5124 25.5054 18.6789 25.5073 18.7799 25.6102C18.881 25.7131 18.881 25.8778 18.7762 25.9807L18.0895 26.658C18.0371 26.7085 17.9717 26.7328 17.9043 26.7328Z" fill="black"/>
<path d="M15.4963 29.1052C15.429 29.1052 15.3616 29.079 15.3092 29.0266C15.2082 28.9237 15.2101 28.7591 15.313 28.6562L16.0015 27.9789C16.1044 27.8778 16.2691 27.8778 16.372 27.9826C16.473 28.0855 16.4711 28.2502 16.3682 28.3512L15.6797 29.0304C15.6292 29.0809 15.5637 29.1052 15.4963 29.1052Z" fill="black"/>
<path d="M16.1922 26.7253C16.1249 26.7253 16.0575 26.6991 16.007 26.6486L15.3241 25.9638C15.223 25.8609 15.223 25.6963 15.3259 25.5934C15.427 25.4923 15.5935 25.4923 15.6964 25.5934L16.3775 26.2781C16.4804 26.381 16.4804 26.5476 16.3775 26.6486C16.3269 26.6991 16.2596 26.7253 16.1922 26.7253Z" fill="black"/>
<path d="M18.5797 29.1183C18.5123 29.1183 18.445 29.094 18.3944 29.0416L17.7115 28.3587C17.6105 28.2558 17.6105 28.0911 17.7115 27.9864C17.8144 27.8853 17.9809 27.8853 18.0838 27.9882L18.7649 28.6712C18.8678 28.7741 18.8678 28.9406 18.7649 29.0416C18.7144 29.094 18.647 29.1183 18.5797 29.1183Z" fill="black"/>
<path d="M94.0376 44.9471C93.9683 44.9471 93.901 44.9209 93.8505 44.8704C93.7494 44.7674 93.7494 44.6009 93.8542 44.498L94.5409 43.8207C94.6438 43.7197 94.8103 43.7216 94.9113 43.8245C95.0124 43.9274 95.0105 44.0939 94.9076 44.1949L94.2209 44.8722C94.1704 44.9227 94.103 44.9471 94.0376 44.9471Z" fill="black"/>
<path d="M91.6276 47.3196C91.5602 47.3196 91.4929 47.2934 91.4405 47.241C91.3394 47.1381 91.3413 46.9734 91.4442 46.8705L92.1327 46.1932C92.2356 46.0922 92.4022 46.094 92.5032 46.197C92.6042 46.298 92.6042 46.4645 92.4995 46.5655L91.8109 47.2447C91.7604 47.2934 91.6949 47.3196 91.6276 47.3196Z" fill="black"/>
<path d="M92.3257 44.9396C92.2583 44.9396 92.191 44.9134 92.1386 44.8629L91.4576 44.1781C91.3546 44.0752 91.3546 43.9106 91.4576 43.8077C91.5605 43.7066 91.7251 43.7066 91.828 43.8095L92.5109 44.4925C92.612 44.5954 92.612 44.76 92.5091 44.8629C92.4585 44.9153 92.3912 44.9396 92.3257 44.9396Z" fill="black"/>
<path d="M94.711 47.3326C94.6437 47.3326 94.5763 47.3064 94.5258 47.2559L93.8448 46.5711C93.7419 46.4701 93.7419 46.3036 93.8448 46.2007C93.9458 46.0996 94.1123 46.0996 94.2152 46.2025L94.8963 46.8855C94.9992 46.9884 94.9992 47.1549 94.8963 47.2559C94.8457 47.3083 94.7784 47.3326 94.711 47.3326Z" fill="black"/>
<path d="M123.895 146.792C123.414 147.407 122.529 147.518 121.914 147.039C121.298 146.56 121.188 145.673 121.667 145.059C122.146 144.444 123.033 144.333 123.646 144.812C124.262 145.291 124.374 146.178 123.895 146.792Z" fill="#99B9FF"/>
<path d="M25.7343 43.4446C25.695 43.4446 25.6557 43.4465 25.6146 43.4521C25.362 43.4839 25.1356 43.6111 24.9784 43.8132C24.8213 44.0153 24.752 44.2641 24.7838 44.5186C24.8156 44.7712 24.9447 44.9976 25.1449 45.1529C25.347 45.3119 25.5977 45.3793 25.8503 45.3474C26.1048 45.3156 26.3312 45.1884 26.4865 44.9863C26.6436 44.7861 26.7129 44.5354 26.681 44.2828C26.6492 44.0284 26.522 43.802 26.3199 43.6467C26.1515 43.5139 25.9457 43.4446 25.7343 43.4446ZM25.7306 45.8788C25.4031 45.8788 25.0869 45.7703 24.8231 45.5682C24.5125 45.325 24.3123 44.9751 24.2637 44.5822C24.2151 44.1912 24.3217 43.8039 24.5649 43.4914C24.8082 43.1808 25.158 42.9806 25.5491 42.932C25.942 42.8833 26.3293 42.99 26.6418 43.2332C26.9542 43.4764 27.1525 43.8244 27.2012 44.2174C27.2498 44.6084 27.1432 44.9957 26.9 45.3082C26.6586 45.6206 26.3087 45.8189 25.9158 45.8676C25.8541 45.8751 25.7904 45.8788 25.7306 45.8788Z" fill="black"/>
</svg>
