<svg width="305" height="247" viewBox="0 0 305 247" fill="none" xmlns="http://www.w3.org/2000/svg">
<g clip-path="url(#clip0_13_3)">
<path d="M173.753 218.515C171.644 215.549 168.789 213.378 165.2 212.566C162.07 211.858 158.852 211.978 155.67 212.003L115.442 212.315C111.997 212.341 108.693 215.34 108.853 218.933C109.012 222.495 111.749 225.579 115.442 225.55C127.226 225.459 139.01 225.368 150.794 225.277C153.572 225.255 156.352 225.205 159.13 225.214C159.754 225.216 160.376 225.249 160.999 225.256C161.15 225.258 161.259 225.256 161.336 225.253C161.355 225.259 161.371 225.264 161.397 225.271C161.722 225.361 162.055 225.423 162.382 225.508C162.268 225.511 162.595 225.716 162.759 225.786C162.781 225.83 162.829 225.909 162.909 226.032C163.021 226.243 163.353 226.883 163.367 226.863C163.865 228.128 164.276 229.426 164.597 230.748C165.362 233.663 165.531 234.272 165.641 237.007C165.78 240.461 168.571 243.789 172.229 243.625C175.68 243.469 178.967 240.712 178.818 237.007C178.566 230.764 177.475 223.751 173.753 218.515Z" fill="#E6E6E6"/>
<path d="M117.806 233.449C117.051 228.85 116.31 224.247 115.539 219.651C114.758 214.988 113.162 210.718 109.549 207.657C108.583 206.84 107.583 206.076 106.577 205.315C106.224 205.047 105.871 204.78 105.522 204.506C105.501 204.49 105.488 204.48 105.47 204.465C105.431 204.432 105.385 204.393 105.323 204.34C103.817 203.06 102.362 201.723 100.976 200.302C99.7458 199.04 98.5688 197.724 97.4455 196.354C97.1649 196.012 96.8878 195.667 96.6143 195.318C96.5673 195.259 96.3139 194.93 96.1471 194.715C95.9918 194.5 95.7081 194.112 95.6605 194.045C95.341 193.591 95.0272 193.133 94.7191 192.671C92.6206 189.513 90.8035 186.175 89.2889 182.696C89.1387 182.351 88.992 182.004 88.8489 181.655C88.8105 181.549 88.7608 181.412 88.6949 181.23C88.3897 180.386 88.085 179.544 87.806 178.691C87.213 176.879 86.7033 175.041 86.2767 173.175C86.0657 172.254 85.8759 171.328 85.707 170.398C85.62 169.919 85.5385 169.44 85.4627 168.959C85.4503 168.88 85.3763 168.361 85.3326 168.068C85.3005 167.774 85.2406 167.253 85.2325 167.172C85.1843 166.688 85.1414 166.203 85.104 165.718C85.0198 164.626 84.9628 163.532 84.9332 162.437C84.8825 160.49 84.9172 158.543 85.0373 156.596C85.1057 155.502 85.203 154.411 85.3228 153.322C85.3301 153.255 85.3357 153.202 85.3409 153.154C85.3482 153.105 85.3566 153.05 85.3667 152.981C85.4553 152.379 85.5486 151.778 85.653 151.179C86.0482 148.905 86.5621 146.652 87.1927 144.432C87.4913 143.382 87.8157 142.34 88.1657 141.307C88.3217 140.848 88.4827 140.391 88.6487 139.936C88.6378 139.966 89.1355 138.689 89.1421 138.646C91.1166 133.96 94.3461 129.688 94.3506 124.365C94.3536 120.761 91.3181 117.309 87.762 117.476C85.989 117.543 84.3112 118.298 83.0821 119.584C81.853 120.869 81.1687 122.583 81.1734 124.365C81.1734 124.446 81.173 124.515 81.1728 124.582C81.1396 124.694 81.1119 124.788 81.0869 124.871C80.7019 125.711 80.2302 126.51 79.8075 127.33C78.6502 129.573 77.6623 131.89 76.724 134.24C75.1878 138.069 74.0119 142.033 73.2117 146.081C71.4725 154.952 71.3375 164.064 72.8132 172.983C75.3678 188.623 83.7921 203.594 95.5039 213.657C96.5203 214.531 97.5614 215.375 98.6124 216.202C99.0473 216.544 99.4858 216.88 99.9265 217.213C100.135 217.371 100.998 218.054 100.618 217.723C101.435 218.423 101.778 218.775 101.988 219.291C102.018 219.41 102.06 219.571 102.116 219.791C102.264 220.373 102.404 220.953 102.521 221.542C103.54 226.692 104.248 231.929 105.1 237.112C105.685 240.674 110.051 242.992 113.205 241.924C116.876 240.682 118.434 237.265 117.806 233.449Z" fill="#E6E6E6"/>
<path d="M174.419 246.807C171.652 246.814 168.995 245.718 167.032 243.76C165.068 241.803 163.957 239.142 163.944 236.363V228.814C156.075 229.699 129.13 229.494 121.406 228.247V236.061C121.385 238.838 120.273 241.494 118.31 243.451C116.348 245.407 113.695 246.505 110.93 246.505C108.165 246.505 105.513 245.407 103.55 243.451C101.588 241.494 100.475 238.838 100.454 236.061V220.719C89.9932 214.882 81.2723 206.346 75.1918 195.994C69.1113 185.641 65.8913 173.846 65.8643 161.826C65.8643 141.215 75.1636 121.989 91.378 109.076C101.92 100.652 114.729 95.5853 128.16 94.5276C129.983 94.384 131.817 94.3113 133.611 94.3113C139.933 94.3113 168.456 95.2923 175.613 97.3603L191.931 81.0963C192.171 80.854 192.477 80.6889 192.811 80.6221C193.144 80.5553 193.49 80.5898 193.804 80.7213C194.121 80.8477 194.392 81.0673 194.582 81.3513C194.772 81.6352 194.872 81.9702 194.869 82.3123V84.8982L198.046 81.7373C198.286 81.4947 198.592 81.3294 198.925 81.2625C199.259 81.1956 199.605 81.2301 199.918 81.3617C200.235 81.4881 200.506 81.7077 200.696 81.9918C200.887 82.2759 200.987 82.611 200.984 82.9533V111.85C209.172 119.265 215.413 128.594 219.153 139.011C222.894 149.427 224.018 160.61 222.427 171.567C220.836 182.524 216.578 192.919 210.031 201.828C203.485 210.737 194.851 217.887 184.895 222.644V236.363C184.882 239.142 183.771 241.803 181.807 243.76C179.843 245.718 177.186 246.814 174.419 246.807ZM164.767 227.876V236.363C164.788 238.921 165.814 241.366 167.622 243.167C169.43 244.969 171.873 245.979 174.419 245.979C176.966 245.979 179.409 244.969 181.217 243.167C183.025 241.366 184.051 238.921 184.072 236.363V222.121L184.307 222.009C195.478 216.685 204.961 208.355 211.703 197.944C220.295 184.66 223.868 168.724 221.776 153.023C219.684 137.321 212.064 122.89 200.297 112.343L200.16 112.219V82.9533C200.163 82.7755 200.112 82.601 200.013 82.4535C199.914 82.3059 199.773 82.1923 199.608 82.1279C199.444 82.0574 199.262 82.0384 199.087 82.0733C198.912 82.1083 198.752 82.1955 198.627 82.3236L194.045 86.8818V82.3123C194.048 82.1345 193.997 81.96 193.898 81.8124C193.799 81.6649 193.658 81.5512 193.493 81.4869C193.328 81.4165 193.146 81.3977 192.971 81.4329C192.796 81.4681 192.635 81.5556 192.51 81.684L175.843 98.2962L175.606 98.2217C168.953 96.1302 139.981 95.1386 133.611 95.1386C131.838 95.1386 130.026 95.2105 128.224 95.3524C114.957 96.3972 102.304 101.402 91.8898 109.724C75.8735 122.479 66.6878 141.469 66.6878 161.826C66.7151 173.739 69.9179 185.428 75.9633 195.678C82.0087 205.929 90.6762 214.366 101.065 220.114L101.278 220.232V236.061C101.299 238.618 102.325 241.064 104.133 242.864C105.941 244.665 108.384 245.676 110.93 245.676C113.476 245.676 115.919 244.665 117.727 242.864C119.535 241.064 120.561 238.618 120.583 236.061V227.257L121.07 227.349C128.011 228.661 157.238 228.868 164.302 227.937L164.767 227.876Z" fill="#3F3D56"/>
<path d="M118.594 49.2687L72.9923 63.0338C71.5418 63.4733 70.3244 64.4733 69.6075 65.8138C68.8906 67.1544 68.7329 68.726 69.1689 70.1833C69.6048 71.6407 70.599 72.8646 71.9328 73.5862C73.2666 74.3078 74.8311 74.4681 76.2825 74.0318L116.189 61.9832L117.025 61.7309C117.194 57.4039 118.362 53.1757 120.438 49.3804C120.178 49.2626 119.899 49.1899 119.615 49.1653C119.271 49.1318 118.924 49.167 118.594 49.2687Z" fill="#006EFF"/>
<path d="M75.4938 76.9665C74.8885 76.965 74.2989 76.7724 73.8085 76.4161C73.318 76.0597 72.9514 75.5576 72.7605 74.9806L69.9089 66.3377C69.7898 65.9768 69.7427 65.5958 69.7702 65.2166C69.7977 64.8373 69.8993 64.4673 70.0692 64.1275C70.2391 63.7877 70.474 63.4849 70.7604 63.2363C71.0469 62.9877 71.3793 62.7982 71.7386 62.6786L108.853 50.3239C109.213 50.2043 109.592 50.1569 109.969 50.1845C110.347 50.2121 110.715 50.3141 111.054 50.4847C111.392 50.6553 111.694 50.8911 111.941 51.1788C112.189 51.4664 112.377 51.8002 112.496 52.1611L115.348 60.804C115.585 61.5149 115.538 62.2906 115.215 62.9668C114.893 63.6431 114.321 64.1668 113.621 64.427C113.587 64.4399 113.552 64.4521 113.517 64.4635L76.4034 76.8178C76.1101 76.916 75.803 76.9662 75.4938 76.9665Z" fill="#2F2E41"/>
<path d="M145.001 33.9195C137.511 33.9224 130.315 36.8529 124.937 42.0908C119.56 47.3286 116.422 54.4628 116.189 61.9832C116.18 62.2769 116.176 62.5747 116.176 62.8725C116.176 68.5988 117.867 74.1966 121.034 78.9579C124.202 83.7192 128.703 87.4302 133.971 89.6215C139.238 91.8129 145.033 92.3863 150.625 91.2691C156.216 90.152 161.353 87.3945 165.384 83.3453C169.415 79.2962 172.16 74.1373 173.273 68.5209C174.385 62.9046 173.814 57.0831 171.632 51.7927C169.451 46.5022 165.756 41.9803 161.016 38.799C156.276 35.6176 150.702 33.9195 145.001 33.9195ZM145.001 90.9982C137.577 90.9905 130.46 88.0247 125.21 82.7518C119.96 77.4789 117.008 70.3295 117 62.8725C117 62.4878 117.008 62.1073 117.025 61.7309C117.248 56.2215 119.078 50.8994 122.288 46.4265C125.498 41.9536 129.947 38.5272 135.08 36.5733C140.214 34.6195 145.806 34.2243 151.161 35.4371C156.516 36.6498 161.398 39.4169 165.2 43.3944C169.002 47.3718 171.556 52.384 172.545 57.8078C173.534 63.2316 172.913 68.8277 170.761 73.9002C168.609 78.9727 165.019 83.2978 160.44 86.3378C155.86 89.3777 150.491 90.9984 145.001 90.9982Z" fill="#3F3D56"/>
<path d="M169.297 62.8725C169.297 69.3446 166.737 75.5517 162.181 80.1281C157.624 84.7046 151.445 87.2757 145.001 87.2757C138.558 87.2757 132.378 84.7046 127.822 80.1281C123.266 75.5517 120.706 69.3446 120.706 62.8725C120.706 62.099 120.743 61.338 120.813 60.5852C121.398 54.3389 124.356 48.5591 129.073 44.4458C133.789 40.3325 139.902 38.2019 146.141 38.4962C152.38 38.7906 158.267 41.4873 162.579 46.0265C166.891 50.5657 169.297 56.5986 169.297 62.8725Z" fill="#E6E6E6"/>
<path d="M152.236 64.4938C151.648 63.7161 150.873 63.1001 149.984 62.7029C148.888 62.2388 147.756 61.8653 146.599 61.5861V54.9435C148.377 55.2127 150.045 55.9764 151.413 57.148L152.755 54.2734C151.983 53.5825 151.097 53.0324 150.136 52.6479C149.072 52.2149 147.954 51.9269 146.813 51.7918V48.4249H143.704V51.8248C142.504 51.9603 141.346 52.3508 140.307 52.9706C139.369 53.5283 138.579 54.306 138.005 55.2371C137.457 56.1458 137.174 57.1902 137.186 58.2524C137.132 59.4034 137.464 60.5393 138.129 61.4786C138.74 62.2918 139.548 62.9352 140.476 63.3481C141.589 63.8259 142.741 64.2091 143.918 64.4938V70.8594C141.82 70.7004 139.821 69.8992 138.19 68.5638L136.848 71.4426C137.76 72.1997 138.797 72.7905 139.912 73.188C141.133 73.6271 142.41 73.8944 143.704 73.9821V77.32H146.813V73.9201C148.54 73.7306 150.16 72.9847 151.429 71.7941C151.989 71.2554 152.43 70.606 152.727 69.8869C153.023 69.1678 153.167 68.3947 153.151 67.6166C153.202 66.5023 152.88 65.4027 152.236 64.4938ZM143.918 60.883C143.161 60.6523 142.457 60.2727 141.847 59.7662C141.605 59.5503 141.414 59.2832 141.288 58.9843C141.161 58.6854 141.102 58.362 141.114 58.0373C141.092 57.3006 141.361 56.5851 141.864 56.0478C142.421 55.4842 143.139 55.1096 143.918 54.9766V60.883ZM148.551 69.6847C148.026 70.2258 147.342 70.5838 146.599 70.7063V65.2301C147.309 65.4213 147.973 65.7548 148.551 66.2103C148.77 66.3984 148.944 66.6336 149.061 66.8986C149.177 67.1635 149.232 67.4514 149.222 67.7407C149.251 68.4506 149.011 69.145 148.551 69.6847Z" fill="#006EFF"/>
<path d="M76.8174 111.995C76.1808 111.994 75.5624 111.782 75.058 111.392C74.5536 111.002 74.1914 110.456 74.0276 109.838L72.4751 103.935C72.2807 103.194 72.3873 102.405 72.7713 101.741C73.1554 101.078 73.7856 100.595 74.5237 100.398L123.502 87.3987C124.241 87.205 125.026 87.3132 125.686 87.6996C126.346 88.0861 126.827 88.7193 127.023 89.4607L128.338 94.4613L128.092 94.4804C115.53 95.4615 103.512 100.036 93.4575 107.663L93.3861 107.698L77.5487 111.9C77.31 111.963 77.0642 111.995 76.8174 111.995Z" fill="#2F2E41"/>
<path d="M68.7057 141.149C62.9603 140.297 57.4654 138.21 52.5957 135.031C50.1831 133.457 47.9497 131.622 45.9355 129.559C43.9474 127.523 42.0455 125.208 41.0608 122.495C40.1134 119.986 40.1622 117.206 41.1972 114.732C42.2181 112.273 44.1682 110.32 46.6199 109.303C49.0864 108.315 52.0663 108.209 54.4667 109.291C55.6105 109.795 56.6003 110.595 57.3345 111.61C57.6758 112.078 57.9285 112.605 58.08 113.165C58.2206 113.672 58.2333 114.206 58.1172 114.719C57.9764 115.232 57.7282 115.708 57.3892 116.116C57.0501 116.525 56.6281 116.855 56.1514 117.086C55.1022 117.627 53.9654 117.975 52.7944 118.115C51.6167 118.276 49.9248 118.423 48.978 117.473C48.7831 117.285 48.6298 117.058 48.5281 116.807C48.4569 116.615 48.4326 116.408 48.4571 116.204C48.4433 116.294 48.5142 116.009 48.5102 116.02C48.4952 116.062 48.4304 116.165 48.5225 116.007C48.5513 115.955 48.5834 115.905 48.6185 115.857C48.5872 115.898 48.5185 115.965 48.6412 115.849C48.7427 115.737 48.873 115.657 49.0177 115.616C49.0747 115.599 49.1325 115.586 49.1897 115.57C49.335 115.53 49.0449 115.572 49.1935 115.567C49.2509 115.565 49.3089 115.567 49.3661 115.564C49.5118 115.558 49.2222 115.524 49.3619 115.56C49.4162 115.573 49.4699 115.587 49.5234 115.604C49.6395 115.64 49.4411 115.518 49.5198 115.61C49.6121 115.717 49.423 115.505 49.5278 115.609C49.58 115.661 49.6292 115.715 49.6751 115.772C49.8569 115.952 50.1021 116.054 50.3576 116.054C50.6131 116.054 50.8583 115.952 51.0402 115.772C51.2158 115.588 51.3138 115.342 51.3138 115.087C51.3138 114.831 51.2158 114.586 51.0402 114.401C50.0884 113.216 48.2083 113.509 47.2454 114.51C46.0175 115.788 46.5038 117.812 47.6982 118.927C49.0504 120.189 50.9655 120.277 52.7049 120.065C54.1748 119.923 55.6073 119.517 56.9336 118.865C58.2513 118.214 59.282 117.096 59.826 115.726C60.0715 114.995 60.1597 114.22 60.0848 113.452C60.0098 112.684 59.7733 111.941 59.3909 111.272C57.8553 108.372 54.6754 106.885 51.5323 106.628C49.914 106.5 48.2867 106.697 46.7445 107.205C45.2023 107.714 43.7758 108.524 42.5476 109.59C40.1802 111.731 38.7224 114.704 38.4757 117.894C38.2014 121.201 39.4789 124.413 41.3414 127.082C43.2913 129.794 45.6182 132.211 48.251 134.259C53.3981 138.387 59.4356 141.247 65.8804 142.61C66.647 142.769 67.4177 142.906 68.1925 143.019C68.439 143.079 68.699 143.042 68.9196 142.916C69.1402 142.791 69.3048 142.585 69.3798 142.342C69.446 142.094 69.4124 141.83 69.2862 141.607C69.16 141.383 68.9515 141.219 68.7057 141.149Z" fill="#3F3D56"/>
<path d="M160.693 99.0117C152.275 98.8924 143.884 99.1069 135.519 99.6554C132.66 99.8429 130.186 100.858 130.186 102.564C130.186 103.99 132.64 105.661 135.519 105.473C143.879 104.924 152.271 104.71 160.693 104.829C167.559 104.926 167.555 99.109 160.693 99.0117Z" fill="#CCCCCC"/>
<path d="M148.251 104.541C147.341 104.541 125.971 104.507 125.971 101.542C125.971 98.5768 147.341 98.5426 148.251 98.5426C149.161 98.5426 170.531 98.5768 170.531 101.542C170.531 104.507 149.161 104.541 148.251 104.541ZM126.807 101.542C127.392 102.44 135.247 103.713 148.251 103.713C161.255 103.713 169.111 102.44 169.695 101.542C169.111 100.643 161.255 99.3699 148.251 99.3699C135.247 99.3699 127.392 100.643 126.807 101.542Z" fill="#3F3D56"/>
<path d="M216.053 182.486C220.784 182.354 226.672 182.189 231.207 178.861C232.558 177.83 233.668 176.514 234.459 175.006C235.25 173.498 235.703 171.835 235.787 170.133C235.879 167.504 234.934 165.21 233.125 163.675C230.756 161.664 227.296 161.192 223.568 162.293L227.431 133.94L224.595 133.55L220.054 166.882L222.422 165.791C225.167 164.526 228.936 163.882 231.277 165.87C231.852 166.389 232.3 167.035 232.586 167.757C232.872 168.479 232.989 169.257 232.927 170.032C232.857 171.299 232.517 172.536 231.929 173.659C231.341 174.782 230.519 175.764 229.519 176.54C225.989 179.13 221.296 179.464 215.974 179.613L216.053 182.486Z" fill="#3F3D56"/>
<path d="M208.214 136.385H192.799V139.26H208.214V136.385Z" fill="#3F3D56"/>
<path d="M83.7924 125.217C83.1063 125.214 82.4434 124.967 81.9224 124.518C81.4015 124.07 81.0566 123.45 80.9494 122.769L80.0086 116.738C79.8911 115.979 80.0779 115.205 80.5282 114.585C80.9784 113.964 81.6552 113.549 82.4102 113.429L132.455 105.553C133.21 105.435 133.981 105.623 134.599 106.075C135.216 106.527 135.63 107.207 135.749 107.965L136.69 113.996C136.807 114.755 136.621 115.529 136.17 116.15C135.72 116.77 135.043 117.185 134.288 117.305L84.2434 125.181C84.0942 125.205 83.9434 125.216 83.7924 125.217Z" fill="#2F2E41"/>
<path d="M63.0813 54.537C74.6799 54.537 84.0824 45.0927 84.0824 33.4426C84.0824 21.7926 74.6799 12.3483 63.0813 12.3483C51.4827 12.3483 42.0802 21.7926 42.0802 33.4426C42.0802 45.0927 51.4827 54.537 63.0813 54.537Z" fill="#006EFF"/>
<path d="M74.9717 38.9007C75.6429 38.6649 76.256 38.2875 76.7699 37.7938C77.1099 37.4418 77.3692 37.0194 77.5296 36.5563C77.6899 36.0931 77.7476 35.6002 77.6984 35.1123C77.6698 34.7646 77.5616 34.4282 77.3821 34.1294C77.2027 33.8306 76.9569 33.5775 76.6639 33.39C75.9039 32.9205 74.8996 32.9383 73.8857 33.4104L73.7686 25.1762L72.9452 25.188L73.0827 34.8681L73.7096 34.4552C74.4365 33.9771 75.481 33.6304 76.2324 34.0947C76.4183 34.2176 76.5734 34.3819 76.6858 34.5748C76.7981 34.7678 76.8646 34.9841 76.8801 35.2071C76.9148 35.5706 76.8711 35.9373 76.752 36.2823C76.6328 36.6273 76.4411 36.9425 76.1899 37.2064C75.2972 38.0961 73.9758 38.3942 72.4677 38.6669L72.6136 39.4809C73.4153 39.3586 74.2045 39.1645 74.9717 38.9007Z" fill="#2F2E41"/>
<path d="M82.2489 24.5982L77.8633 25.2654L77.9866 26.0832L82.3722 25.416L82.2489 24.5982Z" fill="#2F2E41"/>
<path d="M68.406 26.7035L64.0204 27.3706L64.1437 28.1884L68.5293 27.5213L68.406 26.7035Z" fill="#2F2E41"/>
<path d="M76.9597 124.848C76.2044 124.846 75.4676 124.614 74.8471 124.181C74.2267 123.748 73.7521 123.136 73.4865 122.426L59.0068 83.4764C57.237 78.6995 57.426 73.4125 59.5323 68.7754C61.6386 64.1382 65.4902 60.5297 70.2421 58.7414L82.0158 54.3255C82.471 54.1536 82.9556 54.0739 83.4417 54.0908C83.9278 54.1078 84.4057 54.2211 84.848 54.4243C85.2893 54.6223 85.6868 54.9067 86.0173 55.2607C86.3479 55.6148 86.6049 56.0315 86.7733 56.4865L113.596 107.354C113.77 107.813 113.852 108.302 113.837 108.793C113.823 109.283 113.711 109.766 113.51 110.214C113.309 110.661 113.022 111.064 112.665 111.399C112.308 111.735 111.889 111.996 111.431 112.168L78.2549 124.611C77.8407 124.767 77.4021 124.847 76.9597 124.848Z" fill="#2F2E41"/>
<path d="M78.4437 55.6652L105.057 91.4121L87.049 56.0404C86.9003 55.6277 86.672 55.2484 86.3774 54.9243C86.0827 54.6002 85.7273 54.3376 85.3316 54.1515C84.9358 53.9653 84.5075 53.8593 84.0709 53.8395C83.6344 53.8197 83.1983 53.8865 82.7874 54.036L78.4437 55.6652Z" fill="#E6E6E6"/>
<path d="M120.583 82.8128L73.0644 79.7383C72.3154 79.6899 71.5833 79.4937 70.9097 79.1611C70.2362 78.8284 69.6345 78.3657 69.139 77.7995C68.6435 77.2333 68.2639 76.5745 68.0218 75.8609C67.7798 75.1473 67.68 74.3928 67.7282 73.6405C67.7765 72.8882 67.9718 72.1528 68.303 71.4762C68.6342 70.7997 69.0948 70.1954 69.6585 69.6977C70.2223 69.1999 70.8781 68.8186 71.5885 68.5755C72.299 68.3324 73.0502 68.2322 73.7992 68.2806L121.317 71.3548C121.668 71.3775 122.011 71.4694 122.326 71.6251C122.642 71.7809 122.924 71.9976 123.156 72.2627C123.388 72.5279 123.566 72.8364 123.679 73.1706C123.792 73.5048 123.839 73.8581 123.816 74.2105L123.426 80.3027C123.38 81.0142 123.055 81.6784 122.522 82.1491C121.989 82.6199 121.291 82.8586 120.583 82.8128Z" fill="#006EFF"/>
<path d="M107.885 84.7837C107.822 84.7837 107.759 84.7817 107.696 84.7777L68.677 82.2532C68.2993 82.2288 67.93 82.1299 67.5903 81.9621C67.2506 81.7944 66.9471 81.5611 66.6972 81.2755C66.4473 80.9899 66.2558 80.6577 66.1337 80.2978C66.0117 79.9379 65.9614 79.5574 65.9857 79.1779L66.6529 68.7722C66.6773 68.3927 66.7758 68.0218 66.9429 67.6806C67.1099 67.3394 67.3422 67.0346 67.6266 66.7836C67.9109 66.5326 68.2417 66.3403 68.6 66.2177C68.9584 66.0951 69.3372 66.0446 69.715 66.0691L108.734 68.5934C109.497 68.6436 110.208 68.9956 110.713 69.5721C111.217 70.1486 111.474 70.9026 111.425 71.6686L110.758 82.0746C110.721 82.6322 110.525 83.1673 110.193 83.6156C109.861 84.064 109.407 84.4065 108.886 84.6022C108.566 84.7225 108.227 84.784 107.885 84.7837Z" fill="#2F2E41"/>
<path d="M62.8405 19.4153C65.6033 17.0286 69.3972 19.1636 72.5656 18.7899C75.5968 18.4323 77.9903 15.7012 78.6018 12.7998C79.3151 9.41475 77.5659 6.02346 74.9877 3.91296C72.1639 1.60144 68.4188 0.937864 64.8699 1.36551C60.8024 1.85564 57.0825 3.76007 53.7447 6.06356C50.5228 8.21812 47.56 10.7399 44.9153 13.5786C42.5471 16.2057 40.5406 19.3372 39.8998 22.8724C39.3176 26.0851 39.7622 29.6453 41.653 32.367C42.6557 33.7619 43.9993 34.8738 45.5544 35.5953C47.1757 36.395 48.9053 36.9667 50.4761 37.8709C52.8512 39.238 55.1596 42.0727 54.4156 45.0227C54.2561 45.6671 53.9413 46.2622 53.4989 46.7557C52.9675 47.3483 52.0088 46.5652 52.5417 45.9711C53.4776 44.9275 53.4407 43.5357 52.942 42.2898C52.3489 40.8858 51.2986 39.7258 49.9633 38.9998C48.319 38.0555 46.5037 37.4727 44.8185 36.6126C43.2054 35.8269 41.8052 34.6614 40.7371 33.2153C38.72 30.3998 38.1167 26.7356 38.5742 23.346C39.0692 19.6779 40.9455 16.3447 43.2976 13.5514C45.8574 10.5116 49.0016 7.93847 52.2138 5.62686C55.6605 3.14648 59.4684 1.04949 63.6821 0.291041C67.3347 -0.366415 71.2938 0.0383564 74.4879 2.0377C77.4693 3.90397 79.7556 7.11431 79.983 10.7016C80.0646 12.3337 79.7118 13.9583 78.9608 15.408C78.2098 16.8578 77.0878 18.0803 75.7102 18.9499C74.2966 19.7995 72.6532 20.1819 71.0117 20.0432C69.2568 19.9304 67.5003 19.3906 65.7342 19.5404C64.935 19.5892 64.1734 19.8982 63.5649 20.4208C62.9613 20.9423 62.2418 19.9324 62.8405 19.4153Z" fill="#2F2E41"/>
<path d="M304.51 247H0.490293C0.360502 247 0.236157 246.948 0.144514 246.855C0.0528698 246.763 0.00140381 246.638 0.00140381 246.508C0.00140381 246.377 0.0528698 246.252 0.144514 246.16C0.236157 246.067 0.360502 246.015 0.490293 246.015H304.51C304.64 246.015 304.764 246.067 304.856 246.159C304.948 246.252 305 246.377 305 246.508C305 246.638 304.948 246.763 304.856 246.856C304.764 246.948 304.64 247 304.51 247Z" fill="#3F3D56"/>
</g>
<defs>
<clipPath id="clip0_13_3">
<rect width="305" height="247" fill="white"/>
</clipPath>
</defs>
</svg>
