<svg width="220" height="148" viewBox="0 0 220 148" fill="none" xmlns="http://www.w3.org/2000/svg">
<path d="M25.9643 88.8885C25.6343 94.7914 25.8921 105.402 31.8978 106.229C37.835 107.048 34.1569 96.9514 31.4399 90.8664C35.4316 92.4385 39.418 94.3208 43.0564 96.5565C41.6302 104.394 33.9027 116.571 40.9956 117.383C46.4045 118.001 47.324 106.774 47.36 99.5116C50.1258 101.644 52.5364 104.042 54.3952 106.729C52.9835 111.051 50.6775 116.944 47.4087 121.728C41.486 130.398 47.1473 132.133 50.847 129.408C54.9343 126.397 56.4758 117.3 57.0005 111.638C57.307 112.441 57.5684 113.261 57.774 114.105C63.163 136.209 41.9818 144.532 41.9818 144.532C26.5628 150.242 11.8561 142.963 8.30963 131.327C16.4536 135.832 29.7072 142.096 32.8263 137.147C36.636 131.1 14.9319 126.754 7.50912 125.462C7.53436 124.259 7.67138 123.029 7.93281 121.782C8.42863 119.416 8.78922 117.15 9.04164 114.985C16.0245 118.648 27.2299 123.615 29.1176 118.904C31.2271 113.64 16.6177 110.322 9.48156 109.031C9.58613 105.562 9.40764 102.422 9.06688 99.6234C14.1134 102.438 20.2507 104.924 21.5326 101.291C23.3139 96.2464 13.7348 93.5492 7.68581 92.3682C6.20557 86.7628 4.36475 83.7573 4.36475 83.7573C4.36475 83.7573 14.4848 85.0879 25.9643 88.8885Z" fill="#E2EAFF"/>
<path d="M38.1776 143.798C38.0874 143.798 38.0099 143.728 38.0027 143.636C37.2544 134.578 35.4208 125.662 32.5505 117.137C29.2493 107.337 25.546 100.844 21.9653 94.5661C18.2205 88.0051 14.6867 81.8066 12.3988 72.7827C9.87101 62.8015 9.59335 51.9783 11.5784 40.6142C11.5946 40.5187 11.6866 40.4556 11.7803 40.4718C11.8759 40.488 11.9408 40.58 11.9246 40.6755C9.94854 51.9891 10.2226 62.7636 12.7395 72.6962C15.0149 81.6749 18.5397 87.8519 22.27 94.3931C25.8597 100.685 29.572 107.19 32.8822 117.024C35.7616 125.577 37.6024 134.52 38.3524 143.607C38.3615 143.704 38.2893 143.789 38.192 143.796C38.1884 143.796 38.183 143.798 38.1776 143.798Z" fill="black"/>
<path d="M14.5857 31.4353C13.1649 30.6708 10.9887 30.5338 9.9322 31.6661C8.58178 33.1139 9.72847 35.9103 10.3505 37.4284C10.8607 38.6742 11.5044 39.6117 12.002 40.2374C12.7412 39.8714 13.915 39.1718 14.9751 37.9224C15.8802 36.8532 16.9602 35.5785 16.6861 34.0244C16.4012 32.4107 14.8507 31.5777 14.5857 31.4353Z" fill="white"/>
<path d="M12.1861 31.0134C11.3532 31.0134 10.5653 31.246 10.0605 31.7869C8.78756 33.1499 9.9108 35.8886 10.513 37.3617C10.9006 38.3046 11.4163 39.1971 12.0509 40.0174C13.1345 39.4585 14.072 38.7157 14.8401 37.807C15.747 36.7396 16.7729 35.528 16.5133 34.055C16.2699 32.674 15.0258 31.8698 14.503 31.5904C13.8323 31.2298 12.9885 31.0134 12.1861 31.0134ZM12.0022 40.4141C11.95 40.4141 11.8995 40.3906 11.8652 40.3474C11.1693 39.4711 10.6049 38.512 10.1885 37.4951C9.55562 35.9499 8.37648 33.076 9.80443 31.5471C10.9241 30.3463 13.1579 30.4671 14.6688 31.2803C15.2368 31.585 16.589 32.4612 16.8594 33.9937C17.1479 35.6308 16.0174 36.9632 15.1088 38.0342C14.2794 39.015 13.2589 39.8083 12.0798 40.3961C12.0563 40.4087 12.0293 40.4141 12.0022 40.4141Z" fill="black"/>
<path d="M2.08737 43.69C1.12639 44.9846 0.67204 47.1175 1.63843 48.3291C2.87346 49.876 5.80688 49.1476 7.3989 48.7527C8.70605 48.43 9.72653 47.9288 10.4189 47.5285C10.1628 46.7442 9.64179 45.4804 8.56001 44.2489C7.63509 43.1978 6.53348 41.9448 4.95588 41.9898C3.31699 42.0367 2.26766 43.4484 2.08737 43.69Z" fill="white"/>
<path d="M5.03715 42.1629C5.01191 42.1629 4.98667 42.1647 4.95962 42.1647C3.55872 42.2044 2.58331 43.3186 2.22813 43.7946C1.30501 45.0368 0.868695 47.0832 1.77559 48.219C2.9403 49.6776 5.81242 48.9655 7.35576 48.5832C8.34559 48.338 9.30477 47.9558 10.2062 47.4474C9.8132 46.2953 9.21462 45.2586 8.42853 44.3661C7.51983 43.333 6.49214 42.1629 5.03715 42.1629ZM4.14649 49.4487C3.10257 49.4487 2.11454 49.2053 1.50154 48.439C0.477452 47.1535 0.922784 44.9611 1.94687 43.5854C2.3309 43.068 3.39465 41.8582 4.95061 41.8131C6.60573 41.7662 7.76504 43.0788 8.69176 44.1335C9.54096 45.0981 10.1774 46.2232 10.5867 47.4744C10.6119 47.5538 10.5795 47.6403 10.5073 47.68C9.53915 48.2407 8.50786 48.6608 7.4423 48.924C6.58049 49.1386 5.32743 49.4487 4.14649 49.4487Z" fill="black"/>
<path d="M19.9999 47.1319C20.2181 45.5327 19.5852 43.4466 18.1537 42.8517C16.3255 42.0944 14.1078 44.148 12.9035 45.264C11.9154 46.1781 11.2628 47.1085 10.8517 47.7936C11.4539 48.3579 12.5194 49.2125 14.061 49.7678C15.3789 50.242 16.9493 50.8063 18.3105 50.0058C19.7223 49.1747 19.9603 47.4294 19.9999 47.1319Z" fill="white"/>
<path d="M11.0755 47.7611C11.9788 48.5797 13.001 49.1999 14.1207 49.602C15.4387 50.0761 16.9315 50.6134 18.2206 49.8544C19.4304 49.1422 19.7459 47.6962 19.8271 47.1067C20.0344 45.5723 19.4286 43.571 18.0854 43.0157C16.3618 42.3 14.191 44.3103 13.0245 45.392C12.2763 46.0844 11.6218 46.8813 11.0755 47.7611ZM16.7674 50.5828C15.8083 50.5828 14.8401 50.2348 14.0035 49.9337C12.7937 49.4974 11.6939 48.8213 10.7311 47.9216C10.6716 47.8657 10.6572 47.7738 10.7005 47.7034C11.2774 46.7443 11.977 45.8824 12.7847 45.1342C14.0107 44.0001 16.2897 41.8889 18.2206 42.6894C19.7387 43.3204 20.4058 45.4551 20.175 47.1553C20.0867 47.7936 19.7405 49.3676 18.3991 50.1573C17.8763 50.4656 17.3228 50.5828 16.7674 50.5828Z" fill="black"/>
<path d="M1.71425 56.8264C0.706397 58.1822 0.230415 60.4179 1.24368 61.6872C2.53821 63.3081 5.61226 62.5454 7.28181 62.1325C8.65026 61.7936 9.72122 61.2689 10.446 60.8488C10.1774 60.0267 9.63288 58.7015 8.49881 57.4124C7.52882 56.3108 6.37312 54.9964 4.7198 55.0433C3.00337 55.092 1.90176 56.5722 1.71425 56.8264Z" fill="white"/>
<path d="M4.80647 55.2182C4.77942 55.2182 4.75238 55.2182 4.72533 55.2182C3.25231 55.2614 2.22823 56.4298 1.85501 56.931C0.885019 58.2345 0.428868 60.3837 1.38083 61.5772C2.60505 63.1097 5.6178 62.3633 7.23686 61.9631C8.27898 61.7052 9.28503 61.3032 10.2334 60.7677C9.82051 59.5579 9.19308 58.4689 8.36552 57.5278C7.41175 56.4442 6.33358 55.2182 4.80647 55.2182ZM3.87253 62.8519C2.77993 62.8519 1.74684 62.5977 1.10678 61.7972C0.0358219 60.454 0.50279 58.1624 1.57375 56.72C1.97581 56.1792 3.08824 54.9135 4.71452 54.8666C6.45077 54.8125 7.65876 56.1918 8.62875 57.2952C9.51942 58.3067 10.1865 59.484 10.6138 60.7947C10.6391 60.8741 10.6066 60.9588 10.5345 61.0003C9.52122 61.588 8.44124 62.0262 7.32341 62.3038C6.42192 62.5274 5.10936 62.8519 3.87253 62.8519Z" fill="black"/>
<path d="M20.4867 60.4323C20.7157 58.7574 20.0522 56.5704 18.5521 55.9483C16.6356 55.1532 14.3116 57.306 13.0495 58.4743C12.0146 59.4317 11.3313 60.4089 10.8986 61.1265C11.5314 61.7178 12.6474 62.6139 14.2647 63.1945C15.644 63.6903 17.2901 64.2834 18.7162 63.4451C20.1964 62.5724 20.4453 60.7442 20.4867 60.4323Z" fill="white"/>
<path d="M11.124 61.0958C12.0705 61.9558 13.1469 62.6049 14.3242 63.0286C15.7071 63.5262 17.2739 64.0905 18.6279 63.2936C19.8972 62.5454 20.2289 61.0273 20.3137 60.407C20.5336 58.797 19.8954 56.6965 18.4837 56.1106C16.6735 55.3569 14.3945 57.4682 13.1703 58.6023C12.3842 59.3307 11.6955 60.1691 11.124 61.0958ZM17.099 64.04C16.0947 64.04 15.0815 63.6758 14.2052 63.3603C12.9396 62.9041 11.7857 62.1974 10.7796 61.2544C10.7183 61.1985 10.7057 61.1066 10.7489 61.0363C11.3511 60.032 12.0867 59.1269 12.9305 58.3463C14.2142 57.1563 16.5996 54.9477 18.6189 55.786C20.2055 56.4441 20.9032 58.678 20.6616 60.4557C20.5715 61.1246 20.2091 62.7707 18.8064 63.5947C18.2583 63.9192 17.6795 64.04 17.099 64.04Z" fill="black"/>
<path d="M3.61454 75.4817C2.96908 77.1783 3.13134 79.6268 4.54847 80.6418C6.35865 81.9364 9.31191 80.2506 10.9147 79.3365C12.2309 78.5864 13.1829 77.7318 13.8085 77.0864C13.2911 76.3147 12.3409 75.1067 10.7921 74.1061C9.47057 73.2515 7.89297 72.231 6.19819 72.7629C4.43849 73.3146 3.73534 75.1662 3.61454 75.4817Z" fill="white"/>
<path d="M7.16302 72.7898C6.86373 72.7898 6.55903 72.8331 6.25072 72.9305C4.73623 73.4046 4.01685 74.9173 3.77886 75.5448C3.15683 77.1801 3.31189 79.5401 4.65149 80.4993C6.36972 81.7289 9.26888 80.0738 10.8266 79.1849C11.8309 78.6116 12.7576 77.8994 13.5834 77.0665C12.7991 75.9306 11.8309 74.984 10.6986 74.252C9.62407 73.5597 8.43411 72.7898 7.16302 72.7898ZM6.14434 81.2872C5.53134 81.2872 4.94898 81.1448 4.44595 80.7842C2.9531 79.7132 2.76739 77.2161 3.45072 75.4204C3.70674 74.7442 4.48562 73.1162 6.14615 72.5951C7.91846 72.038 9.56457 73.1035 10.8879 73.9563C12.0995 74.7406 13.1326 75.7611 13.9548 76.9889C14.0017 77.0574 13.9927 77.1494 13.935 77.2089C13.0605 78.1104 12.0743 78.8784 11.0033 79.4896C9.80617 80.173 7.84995 81.2872 6.14434 81.2872Z" fill="black"/>
<path d="M24.0586 73.7202C23.8062 71.9245 22.481 69.8601 20.7502 69.6545C18.5397 69.3931 16.7674 72.2959 15.8046 73.8717C15.0167 75.1644 14.5948 76.3724 14.3586 77.2396C15.1826 77.6669 16.5979 78.2655 18.4388 78.3935C20.0091 78.5035 21.8824 78.6333 23.1102 77.3496C24.3831 76.0172 24.1073 74.0556 24.0586 73.7202Z" fill="white"/>
<path d="M14.566 77.1494C15.7992 77.766 17.1046 78.1248 18.4496 78.2186C20.0272 78.3285 21.8139 78.4529 22.984 77.2287C24.0802 76.0802 23.9793 74.4107 23.8855 73.7454C23.6403 72.0128 22.3638 70.0223 20.7303 69.8294C18.6317 69.586 16.8918 72.431 15.9561 73.9618C15.3539 74.9498 14.8869 76.0207 14.566 77.1494ZM19.8541 78.635C19.3637 78.635 18.8787 78.6008 18.4261 78.5683C16.9856 78.4692 15.5901 78.0743 14.2775 77.3964C14.2036 77.3585 14.1657 77.2738 14.1892 77.1945C14.5191 75.9829 15.0113 74.8344 15.655 73.7815C16.6322 72.1804 18.446 69.2037 20.77 69.4796C22.5711 69.6941 23.9702 71.8343 24.2335 73.6967C24.3344 74.4125 24.4408 76.2119 23.2364 77.4721C22.3223 78.4277 21.0693 78.635 19.8541 78.635Z" fill="black"/>
<path d="M9.85098 93.3383C9.58414 95.2765 10.3486 97.8096 12.0849 98.5326C14.3025 99.4575 16.9979 96.9658 18.4601 95.6154C19.6609 94.5084 20.4542 93.3779 20.9554 92.5468C20.2234 91.8616 18.9325 90.8231 17.061 90.147C15.4636 89.5701 13.5579 88.8813 11.9064 89.8513C10.1917 90.8574 9.89966 92.9759 9.85098 93.3383Z" fill="white"/>
<path d="M10.0243 93.3617C9.7665 95.2368 10.5075 97.6852 12.1536 98.3703C14.2649 99.2502 16.9153 96.8018 18.3396 95.4874C19.2591 94.6382 20.0632 93.661 20.7303 92.5792C19.6287 91.5696 18.3739 90.8087 17.0018 90.3129C15.3954 89.7323 13.5762 89.0743 11.995 90.0028C10.5147 90.8736 10.1235 92.6423 10.0243 93.3617ZM13.1092 98.9094C12.7396 98.9094 12.3736 98.8427 12.0184 98.6949C10.2172 97.9466 9.4005 95.3179 9.67636 93.313C9.78273 92.5432 10.2028 90.6482 11.8165 89.6999C13.5401 88.6884 15.5252 89.406 17.1208 89.9811C18.583 90.5094 19.9136 91.3298 21.0765 92.4206C21.136 92.4765 21.1486 92.5666 21.1053 92.6387C20.4058 93.798 19.5566 94.8419 18.5794 95.7452C17.3245 96.9045 15.1538 98.9094 13.1092 98.9094Z" fill="black"/>
<path d="M30.9116 86.5213C30.2084 84.6949 28.3153 82.8451 26.4456 83.0506C24.0585 83.3138 22.901 86.7954 22.2736 88.6849C21.7579 90.2354 21.6083 91.6075 21.5686 92.5757C22.5404 92.8227 24.1739 93.1093 26.1373 92.7974C27.8159 92.5324 29.8172 92.2133 30.7944 90.5654C31.8112 88.8561 31.0432 86.8621 30.9116 86.5213Z" fill="white"/>
<path d="M21.7506 92.4404C23.2038 92.792 24.6696 92.8533 26.1102 92.6243C27.7977 92.3557 29.7089 92.0528 30.6446 90.477C31.5208 88.9985 31.0088 87.2623 30.7474 86.5844C30.0677 84.8175 28.2358 83.0307 26.4653 83.2255C24.1918 83.4761 23.0523 86.8981 22.4393 88.7371C22.0445 89.9271 21.8137 91.1711 21.7506 92.4404ZM24.3955 93.1111C23.44 93.1111 22.479 92.9885 21.5252 92.7469C21.4459 92.7271 21.39 92.6532 21.3936 92.5702C21.4459 91.218 21.6857 89.891 22.1058 88.6289C22.744 86.7124 23.9286 83.1515 26.4275 82.8757C28.3675 82.6629 30.3489 84.5687 31.0755 86.4582C31.355 87.183 31.9013 89.0472 30.9457 90.6555C29.9252 92.3737 27.841 92.7054 26.166 92.9705C25.5783 93.0642 24.9869 93.1111 24.3955 93.1111Z" fill="black"/>
<path d="M18.5019 111.357C18.2261 113.378 19.023 116.02 20.8332 116.773C23.1446 117.736 25.9536 115.14 27.4789 113.732C28.7284 112.578 29.5559 111.4 30.0788 110.535C29.3179 109.819 27.9693 108.737 26.0203 108.032C24.3544 107.43 22.3675 106.713 20.6457 107.724C18.8571 108.773 18.5542 110.98 18.5019 111.357Z" fill="white"/>
<path d="M22.598 107.391C21.9597 107.391 21.3305 107.526 20.7337 107.876C19.1867 108.784 18.7793 110.63 18.6765 111.382C18.4079 113.34 19.1813 115.897 20.8996 116.611C23.1064 117.529 25.8721 114.977 27.356 113.605C28.3188 112.717 29.1571 111.696 29.8549 110.566C28.7028 109.513 27.3938 108.716 25.9605 108.198C24.8895 107.811 23.7284 107.391 22.598 107.391ZM21.8984 117.157C21.5144 117.157 21.134 117.091 20.7643 116.935C18.8911 116.157 18.0419 113.421 18.3285 111.334C18.4385 110.531 18.8766 108.559 20.5552 107.573C22.3491 106.518 24.4171 107.266 26.0795 107.867C27.6012 108.416 28.9877 109.271 30.1993 110.405C30.2606 110.463 30.2714 110.555 30.2299 110.625C29.5015 111.833 28.6145 112.922 27.5976 113.861C26.2886 115.069 24.0277 117.157 21.8984 117.157Z" fill="black"/>
<path d="M40.4582 104.252C39.7262 102.348 37.752 100.42 35.803 100.635C33.3149 100.909 32.1069 104.538 31.4524 106.507C30.9152 108.123 30.7583 109.554 30.7186 110.564C31.7319 110.822 33.4339 111.119 35.4821 110.795C37.2309 110.517 39.317 110.185 40.3374 108.469C41.3958 106.686 40.5953 104.607 40.4582 104.252Z" fill="white"/>
<path d="M30.9005 110.428C32.4168 110.794 33.9475 110.859 35.453 110.621C37.2145 110.342 39.2085 110.025 40.1858 108.379C41.1017 106.835 40.5662 105.023 40.2939 104.315C39.5854 102.47 37.6742 100.604 35.8226 100.81C33.4463 101.069 32.2581 104.641 31.6199 106.559C31.207 107.802 30.9654 109.102 30.9005 110.428ZM33.6662 111.114C32.6692 111.114 31.6685 110.987 30.6751 110.735C30.5958 110.713 30.5399 110.639 30.5435 110.556C30.5976 109.148 30.8482 107.767 31.2845 106.451C31.9498 104.455 33.1848 100.745 35.7847 100.458C37.804 100.238 39.8648 102.223 40.6221 104.188C40.9123 104.944 41.4821 106.882 40.4887 108.557C39.4267 110.346 37.2541 110.692 35.5089 110.968C34.8977 111.065 34.2828 111.114 33.6662 111.114Z" fill="black"/>
<path d="M23.6171 131.518C23.0708 133.631 23.5882 136.536 25.4164 137.561C27.7531 138.87 31.0597 136.465 32.8554 135.158C34.3285 134.087 35.3544 132.94 36.016 132.086C35.2967 131.231 34.0003 129.913 32.0171 128.922C30.3223 128.076 28.3012 127.066 26.3449 127.925C24.3166 128.817 23.718 131.125 23.6171 131.518Z" fill="white"/>
<path d="M27.9386 127.771C27.4301 127.771 26.9217 127.863 26.4169 128.085C24.6554 128.86 23.9901 130.775 23.7863 131.563C23.2563 133.613 23.7611 136.431 25.5028 137.408C27.7384 138.663 30.9982 136.292 32.7489 135.019C33.8847 134.193 34.9052 133.207 35.7887 132.089C34.6961 130.822 33.4015 129.81 31.9375 129.078C30.6899 128.456 29.3196 127.771 27.9386 127.771ZM26.9343 138.115C26.3736 138.115 25.8327 137.996 25.3315 137.715C23.4438 136.656 22.883 133.651 23.4474 131.475C23.6637 130.638 24.3723 128.601 26.2744 127.764C28.3046 126.872 30.4068 127.921 32.0944 128.765C33.6431 129.538 35.008 130.616 36.1511 131.972C36.2034 132.035 36.2052 132.127 36.1547 132.192C35.2316 133.384 34.1552 134.43 32.958 135.3C31.5156 136.35 29.0889 138.115 26.9343 138.115Z" fill="black"/>
<path d="M47.8233 126.704C47.2824 124.591 45.4271 122.297 43.3303 122.281C40.6529 122.263 38.9184 125.968 37.9773 127.979C37.2038 129.628 36.8594 131.128 36.6918 132.198C37.7357 132.596 39.5062 133.124 41.722 133.034C43.6152 132.958 45.8725 132.866 47.1688 131.168C48.5156 129.407 47.9242 127.099 47.8233 126.704Z" fill="white"/>
<path d="M36.8883 132.084C38.4586 132.665 40.0813 132.926 41.7148 132.859C43.6223 132.782 45.7841 132.693 47.0299 131.062C48.1983 129.533 47.8557 127.535 47.6538 126.749C47.1291 124.696 45.3261 122.472 43.3284 122.458C43.3212 122.458 43.3158 122.458 43.3086 122.458C40.7556 122.458 39.0518 126.095 38.1359 128.051C37.5409 129.322 37.1226 130.678 36.8883 132.084ZM41.2172 133.222C39.6612 133.222 38.1215 132.933 36.6286 132.362C36.5529 132.331 36.506 132.252 36.5186 132.171C36.753 130.681 37.1894 129.246 37.8168 127.905C38.7669 125.875 40.532 122.106 43.3086 122.106C43.3158 122.106 43.323 122.106 43.3302 122.106C45.4956 122.123 47.4374 124.483 47.9945 126.661C48.2091 127.497 48.5715 129.625 47.3094 131.276C45.9626 133.038 43.6151 133.133 41.7292 133.211C41.5597 133.218 41.3885 133.222 41.2172 133.222Z" fill="black"/>
<path d="M53.8577 5.17691C53.5818 3.73994 52.8318 2.36609 51.64 1.57999C50.4483 0.7939 48.795 0.698343 47.623 1.53492C46.8153 2.11006 46.3069 3.04941 46.022 4.0176C45.5749 5.53389 45.6326 7.23229 46.3393 8.63139C47.0443 10.0287 48.438 11.0744 49.9669 11.1682C53.4304 11.3827 54.404 8.04182 53.8577 5.17691Z" fill="black"/>
<path d="M73.1208 31.255C73.1514 29.0482 73.1947 26.7674 73.8654 24.694C74.4442 22.8983 75.4755 21.3189 75.7495 19.4204C76.047 17.3578 75.3547 15.3186 74.2909 13.9898C73.3029 12.7512 72.1472 11.9885 70.456 11.3214C67.7317 10.2469 63.392 8.53405 58.5871 9.74204C52.466 11.28 49.0188 16.6925 47.0139 19.8386C42.7589 26.5222 44.2175 28.6389 38.3704 41.0667C36.5062 45.0315 35.7453 46.079 34.5157 49.5064C33.937 51.1183 29.7505 62.7889 33.1923 65.4555C33.2374 65.4897 33.4159 65.7025 33.7296 65.7728C35.0638 66.0721 36.7352 63.2072 41.3616 62.4499C48.9953 61.1987 52.2046 68.5493 63.9401 68.9802C65.8512 69.0506 67.8525 69.0163 69.6339 67.8047C73.7897 64.9813 72.7512 57.2213 72.8215 52.2505C72.9207 45.2514 73.0198 38.2541 73.1208 31.255Z" fill="black"/>
<path d="M96.5015 146.72L83.1703 93.643L47.7854 100.844C36.7314 115.464 34.8581 134.482 34.8905 146.72H96.5015Z" fill="white"/>
<path d="M96.5014 146.895C96.4238 146.895 96.3517 146.843 96.3319 146.762C95.2212 142.354 94.0691 137.756 92.8972 133.068C89.5942 119.869 86.1794 106.22 82.9593 93.944C81.3582 94.2578 79.7554 94.5715 78.149 94.887C68.1966 96.8378 57.9053 98.8553 47.8808 101.003C39.589 111.905 35.2781 127.288 35.0653 146.722C35.0635 146.82 34.986 146.901 34.8886 146.895C34.7913 146.895 34.7137 146.816 34.7137 146.719C34.8147 137.529 35.8226 129.188 37.7103 121.93C39.8486 113.705 43.1895 106.574 47.641 100.738C47.6662 100.703 47.7023 100.68 47.7438 100.673C57.7917 98.5182 68.1065 96.497 78.0823 94.5426C79.7428 94.2163 81.3997 93.8918 83.053 93.5672C83.1414 93.5492 83.2333 93.6051 83.2568 93.6952C86.4895 106.017 89.9205 119.725 93.238 132.984C94.4117 137.67 95.562 142.267 96.6726 146.677C96.6961 146.771 96.6384 146.866 96.5446 146.89C96.5302 146.895 96.5158 146.895 96.5014 146.895Z" fill="black"/>
<path d="M69.4067 146.652C69.3147 146.652 69.2354 146.582 69.23 146.488C69.1633 145.375 69.0677 143.592 68.9776 141.867C68.8856 140.143 68.7919 138.358 68.7233 137.248C68.6783 136.521 68.6314 135.796 68.5827 135.072C68.489 133.64 68.3898 132.158 68.3213 130.701C68.1861 127.82 69.6897 125.2 72.1544 124.027C73.0072 123.621 73.8906 123.24 74.7452 122.874C75.1744 122.689 75.6017 122.507 76.0272 122.317C76.1173 122.278 76.2201 122.319 76.2597 122.407C76.2994 122.496 76.2579 122.6 76.1696 122.64C75.7423 122.828 75.3132 123.013 74.8841 123.197C74.0331 123.563 73.1514 123.94 72.304 124.344C69.9692 125.456 68.543 127.944 68.6729 130.685C68.7414 132.138 68.8387 133.617 68.9343 135.048C68.9812 135.773 69.0298 136.499 69.0749 137.226C69.1416 138.338 69.2372 140.123 69.3273 141.849C69.4193 143.572 69.513 145.356 69.5816 146.466C69.587 146.564 69.513 146.647 69.4175 146.652C69.4139 146.652 69.4103 146.652 69.4067 146.652Z" fill="black"/>
<path d="M56.2737 29.2447L51.0343 47.2365C51.0343 47.2365 61.0353 59.5651 68.5717 59.0783C76.1099 58.5933 74.7054 50.0599 69.0892 47.4096L63.6082 45.823L65.2435 31.7202L56.2737 29.2447Z" fill="white"/>
<path d="M72.1145 25.5162C72.4968 27.586 72.5058 29.7658 71.8062 31.7509C71.1067 33.736 69.6337 35.5065 67.6684 36.2565C65.9646 36.9092 64.0138 36.7523 62.3299 36.0492C60.6459 35.346 59.2143 34.129 58.0442 32.7299C56.2467 33.37 54.0561 32.6235 53.0212 31.0207C52.4226 30.0958 52.2134 28.8662 52.7002 27.8781C53.1888 26.8919 54.4725 26.3023 55.4678 26.7729C56.0339 27.0416 56.4378 27.5878 57.0165 27.8313C57.6602 28.1035 58.4282 27.943 59.0088 27.5536C59.5894 27.1624 60.0076 26.5728 60.3394 25.9562C61.3869 24.0198 61.6988 21.6958 61.1994 19.5502C61.2481 19.7522 62.3244 20.0587 62.5156 20.1236C62.9988 20.2858 63.4964 20.4066 63.9994 20.4842C64.9928 20.6392 66.0115 20.6302 67.0031 20.4571C67.5044 20.3688 68.0002 20.2408 68.4816 20.0695C68.862 19.9343 69.3578 19.5737 69.7653 19.5701C70.6145 19.5592 70.8687 21.1098 71.0724 21.7102C71.4997 22.9542 71.8784 24.2199 72.1145 25.5162Z" fill="white"/>
<path d="M58.0443 32.5549C58.0948 32.5549 58.1453 32.5766 58.1795 32.6162C59.4614 34.1524 60.8822 35.2522 62.3985 35.8868C64.1437 36.617 66.0423 36.6909 67.6054 36.0941C69.403 35.4054 70.9121 33.7611 71.6405 31.6931C72.2643 29.9208 72.3653 27.8546 71.9434 25.5468C71.7396 24.4344 71.4097 23.2336 70.9067 21.766C70.8706 21.6578 70.8327 21.5244 70.7895 21.3711C70.6092 20.7239 70.3351 19.7449 69.7726 19.7449C69.7708 19.7449 69.769 19.7449 69.7672 19.7449C69.5436 19.7467 69.2642 19.8891 68.9955 20.0261C68.8351 20.1073 68.6836 20.1848 68.5394 20.2371C68.0562 20.4084 67.5495 20.5418 67.0339 20.6301C66.017 20.8068 64.9857 20.8158 63.9725 20.659C63.455 20.5778 62.9466 20.4534 62.4598 20.2894C62.4327 20.2803 62.3895 20.2677 62.3336 20.2497C61.9441 20.1271 61.6611 20.0279 61.4609 19.9396C61.8341 22.0004 61.488 24.2 60.4927 26.0408C60.0726 26.8197 59.6327 27.3444 59.1081 27.6995C58.4265 28.1557 57.599 28.2693 56.9481 27.9934C56.6236 27.8564 56.3567 27.6364 56.0989 27.4237C55.8663 27.2326 55.6464 27.0505 55.3921 26.9315C54.5321 26.524 53.3241 27.0126 52.859 27.9574C52.4353 28.8138 52.5561 29.9785 53.1673 30.925C54.1553 32.454 56.2702 33.1733 57.9848 32.5639C58.0046 32.5567 58.0245 32.5549 58.0443 32.5549ZM65.3517 36.8442C64.3276 36.8442 63.2711 36.6332 62.2632 36.2113C60.7235 35.5695 59.2865 34.4661 57.9866 32.9335C56.1458 33.5231 53.9227 32.7406 52.8734 31.1162C52.1847 30.0506 52.0585 28.7813 52.5435 27.8023C53.0988 26.6755 54.5015 26.1219 55.5436 26.6124C55.8357 26.7512 56.0827 26.9549 56.3225 27.1514C56.5713 27.3588 56.8075 27.5535 57.0851 27.6707C57.6278 27.8997 58.3274 27.7987 58.9115 27.4075C59.3875 27.0865 59.7932 26.5997 60.1844 25.8731C61.2085 23.9782 61.5168 21.6885 61.0282 19.5898C61.0066 19.4942 61.0661 19.4005 61.1598 19.3789C61.2464 19.3572 61.3329 19.4059 61.3636 19.487C61.4213 19.5465 61.6593 19.6709 62.4381 19.9143C62.4976 19.9324 62.5445 19.9468 62.5716 19.9558C63.0403 20.1145 63.5289 20.2353 64.0265 20.311C65.0019 20.4624 65.9936 20.4534 66.9726 20.2839C67.4684 20.1974 67.957 20.0694 68.4222 19.9053C68.5448 19.8621 68.6872 19.7899 68.8351 19.7124C69.1416 19.5592 69.4571 19.3969 69.7636 19.3933C69.7672 19.3933 69.769 19.3933 69.7744 19.3933C70.602 19.3933 70.9193 20.5255 71.1284 21.2756C71.1699 21.4216 71.2041 21.5514 71.2402 21.6524C71.7486 23.1362 72.0804 24.3532 72.2877 25.4837C72.7222 27.851 72.6159 29.9803 71.9722 31.8085C71.2096 33.9721 69.6248 35.6975 67.7316 36.4205C66.9924 36.7035 66.1847 36.8442 65.3517 36.8442Z" fill="black"/>
<path d="M55.0062 29.3764C56.0105 29.3259 57.0147 29.9299 57.442 30.8386L55.0062 29.3764Z" fill="white"/>
<path d="M57.442 31.0152C57.3753 31.0152 57.3122 30.9773 57.2816 30.9142C56.8831 30.065 55.951 29.5025 55.0152 29.553C54.9197 29.5566 54.8367 29.4827 54.8313 29.3853C54.8259 29.2879 54.9016 29.2068 54.999 29.2014C56.0646 29.1491 57.1427 29.7892 57.6007 30.7646C57.6421 30.8529 57.6025 30.9575 57.5159 30.9972C57.4907 31.0098 57.4655 31.0152 57.442 31.0152Z" fill="black"/>
<path d="M42.6036 104.839C38.9166 102.917 36.5853 99.1474 34.8202 95.3828C30.6716 86.5338 28.6577 76.7257 28.6883 66.9518C28.7046 62.1054 29.3067 57.0067 32.1392 53.0744C35.2042 48.8176 40.4455 46.6072 45.6326 45.8265C47.7204 45.511 49.9381 45.4118 51.8654 46.2808C54.368 47.4095 55.8915 49.9192 57.7774 51.9151C59.9698 54.2373 62.8004 55.9501 65.8727 56.8174C67.8343 57.3709 70.2034 57.5097 71.4853 55.6274C72.0586 54.7854 72.2371 53.7415 72.1019 52.7318C71.8207 50.6115 70.4342 48.9763 69.0892 47.4095C71.671 46.993 74.3286 48.0243 76.3677 49.665C78.4051 51.3039 79.9142 53.4999 81.288 55.7266C85.4889 62.5291 88.7162 69.9033 91.2999 77.4703C92.214 80.1477 93.0596 82.9441 92.7693 85.7585C92.4394 88.9408 91.848 91.9806 89.5005 94.1531C88.7397 94.8563 88.0149 95.4855 87.3857 96.0138C86.1867 97.0199 84.6181 97.4418 83.0657 97.229C74.5323 96.0535 53.8884 102.748 52.1431 104.163C49.5126 106.296 45.5424 106.372 42.6036 104.839Z" fill="#1958DF"/>
<path d="M51.0344 78.7919C50.9604 78.7919 50.8901 78.7451 50.8667 78.6711L46.7884 65.8647C46.7595 65.7727 46.81 65.6736 46.902 65.6429C46.9957 65.6141 47.0949 65.6646 47.1237 65.7583L51.202 78.563C51.2309 78.6567 51.1804 78.7559 51.0885 78.7847C51.0704 78.7901 51.0524 78.7919 51.0344 78.7919Z" fill="black"/>
<path d="M79.855 73.8807C79.7703 73.8807 79.6946 73.8158 79.6819 73.7293C79.1717 70.1756 78.2937 66.6598 77.0749 63.2829C77.0406 63.1927 77.0893 63.0918 77.1794 63.0575C77.2714 63.0251 77.3723 63.0719 77.4048 63.1639C78.6326 66.5643 79.5161 70.1017 80.0299 73.6788C80.0425 73.7761 79.9776 73.8645 79.8803 73.8789C79.8712 73.8789 79.864 73.8807 79.855 73.8807Z" fill="black"/>
<path d="M52.4139 101.131C52.5564 101.598 52.7619 102.128 53.2253 102.281C53.5913 102.402 54.0366 102.319 54.3359 102.074C60.7581 96.8325 65.8803 93.4573 73.487 90.1831C74.4534 89.7666 72.9263 93.991 78.4271 90.2192C79.2961 89.6242 78.5695 87.8483 77.5328 87.6752C78.3911 87.5544 79.1231 86.8116 79.233 85.9516C79.3412 85.0916 78.8184 84.1901 78.0178 83.8583C78.849 84.0134 79.6225 83.184 79.6621 82.3402C79.7036 81.4946 79.2042 80.7122 78.6002 80.119C80.9008 81.2368 84.1263 84.493 85.9509 82.297C86.4377 80.0739 84.8835 78.8894 83.1581 77.4055C81.4345 75.9199 79.1844 75.1825 76.9487 74.7624C71.9743 73.8266 66.7944 74.2918 61.9336 75.6999C57.6552 76.9403 53.5841 78.8876 49.805 81.235C48.8765 81.8138 48.5664 81.9364 48.5538 83.0091C48.5376 84.1576 48.8747 85.4215 49.0532 86.5556C49.4264 88.9138 49.8772 91.2595 50.4072 93.5907C50.9842 96.1275 51.6531 98.6426 52.4139 101.131Z" fill="white"/>
<path d="M73.6239 90.2733C73.5482 90.2733 73.4797 90.2246 73.4562 90.1507C73.4274 90.0588 73.4779 89.9578 73.5698 89.9289L75.7694 89.2276C75.8614 89.1987 75.9605 89.2492 75.9894 89.3412C76.02 89.4331 75.9678 89.5323 75.8758 89.5629L73.6762 90.2643C73.6582 90.2697 73.6419 90.2733 73.6239 90.2733Z" fill="black"/>
<path d="M40.6798 86.9449C40.6293 86.9449 40.5788 86.9233 40.5445 86.88C40.4832 86.8043 40.4922 86.6943 40.568 86.633C42.773 84.8228 45.2016 83.2885 47.7852 82.0733C47.8718 82.0336 47.9764 82.0715 48.0178 82.158C48.0593 82.2464 48.0214 82.351 47.9349 82.3924C45.3783 83.595 42.9749 85.1113 40.7915 86.9052C40.7591 86.9323 40.7194 86.9449 40.6798 86.9449Z" fill="black"/>
<path d="M80.4354 92.2637C80.4697 93.7151 80.8844 95.2693 82.0292 96.1617C83.5023 97.3102 85.6135 96.9839 87.4093 96.4682C95.9247 94.018 103.605 89.2942 108.021 81.61C108.203 81.2927 109.824 77.4073 109.16 76.531C108.535 75.7071 106.986 77.2739 105.973 77.4866C101.588 78.4061 97.2607 79.6033 93.0237 81.0637C90.8475 81.8155 88.693 82.6359 86.5691 83.5265C84.9446 84.2063 83.5636 84.3902 82.4782 85.8632C81.1278 87.6968 80.3795 89.9848 80.4354 92.2637Z" fill="white"/>
<path d="M87.4094 96.6432C87.3318 96.6432 87.2615 96.5927 87.2399 96.517C87.2128 96.4232 87.2669 96.3258 87.3589 96.2988C96.7794 93.5907 103.87 88.4793 107.868 81.5217C108.129 81.0692 109.579 77.3767 109.02 76.6375C108.962 76.5599 108.976 76.45 109.054 76.3905C109.131 76.3328 109.241 76.349 109.299 76.4247C110.096 77.4758 108.196 81.6587 108.172 81.6984C104.128 88.7354 96.9651 93.9009 87.458 96.636C87.4418 96.6414 87.4238 96.6432 87.4094 96.6432Z" fill="black"/>
<path d="M113.698 69.0992H98.0413C97.7096 69.0992 97.3923 69.2543 97.1867 69.5157L84.566 85.5765C84.0053 86.2905 84.5137 87.338 85.4206 87.338H100.535C100.861 87.338 101.169 87.192 101.377 86.9396L114.54 70.877C115.123 70.1684 114.616 69.0992 113.698 69.0992Z" fill="black"/>
<path d="M107.043 71.1672C106.854 70.9941 106.587 70.8246 106.36 70.9472C106.165 71.0518 106.129 71.3133 106.117 71.5332C105.992 73.7094 105.868 75.8838 105.744 78.0581C105.769 76.1127 105.264 74.1006 104.005 72.6204C103.695 72.2544 103.147 71.91 102.781 72.2183C102.56 72.404 102.543 72.734 102.556 73.0225C102.664 75.4637 103.641 77.986 102.783 80.274C102.63 78.819 102.284 77.3856 101.757 76.0208C101.541 75.4619 101.274 74.8885 100.785 74.5406C100.299 74.1926 99.5287 74.171 99.1645 74.6469C98.7769 75.1518 99.0167 75.8711 99.2294 76.4697C99.8461 78.2078 100.109 80.0703 99.9939 81.9111C99.7577 80.4723 99.462 78.9218 98.3893 77.9355C98.0755 77.6471 97.6879 77.4145 97.2624 77.3784C96.8351 77.3424 96.3754 77.5443 96.1896 77.9301C95.9877 78.3538 96.1554 78.8514 96.2906 79.3004C96.8135 81.0348 96.8009 82.9189 96.2942 84.6552C95.9138 85.9569 94.2821 87.7094 96.0075 88.7263C96.5989 89.0743 97.3309 89.1013 98.0106 89.0039C99.9326 88.7281 101.604 87.567 103.104 86.3374C104.638 85.0825 106.095 83.7032 107.213 82.0661C108.333 80.429 109.102 78.5125 109.16 76.531C109.216 74.5496 108.504 72.5068 107.043 71.1672Z" fill="white"/>
<path d="M143.404 44.7268C138.487 44.7268 134.501 40.7404 134.501 35.8238C134.501 30.9071 138.487 26.9207 143.404 26.9207C148.321 26.9207 152.307 30.9071 152.307 35.8238C152.307 40.7404 148.321 44.7268 143.404 44.7268ZM163.092 31.0297C162.894 31.0297 162.701 31.0459 162.51 31.0693C162.032 29.1438 161.273 27.3318 160.278 25.6785C160.429 25.5595 160.577 25.4333 160.716 25.2944C162.588 23.4212 162.588 20.3868 160.716 18.5153C158.843 16.642 155.808 16.642 153.935 18.5153C153.796 18.6541 153.67 18.802 153.551 18.9534C151.896 17.9564 150.084 17.1973 148.16 16.7214C148.184 16.5302 148.198 16.3355 148.198 16.139C148.198 13.4922 146.053 11.3449 143.404 11.3449C140.755 11.3449 138.61 13.4922 138.61 16.139C138.61 16.3355 138.626 16.5302 138.648 16.7214C136.724 17.1973 134.91 17.9564 133.257 18.9534C133.138 18.802 133.012 18.6541 132.873 18.5153C131 16.642 127.965 16.642 126.092 18.5153C124.22 20.3868 124.22 23.4212 126.092 25.2944C126.231 25.4333 126.379 25.5595 126.53 25.6785C125.535 27.3318 124.776 29.1438 124.298 31.0693C124.107 31.0459 123.912 31.0297 123.716 31.0297C121.069 31.0297 118.922 33.177 118.922 35.8238C118.922 38.4705 121.069 40.6178 123.716 40.6178C123.912 40.6178 124.107 40.6016 124.298 40.5782C124.776 42.5037 125.535 44.3157 126.53 45.969C126.379 46.088 126.231 46.2142 126.092 46.3531C124.22 48.2264 124.22 51.2607 126.092 53.1322C127.965 55.0055 131 55.0055 132.873 53.1322C133.012 52.9934 133.138 52.8456 133.257 52.6941C134.91 53.6911 136.724 54.4502 138.648 54.9262C138.626 55.1173 138.61 55.312 138.61 55.5085C138.61 58.1571 140.755 60.3026 143.404 60.3026C146.053 60.3026 148.198 58.1571 148.198 55.5085C148.198 55.312 148.184 55.1173 148.16 54.9262C150.084 54.4502 151.896 53.6911 153.551 52.6941C153.67 52.8456 153.796 52.9934 153.935 53.1322C155.808 55.0055 158.843 55.0055 160.716 53.1322C162.588 51.2607 162.588 48.2264 160.716 46.3531C160.577 46.2142 160.429 46.088 160.278 45.969C161.273 44.3157 162.032 42.5037 162.51 40.5782C162.701 40.6016 162.894 40.6178 163.092 40.6178C165.739 40.6178 167.886 38.4705 167.886 35.8238C167.886 33.177 165.739 31.0297 163.092 31.0297Z" fill="#E2EAFF"/>
<mask id="mask0_28_1107" style="mask-type:luminance" maskUnits="userSpaceOnUse" x="143" y="8" width="77" height="140">
<path d="M143.391 8.12292H219.5V147.052H143.391V8.12292Z" fill="white"/>
</mask>
<g mask="url(#mask0_28_1107)">
<path d="M213.063 146.72H149.662C146.22 146.72 143.404 143.902 143.404 140.461V14.637C143.404 11.1934 146.22 8.37714 149.662 8.37714H213.063C216.505 8.37714 219.321 11.1934 219.321 14.637V140.461C219.321 143.902 216.505 146.72 213.063 146.72Z" fill="white"/>
</g>
<mask id="mask1_28_1107" style="mask-type:luminance" maskUnits="userSpaceOnUse" x="142" y="8" width="78" height="140">
<path d="M142.93 8.12292H219.5V147.052H142.93V8.12292Z" fill="white"/>
</mask>
<g mask="url(#mask1_28_1107)">
<path d="M149.662 8.55202C146.308 8.55202 143.579 11.2817 143.579 14.637V140.461C143.579 143.816 146.308 146.544 149.662 146.544H213.063C216.417 146.544 219.146 143.816 219.146 140.461V14.637C219.146 11.2817 216.417 8.55202 213.063 8.55202H149.662ZM213.063 146.895H149.662C146.116 146.895 143.229 144.009 143.229 140.461V14.637C143.229 11.087 146.116 8.20044 149.662 8.20044H213.063C216.611 8.20044 219.498 11.087 219.498 14.637V140.461C219.498 144.009 216.611 146.895 213.063 146.895Z" fill="black"/>
</g>
<path d="M210.855 142.328H151.871C149.262 142.328 147.129 140.194 147.129 137.585V17.1306C147.129 14.5217 149.262 12.387 151.871 12.387H210.855C213.464 12.387 215.596 14.5217 215.596 17.1306V137.585C215.596 140.194 213.464 142.328 210.855 142.328Z" fill="white"/>
<path d="M151.871 12.5618C149.352 12.5618 147.304 14.6118 147.304 17.1306V137.585C147.304 140.104 149.352 142.152 151.871 142.152H210.855C213.373 142.152 215.422 140.104 215.422 137.585V17.1306C215.422 14.6118 213.373 12.5618 210.855 12.5618H151.871ZM210.855 142.503H151.871C149.159 142.503 146.952 140.298 146.952 137.585V17.1306C146.952 14.4189 149.159 12.2103 151.871 12.2103H210.855C213.568 12.2103 215.773 14.4189 215.773 17.1306V137.585C215.773 140.298 213.568 142.503 210.855 142.503Z" fill="black"/>
<path d="M189.336 16.4761H174.249C174.152 16.4761 174.074 16.3985 174.074 16.3012C174.074 16.2038 174.152 16.1263 174.249 16.1263H189.336C189.434 16.1263 189.513 16.2038 189.513 16.3012C189.513 16.3985 189.434 16.4761 189.336 16.4761Z" fill="black"/>
<path d="M158.545 47.6962L157.552 38.9573C157.53 38.7715 157.523 38.584 157.527 38.3983C157.579 36.4656 159.001 34.6175 160.999 34.0009L180.963 26.0462C181.268 25.9525 181.578 25.8894 181.883 25.8605C182.646 25.7866 183.396 25.911 184.052 26.2319L204.059 36.013C205.348 36.6441 206.097 37.9386 206.059 39.3936C206.053 39.5901 206.034 39.7902 205.999 39.9904L202.653 59.5489C201.13 68.4447 196.42 76.9025 189.389 83.3679L184.229 88.1115C183.401 88.8723 182.395 89.3032 181.405 89.3988C180.866 89.4511 180.331 89.406 179.833 89.26C179.177 89.0689 178.583 88.7083 178.118 88.1764L168.429 79.1994C164.214 74.3891 160.965 68.9622 160.217 62.3742L159.595 56.9256L158.545 47.6962Z" fill="white"/>
<path d="M168.555 79.0768L178.237 88.0484C178.241 88.052 178.245 88.0574 178.25 88.061C178.675 88.5478 179.24 88.9048 179.88 89.0905C180.359 89.2293 180.866 89.2744 181.387 89.2239C182.375 89.1283 183.341 88.6866 184.11 87.9817L189.27 83.2381C196.272 76.7997 200.964 68.3762 202.48 59.5201L205.826 39.9597C205.859 39.7686 205.877 39.5775 205.882 39.39C205.92 37.9963 205.192 36.763 203.982 36.1699L183.976 26.3906C183.354 26.0859 182.637 25.9633 181.901 26.0354C181.605 26.0643 181.308 26.1238 181.016 26.2139L161.064 34.165C159.162 34.7527 157.752 36.5341 157.703 38.4037C157.698 38.5804 157.707 38.7589 157.727 38.9356L160.39 62.3543C161.05 68.1545 163.644 73.4678 168.555 79.0768ZM180.976 89.5953C180.565 89.5953 180.166 89.5394 179.782 89.4276C179.081 89.2239 178.461 88.8327 177.992 88.3008L168.31 79.3274C168.305 79.3238 168.301 79.3202 168.296 79.3148C163.332 73.6481 160.709 68.2717 160.042 62.394L157.377 38.9771C157.355 38.7842 157.346 38.5858 157.352 38.3929C157.406 36.379 158.919 34.4607 160.947 33.8332L180.898 25.8822C181.227 25.7812 181.548 25.7163 181.867 25.6856C182.667 25.6081 183.451 25.7415 184.129 26.0733L204.137 35.8544C205.471 36.507 206.275 37.8647 206.234 39.399C206.228 39.6027 206.208 39.8119 206.172 40.0192L202.826 59.5796C201.297 68.5133 196.566 77.007 189.508 83.4959L184.348 88.2395C183.524 88.9967 182.485 89.4709 181.421 89.5737C181.272 89.5881 181.124 89.5953 180.976 89.5953Z" fill="black"/>
<path d="M181.475 30.6132C182.168 30.5465 182.851 30.651 183.455 30.9287L198.854 37.9837C200.296 38.6418 201.057 40.1617 200.774 41.8024L197.543 60.418C196.501 66.5138 193.274 72.3121 188.454 76.742L184.293 80.5679C183.507 81.2909 182.552 81.6984 181.612 81.7903C180.431 81.9039 179.274 81.5199 178.495 80.631L170.937 74.0862C168.049 70.7868 165.624 67.2584 165.112 62.7438L162.778 41.6112C162.553 39.5991 163.974 37.56 166.049 36.9181L180.603 30.7899C180.893 30.6997 181.185 30.642 181.475 30.6132Z" fill="#1958DF"/>
<path d="M175.174 41.4201C175.138 43.1834 173.683 44.5843 171.92 44.5501C170.158 44.514 168.757 43.059 168.791 41.2957C168.826 39.5324 170.282 38.1315 172.044 38.1658C173.807 38.2018 175.208 39.6568 175.174 41.4201Z" fill="white"/>
<path d="M185.249 41.6185C185.215 43.38 183.758 44.7809 181.996 44.7466C180.233 44.7124 178.834 43.2556 178.868 41.4923C178.902 39.7308 180.359 38.3299 182.121 38.3641C183.884 38.3984 185.285 39.8552 185.249 41.6185Z" fill="white"/>
<path d="M195.326 41.815C195.292 43.5783 193.835 44.9792 192.073 44.9449C190.31 44.9089 188.911 43.4539 188.945 41.6906C188.979 39.9273 190.436 38.5264 192.198 38.5606C193.959 38.5967 195.36 40.0517 195.326 41.815Z" fill="white"/>
<path d="M174.979 51.3617C174.943 53.125 173.486 54.5259 171.725 54.4917C169.963 54.4574 168.562 53.0006 168.597 51.2373C168.631 49.474 170.088 48.0731 171.851 48.1074C173.613 48.1434 175.013 49.6002 174.979 51.3617Z" fill="white"/>
<path d="M185.054 51.56C185.02 53.3233 183.563 54.7224 181.802 54.6881C180.04 54.6538 178.639 53.1971 178.673 51.4356C178.708 49.6723 180.165 48.2714 181.926 48.3056C183.689 48.3399 185.09 49.7967 185.054 51.56Z" fill="white"/>
<path d="M195.131 51.7565C195.097 53.5198 193.64 54.9207 191.878 54.8865C190.115 54.8504 188.714 53.3954 188.75 51.6321C188.785 49.8706 190.241 48.4697 192.003 48.504C193.766 48.5382 195.165 49.995 195.131 51.7565Z" fill="white"/>
<path d="M174.783 61.3519C174.748 63.1134 173.292 64.5143 171.53 64.48C169.767 64.4457 168.366 62.989 168.402 61.2257C168.436 59.4642 169.893 58.0615 171.654 58.0957C173.418 58.1318 174.817 59.5886 174.783 61.3519Z" fill="white"/>
<path d="M184.86 61.5484C184.825 63.3099 183.368 64.7126 181.607 64.6765C179.844 64.6422 178.443 63.1855 178.479 61.424C178.513 59.6607 179.97 58.2598 181.731 58.294C183.493 58.3283 184.894 59.7851 184.86 61.5484Z" fill="white"/>
<path d="M184.663 71.5981C184.629 73.3614 183.172 74.7605 181.409 74.7262C179.647 74.692 178.246 73.2352 178.281 71.4719C178.315 69.7104 179.772 68.3095 181.535 68.3438C183.296 68.378 184.697 69.8348 184.663 71.5981Z" fill="white"/>
<path d="M194.936 61.7468C194.902 63.5083 193.445 64.9092 191.682 64.8749C189.92 64.8406 188.52 63.3839 188.554 61.6206C188.588 59.8591 190.045 58.4563 191.806 58.4906C193.57 58.5267 194.971 59.9835 194.936 61.7468Z" fill="white"/>
<path d="M181.472 71.7099C181.427 71.7099 181.38 71.6937 181.346 71.6576L171.465 61.4096C171.433 61.3771 171.415 61.332 171.417 61.2852L171.806 41.3534C171.808 41.2723 171.866 41.2038 171.945 41.1857C172.024 41.1695 172.105 41.2074 172.14 41.2813L181.78 61.3122L191.572 61.5051L191.761 51.8665L181.861 51.6736C181.764 51.6718 181.686 51.5906 181.688 51.4933L181.883 41.5517C181.885 41.5048 181.904 41.4616 181.937 41.4291C181.971 41.3967 182.018 41.3786 182.063 41.3804L192.138 41.577C192.235 41.5788 192.313 41.6599 192.311 41.7555C192.309 41.8528 192.23 41.9285 192.136 41.9285C192.134 41.9285 192.133 41.9285 192.131 41.9285L182.231 41.7338L182.043 51.3256L191.943 51.5203C191.99 51.5203 192.035 51.5401 192.068 51.5726C192.1 51.6069 192.116 51.6519 192.116 51.6988L191.92 61.6872C191.918 61.7828 191.841 61.8585 191.745 61.8585C191.743 61.8585 191.743 61.8585 191.741 61.8585L181.665 61.662C181.6 61.6602 181.538 61.6223 181.51 61.561L172.143 42.098L171.77 61.2185L181.598 71.4124C181.666 71.4827 181.663 71.5945 181.593 71.6612C181.56 71.6937 181.515 71.7099 181.472 71.7099Z" fill="white"/>
<path d="M190.593 41.7537C190.593 40.9009 191.284 40.2103 192.136 40.2103C192.987 40.2103 193.678 40.9009 193.678 41.7537C193.678 42.6047 192.987 43.2952 192.136 43.2952C191.284 43.2952 190.593 42.6047 190.593 41.7537Z" fill="#1958DF"/>
<path d="M180.516 41.5554C180.516 40.7026 181.207 40.012 182.059 40.012C182.91 40.012 183.601 40.7026 183.601 41.5554C183.601 42.4082 182.91 43.0987 182.059 43.0987C181.207 43.0987 180.516 42.4082 180.516 41.5554Z" fill="#1958DF"/>
<path d="M170.441 41.3588C170.441 40.506 171.132 39.8155 171.983 39.8155C172.834 39.8155 173.524 40.506 173.524 41.3588C173.524 42.2098 172.834 42.9004 171.983 42.9004C171.132 42.9004 170.441 42.2098 170.441 41.3588Z" fill="#1958DF"/>
<path d="M180.322 51.4969C180.322 50.6459 181.012 49.9553 181.865 49.9553C182.716 49.9553 183.406 50.6459 183.406 51.4969C183.406 52.3497 182.716 53.0402 181.865 53.0402C181.012 53.0402 180.322 52.3497 180.322 51.4969Z" fill="#1958DF"/>
<path d="M180.127 61.6837C180.127 60.8309 180.817 60.1403 181.668 60.1403C182.519 60.1403 183.21 60.8309 183.21 61.6837C183.21 62.5347 182.519 63.2252 181.668 63.2252C180.817 63.2252 180.127 62.5347 180.127 61.6837Z" fill="#1958DF"/>
<path d="M170.05 61.2888C170.05 60.436 170.74 59.7454 171.591 59.7454C172.444 59.7454 173.135 60.436 173.135 61.2888C173.135 62.1398 172.444 62.8303 171.591 62.8303C170.74 62.8303 170.05 62.1398 170.05 61.2888Z" fill="#1958DF"/>
<path d="M179.93 71.535C179.93 70.684 180.621 69.9917 181.472 69.9917C182.325 69.9917 183.015 70.684 183.015 71.535C183.015 72.386 182.325 73.0766 181.472 73.0766C180.621 73.0766 179.93 72.386 179.93 71.535Z" fill="#1958DF"/>
<path d="M190.203 61.6837C190.203 60.8309 190.894 60.1403 191.745 60.1403C192.596 60.1403 193.287 60.8309 193.287 61.6837C193.287 62.5347 192.596 63.2252 191.745 63.2252C190.894 63.2252 190.203 62.5347 190.203 61.6837Z" fill="#1958DF"/>
<path d="M190.398 51.7187C190.398 50.8659 191.089 50.1754 191.94 50.1754C192.793 50.1754 193.483 50.8659 193.483 51.7187C193.483 52.5697 192.793 53.2602 191.94 53.2602C191.089 53.2602 190.398 52.5697 190.398 51.7187Z" fill="#1958DF"/>
<path d="M170.247 51.3239C170.247 50.4711 170.935 49.7805 171.788 49.7805C172.639 49.7805 173.33 50.4711 173.33 51.3239C173.33 52.1749 172.639 52.8654 171.788 52.8654C170.935 52.8654 170.247 52.1749 170.247 51.3239Z" fill="#1958DF"/>
<path d="M156.958 117.21H205.768V113.119H156.958V117.21Z" fill="#E2EAFF"/>
<path d="M156.958 108.912H205.768V104.821H156.958V108.912Z" fill="#E2EAFF"/>
<path d="M147.277 76.6194L147.266 80.7698L151.926 80.7824L151.919 83.0632L149.644 83.0578L148.064 85.6559L151.912 85.6649L151.896 91.5245L149.107 91.5155L149.099 93.7368L151.889 93.7458L151.827 115.241L142.508 115.214L142.652 64.48C147.799 64.4945 151.961 68.6809 151.946 73.8302L151.937 76.6338L147.277 76.6194Z" fill="white"/>
<path d="M142.683 115.037L151.652 115.064L151.712 93.9207L149.099 93.9135C149.053 93.9135 149.009 93.8954 148.977 93.8612C148.943 93.8287 148.924 93.7837 148.924 93.7368L148.932 91.5155C148.932 91.42 149.011 91.3406 149.107 91.3406L151.719 91.3478L151.735 85.8416L148.064 85.8308C148.001 85.8308 147.942 85.7965 147.911 85.7406C147.881 85.6847 147.882 85.618 147.915 85.5639L149.492 82.9677C149.525 82.9136 149.583 82.8829 149.644 82.8829L151.744 82.8883L151.75 80.9592L147.266 80.9447C147.219 80.9447 147.174 80.9267 147.141 80.8943C147.109 80.86 147.091 80.8167 147.091 80.768L147.102 76.6194C147.102 76.5221 147.181 76.4445 147.277 76.4445C147.278 76.4445 147.278 76.4445 147.278 76.4445L151.762 76.4572L151.77 73.8284C151.784 68.8432 147.789 64.7667 142.827 64.6586L142.683 115.037ZM151.827 115.416L142.506 115.389C142.409 115.389 142.331 115.309 142.331 115.212L142.477 64.4801C142.477 64.4332 142.495 64.3881 142.528 64.3557C142.562 64.3232 142.605 64.3052 142.652 64.3052C147.89 64.3196 152.137 68.5926 152.121 73.8302L152.114 76.6338C152.114 76.7312 152.035 76.8087 151.937 76.8087L147.453 76.7961L147.442 80.595L151.926 80.6076C152.024 80.6076 152.101 80.6869 152.101 80.7843L152.096 83.065C152.096 83.1119 152.076 83.157 152.044 83.1894C152.011 83.2219 151.966 83.2399 151.919 83.2399L149.743 83.2345L148.376 85.4792L151.912 85.49C151.959 85.49 152.004 85.508 152.036 85.5423C152.071 85.5748 152.089 85.6198 152.089 85.6667L152.071 91.5245C152.071 91.5714 152.053 91.6165 152.02 91.6489C151.986 91.6832 151.941 91.7012 151.896 91.7012C151.896 91.7012 151.896 91.7012 151.894 91.7012L149.281 91.6922L149.276 93.5619L151.889 93.5691C151.986 93.5691 152.065 93.6484 152.063 93.7458L152.002 115.241C152.002 115.288 151.984 115.333 151.952 115.365C151.917 115.398 151.874 115.416 151.827 115.416Z" fill="black"/>
<path d="M165.045 128.776C165.074 118.877 157.076 110.832 147.179 110.804C137.284 110.775 129.24 118.775 129.211 128.673C129.182 138.569 137.182 146.616 147.076 146.645C156.973 146.674 165.016 138.672 165.045 128.776ZM147.107 140.008C149.37 140.008 151.203 138.174 151.203 135.912C151.203 133.649 149.37 131.815 147.107 131.815C144.846 131.815 143.011 133.649 143.011 135.912C143.011 138.174 144.846 140.008 147.107 140.008Z" fill="white"/>
<path d="M147.107 131.99C144.945 131.99 143.187 133.75 143.187 135.912C143.187 138.073 144.945 139.833 147.107 139.833C149.269 139.833 151.027 138.073 151.027 135.912C151.027 133.75 149.269 131.99 147.107 131.99ZM147.107 140.185C144.752 140.185 142.836 138.268 142.836 135.912C142.836 133.555 144.752 131.639 147.107 131.639C149.464 131.639 151.38 133.555 151.38 135.912C151.38 138.268 149.464 140.185 147.107 140.185ZM147.127 110.979C142.407 110.979 137.966 112.81 134.618 116.14C131.259 119.481 129.4 123.933 129.388 128.673C129.359 138.458 137.294 146.441 147.076 146.47C147.093 146.47 147.112 146.47 147.129 146.47C156.888 146.47 164.841 138.542 164.87 128.776C164.899 118.991 156.962 111.007 147.179 110.979C147.161 110.979 147.143 110.979 147.127 110.979ZM147.129 146.821C147.111 146.821 147.093 146.821 147.076 146.821C137.099 146.793 129.007 138.65 129.034 128.671C129.049 123.837 130.943 119.299 134.371 115.892C137.786 112.495 142.313 110.627 147.127 110.627C147.145 110.627 147.161 110.627 147.181 110.627C157.157 110.656 165.25 118.798 165.221 128.776C165.193 138.737 157.081 146.821 147.129 146.821Z" fill="black"/>
<path d="M105.581 64.6567C105.484 64.6567 105.405 64.5774 105.405 64.48V19.7251H80.4335C80.3362 19.7251 80.2568 19.6475 80.2568 19.5502C80.2568 19.4528 80.3362 19.3735 80.4335 19.3735H105.581C105.677 19.3735 105.756 19.4528 105.756 19.5502V64.48C105.756 64.5774 105.677 64.6567 105.581 64.6567Z" fill="black"/>
<path d="M126.573 128.9H122.12C122.023 128.9 121.943 128.821 121.943 128.725V70.1684H117.667C117.571 70.1684 117.492 70.0891 117.492 69.9917C117.492 69.8962 117.571 69.8168 117.667 69.8168H122.12C122.217 69.8168 122.297 69.8962 122.297 69.9917V128.548H126.573C126.671 128.548 126.748 128.628 126.748 128.725C126.748 128.821 126.671 128.9 126.573 128.9Z" fill="black"/>
</svg>
