<svg width="341" height="212" viewBox="0 0 341 212" fill="none" xmlns="http://www.w3.org/2000/svg">
<path fill-rule="evenodd" clip-rule="evenodd" d="M278.174 20.8576H58.4444C55.036 20.8576 51.9316 22.2578 49.678 24.5011C47.4245 26.7547 46.0243 29.8591 46.0243 33.2752V164.406C46.0243 167.814 47.4245 170.919 49.678 173.172C51.9316 175.423 55.036 176.824 58.4444 176.824H278.174C281.593 176.824 284.697 175.423 286.951 173.172C289.205 170.919 290.597 167.814 290.597 164.406V33.2752C290.597 29.8591 289.205 26.7547 286.951 24.5011C284.697 22.2578 281.593 20.8576 278.174 20.8576Z" fill="white" stroke="#373435" stroke-width="0.481558" stroke-miterlimit="2.613"/>
<path fill-rule="evenodd" clip-rule="evenodd" d="M68.5879 164.247H268.041C270.9 164.247 273.501 163.075 275.382 161.194C277.272 159.311 278.437 156.713 278.437 153.853V43.8275C278.437 40.9684 277.272 38.3699 275.382 36.4792C273.501 34.5987 270.9 33.4259 268.041 33.4259H68.5879C65.7262 33.4259 63.1277 34.5987 61.237 36.4792C59.3564 38.3699 58.1837 40.9684 58.1837 43.8275V153.853C58.1837 156.713 59.3564 159.311 61.237 161.194C63.1277 163.075 65.7262 164.247 68.5879 164.247Z" fill="white" stroke="#373435" stroke-width="0.481558" stroke-miterlimit="2.613"/>
<path d="M58.4444 20.5459H278.174C281.677 20.5459 284.866 21.9793 287.171 24.2814C289.483 26.5937 290.909 29.7747 290.909 33.2752V164.406C290.909 167.909 289.483 171.087 287.171 173.392C284.866 175.702 281.677 177.128 278.174 177.128H58.4444C54.9439 177.128 51.7629 175.702 49.4582 173.392C47.1459 171.087 45.7125 167.909 45.7125 164.406V33.2752C45.7125 29.7747 47.1459 26.5937 49.4582 24.2814C51.7629 21.9793 54.9439 20.5459 58.4444 20.5459ZM278.174 20.8576H58.4444C55.0359 20.8576 51.9315 22.2578 49.678 24.5011C47.4244 26.7547 46.0242 29.8591 46.0242 33.2752V164.406C46.0242 167.814 47.4244 170.919 49.678 173.172C51.9315 175.423 55.0359 176.823 58.4444 176.823H278.174C281.593 176.823 284.697 175.423 286.951 173.172C289.204 170.919 290.597 167.814 290.597 164.406V33.2752C290.597 29.8591 289.204 26.7547 286.951 24.5011C284.697 22.2578 281.593 20.8576 278.174 20.8576Z" fill="black"/>
<path d="M68.5879 33.1142H268.041C270.984 33.1142 273.659 34.3202 275.601 36.262C277.543 38.2013 278.749 40.8841 278.749 43.8276V153.853C278.749 156.797 277.543 159.472 275.601 161.411C273.659 163.353 270.984 164.559 268.041 164.559H68.5879C65.642 164.559 62.9592 163.353 61.0199 161.411C59.078 159.472 57.8797 156.797 57.8797 153.853V43.8276C57.8797 40.8841 59.078 38.2013 61.0199 36.262C62.9592 34.3202 65.642 33.1142 68.5879 33.1142ZM268.041 33.4259H68.5879C65.7263 33.4259 63.1278 34.5987 61.237 36.4792C59.3565 38.37 58.1838 40.9684 58.1838 43.8276V153.853C58.1838 156.713 59.3565 159.311 61.237 161.194C63.1278 163.075 65.7263 164.247 68.5879 164.247H268.041C270.9 164.247 273.501 163.075 275.382 161.194C277.272 159.311 278.437 156.713 278.437 153.853V43.8276C278.437 40.9684 277.272 38.37 275.382 36.4792C273.501 34.5987 270.9 33.4259 268.041 33.4259Z" fill="black"/>
<path fill-rule="evenodd" clip-rule="evenodd" d="M165.665 140.585C135.699 126.203 122.012 100.913 124.61 64.7152C137.725 63.6088 151.413 59.5693 165.665 52.5837C179.917 59.5693 193.604 63.6088 206.727 64.7152C209.318 100.913 195.638 126.203 165.665 140.585Z" fill="#1958DF"/>
<path fill-rule="evenodd" clip-rule="evenodd" d="M165.79 81.0369C168.575 81.0369 170.847 83.3058 170.847 86.0908V90.6797H160.491V86.0908C160.491 83.3058 162.762 81.0369 165.537 81.0369H165.79ZM173.833 90.6797V85.7791C173.833 81.8059 170.576 78.5482 166.603 78.5482H164.737C160.754 78.5482 157.504 81.8059 157.504 85.7791V90.6797H156.957C155.843 90.6797 154.939 91.5816 154.939 92.6956V105.755C154.939 106.869 155.843 107.778 156.957 107.778H174.372C175.486 107.778 176.399 106.869 176.399 105.755V92.6956C176.399 91.5816 175.486 90.6797 174.372 90.6797H173.833ZM165.665 95.961C166.746 95.961 167.614 96.8297 167.614 97.9079C167.614 98.608 167.234 99.234 166.669 99.5713L167.2 102.338H164.137L164.661 99.5713C164.104 99.234 163.723 98.608 163.723 97.9079C163.723 96.8297 164.592 95.961 165.665 95.961Z" fill="white"/>
<path fill-rule="evenodd" clip-rule="evenodd" d="M194.652 203.238C194.652 203.238 205.823 203.371 228.169 203.641C226.077 207.395 225.029 209.275 225.029 209.275C223.274 211.133 221.434 211.925 219.52 211.664C202.128 211.462 193.428 211.353 193.428 211.353C191.604 210.525 191.226 209.311 192.289 207.717C193.091 206.189 193.883 204.697 194.652 203.238Z" fill="white"/>
<path d="M194.744 203.388L227.906 203.792L224.904 209.183C224.043 210.085 223.164 210.737 222.27 211.123C221.383 211.511 220.473 211.639 219.543 211.511L193.469 211.199C192.618 210.803 192.102 210.33 191.926 209.773C191.747 209.216 191.918 208.56 192.414 207.801L194.744 203.388ZM228.169 203.491L194.557 203.077L192.153 207.64C191.596 208.475 191.42 209.216 191.629 209.868C191.831 210.517 192.414 211.064 193.369 211.496L193.428 211.511L219.51 211.823C220.489 211.95 221.452 211.815 222.397 211.411C223.333 210.997 224.245 210.323 225.139 209.385L225.165 209.352L228.43 203.491H228.169Z" fill="black"/>
<path fill-rule="evenodd" clip-rule="evenodd" d="M239.687 193.163C239.687 193.163 245.104 184.315 255.94 166.616C257.923 168.599 258.919 169.588 258.919 169.588C260.529 171.468 260.598 173.755 259.129 176.445C251.165 191.334 247.171 198.782 247.171 198.782C245.73 201.413 244.177 201.549 242.498 199.196C241.443 196.909 240.505 194.903 239.687 193.163Z" fill="white"/>
<path d="M239.864 193.173L255.973 166.871L258.809 169.687C259.586 170.599 259.99 171.611 260.023 172.715C260.059 173.829 259.711 175.053 258.993 176.369L247.038 198.707C245.679 201.186 244.21 201.321 242.633 199.119C242.092 197.946 241.593 196.876 241.146 195.905C240.699 194.962 240.278 194.05 239.864 193.173ZM255.805 166.542L239.511 193.155L239.544 193.232C239.94 194.068 240.38 195.003 240.86 196.04C241.351 197.077 241.846 198.15 242.355 199.262L242.37 199.287C244.143 201.776 245.789 201.633 247.317 198.858L259.264 176.519C260.015 175.145 260.371 173.88 260.337 172.707C260.302 171.527 259.865 170.456 259.037 169.485C258.066 168.44 256.937 167.385 255.907 166.373L255.805 166.542Z" fill="black"/>
<path fill-rule="evenodd" clip-rule="evenodd" d="M271.904 79.1052C272.42 78.9213 272.934 78.3387 273.465 77.3346C274.521 78.6658 276.462 78.8012 279.288 77.7485C280.328 82.2684 281.82 83.896 283.752 82.6312C284.672 82.4549 285.602 82.8688 286.075 83.6686C286.555 84.4709 286.478 85.4827 285.888 86.2083C285.305 86.9263 284.327 87.2048 283.44 86.8905C283.44 86.8905 283.964 89.8033 285.001 95.6237C277.847 101.603 274.868 101.771 276.066 96.1449C276.429 94.2644 276.327 92.0798 275.752 89.5989C272.344 88.7301 271.061 85.2374 271.904 79.1052Z" fill="white"/>
<path fill-rule="evenodd" clip-rule="evenodd" d="M276.066 96.1449C274.868 101.771 277.847 101.603 285.001 95.6237C287.153 95.3452 289.508 95.3452 292.074 95.6237C314.806 106.529 318.603 128.548 306.722 142.381C300.799 144.734 291.448 142.652 278.665 136.132C278.8 135.541 278.343 134.714 277.313 133.651C277.313 133.651 276.833 133.651 275.88 133.651C275.103 133.651 274.007 133.651 272.589 133.651C271.603 133.651 270.445 133.651 269.137 133.651C268.565 133.651 267.964 133.651 267.331 133.651C267.331 133.372 267.331 132.023 267.331 129.601C267.331 129.601 267.264 126.1 267.121 119.107C264.091 119.774 260.624 120.272 256.725 120.599C256.175 118.154 255.559 115.372 254.859 112.249C254.405 110.875 253.745 109.937 252.884 109.441C252.884 109.441 247.687 109.475 237.291 109.549C237.291 109.549 234.11 106.495 227.73 100.407C225.872 100.558 224.556 99.6224 223.78 97.5962C223.189 96.6866 223.223 95.7821 223.882 94.8981C223.578 94.129 223.966 93.5055 225.029 93.0252C224.758 92.0875 225.308 91.252 226.692 90.5263C226.692 90.5263 225.898 89.7343 224.303 88.1399C221.603 84.7059 222.438 84.0493 226.792 86.1674C226.792 86.1674 236.565 92.8566 256.109 106.217C260.928 99.8983 267.576 96.5333 276.066 96.1449Z" fill="white"/>
<path fill-rule="evenodd" clip-rule="evenodd" d="M229.603 137.085C229.603 137.085 245.5 137.085 277.313 137.085C278.115 136.906 278.563 136.586 278.665 136.132C291.448 142.652 300.799 144.734 306.722 142.381C304.351 155.55 296.387 162.829 282.817 164.204C267.744 164.247 257.897 164.281 253.265 164.299C251.206 164.299 250.184 164.306 250.184 164.306C245.012 173.576 240.633 181.423 237.063 187.833C233.139 194.86 230.177 200.174 228.169 203.769C205.823 203.498 194.652 203.355 194.652 203.355C210.675 172.96 218.692 157.76 218.692 157.76C208.424 137.826 210.516 126.683 224.97 124.355C225.663 127.197 226.48 130.539 227.418 134.376C227.653 135.692 228.389 136.586 229.603 137.085Z" fill="#1958DF"/>
<path fill-rule="evenodd" clip-rule="evenodd" d="M259.645 133.651C259.645 133.651 259.264 131.98 258.521 128.64C258.521 128.64 261.459 128.959 267.331 129.601C267.331 132.023 267.331 133.372 267.331 133.651C265.128 133.651 262.573 133.651 259.645 133.651Z" fill="#1958DF"/>
<path fill-rule="evenodd" clip-rule="evenodd" d="M250.184 164.306C250.184 164.306 251.206 164.298 253.265 164.298C254.43 165.453 255.424 166.44 256.244 167.257C245.408 184.956 239.991 193.804 239.991 193.804C238.742 191.173 237.763 189.182 237.063 187.833C240.633 181.422 245.012 173.576 250.184 164.306Z" fill="#1958DF"/>
<path d="M300.876 129.036C299.338 123.916 298.091 119.646 297.12 116.223C296.149 112.799 295.467 110.216 295.053 108.471L294.749 108.547C295.163 110.285 295.845 112.873 296.824 116.307C297.795 119.741 299.044 124.018 300.572 129.128L300.876 129.036Z" fill="black"/>
<path d="M267.231 119.1L266.784 110.165L266.579 110.175L267.019 119.107L267.231 119.1Z" fill="black"/>
<path d="M224.937 93.1504C228.8 96.1551 230.776 96.6355 230.878 94.594L230.566 94.5761C230.489 96.2215 228.675 95.6645 225.121 92.8974L224.937 93.1504Z" fill="black"/>
<path d="M223.797 95.0233C225.486 96.1961 226.784 96.9294 227.686 97.2334C228.118 97.3765 228.473 97.4199 228.741 97.3688C229.046 97.3177 229.247 97.1491 229.35 96.8629C229.419 96.6943 229.434 96.4822 229.419 96.2395L229.115 96.2548C229.122 96.4669 229.104 96.6253 229.063 96.7607C228.994 96.9294 228.877 97.0316 228.683 97.0648C228.473 97.1082 228.169 97.0648 227.788 96.9396C226.912 96.6432 225.637 95.9252 223.974 94.7703L223.797 95.0233Z" fill="black"/>
<path d="M223.435 97.2257C224.784 98.1021 225.849 98.6335 226.616 98.8277C227.459 99.0398 227.975 98.8533 228.169 98.2707L227.873 98.1711C227.737 98.5671 227.341 98.6846 226.692 98.5237C225.957 98.3397 224.929 97.8236 223.603 96.9651L223.435 97.2257Z" fill="black"/>
<path d="M232.75 90.8048C231.486 90.3092 230.397 90.1891 229.477 90.442C228.558 90.695 227.814 91.321 227.257 92.3251L227.239 92.4094C227.283 93.5387 227.965 93.8939 229.309 93.4876L230.254 93.2015C230.65 93.6563 231.003 93.9782 231.307 94.1724C231.67 94.3921 231.984 94.433 232.244 94.3078L232.109 94.0293C231.948 94.1034 231.739 94.0625 231.468 93.9016C231.174 93.7253 230.826 93.3957 230.423 92.923L230.354 92.8463C230.083 92.9306 229.419 93.0839 229.214 93.1836C228.151 93.5132 227.594 93.2602 227.553 92.4426C228.059 91.5305 228.734 90.9658 229.562 90.7384C230.413 90.5033 231.435 90.6209 232.641 91.0936L232.75 90.8048Z" fill="black"/>
<path d="M272.05 79.2151C272.303 79.1052 272.546 78.911 272.801 78.6325C273.028 78.3642 273.264 78.027 273.491 77.6028C274.04 78.1956 274.774 78.5227 275.704 78.5916C276.657 78.6581 277.812 78.4486 279.171 77.958C279.592 79.7286 280.091 81.0445 280.655 81.9158C280.985 82.4217 281.34 82.7743 281.718 82.9863C282.117 83.1959 282.531 83.2546 282.968 83.155C283.246 83.086 283.525 82.9685 283.813 82.7845C284.235 82.7078 284.649 82.7666 285.019 82.9276C285.398 83.0962 285.719 83.3824 285.947 83.7529C286.167 84.1259 286.259 84.5475 286.233 84.9588C286.2 85.3728 286.049 85.7688 285.771 86.1061C285.5 86.4433 285.129 86.6733 284.733 86.7908C284.335 86.9007 283.905 86.8905 283.491 86.7474L283.246 86.6554L284.833 95.5623C281.997 97.9258 279.83 99.3668 278.328 99.8753C277.679 100.092 277.163 100.144 276.792 100.008C276.429 99.8829 276.184 99.5865 276.066 99.1139C275.888 98.4572 275.939 97.4786 276.217 96.1704C276.404 95.2174 276.47 94.1979 276.419 93.0916C276.37 91.9878 276.192 90.815 275.905 89.5579L275.88 89.4634L275.788 89.4481C274.142 89.0265 273.003 87.9713 272.377 86.2747C271.753 84.5628 271.644 82.2096 272.05 79.2151ZM272.563 78.423C272.318 78.7015 272.083 78.8778 271.856 78.9545L271.761 78.9877L271.753 79.0797C271.332 82.1764 271.442 84.6062 272.091 86.3769C272.74 88.1476 273.915 89.2616 275.619 89.7266C275.898 90.9249 276.056 92.0542 276.107 93.1095C276.158 94.18 276.092 95.1842 275.913 96.1117C275.627 97.4607 275.576 98.4904 275.762 99.1905C275.913 99.7731 276.225 100.144 276.682 100.305C277.129 100.455 277.712 100.414 278.427 100.169C279.973 99.6376 282.201 98.1608 285.104 95.7412L285.17 95.6824L283.642 87.1102C284.031 87.2047 284.437 87.1945 284.818 87.0847C285.28 86.9595 285.694 86.6886 286.016 86.3002C286.328 85.9221 286.504 85.4571 286.537 84.9767C286.573 84.504 286.471 84.0237 286.207 83.5944C285.955 83.1626 285.576 82.833 285.145 82.6389C284.708 82.4472 284.217 82.3859 283.726 82.4804L283.668 82.506C283.407 82.6746 283.146 82.7922 282.901 82.8509C282.538 82.9352 282.191 82.8841 281.864 82.7155C281.534 82.5315 281.212 82.2096 280.918 81.7471C280.351 80.8861 279.856 79.537 279.442 77.7127L279.398 77.5441L279.23 77.6028C277.837 78.1266 276.672 78.3464 275.719 78.2799C274.799 78.2109 274.084 77.866 273.585 77.24L273.442 77.0484L273.333 77.2656C273.069 77.7561 272.816 78.1343 272.563 78.423Z" fill="black"/>
<path d="M275.872 96.3059C275.619 97.563 275.583 98.5237 275.762 99.1905C275.913 99.7731 276.225 100.144 276.682 100.305C277.129 100.455 277.712 100.414 278.427 100.169C279.973 99.6453 282.183 98.1787 285.07 95.7744C287.178 95.5036 289.501 95.5036 292.03 95.7744C295.845 97.6039 299.121 99.7552 301.88 102.119C307.568 107.001 311.035 112.822 312.435 118.778C313.835 124.726 313.171 130.817 310.562 136.241C309.55 138.367 308.232 140.383 306.63 142.246C303.702 143.403 299.93 143.462 295.306 142.432C290.663 141.403 285.17 139.269 278.833 136.047C278.867 135.743 278.775 135.388 278.563 134.992C278.327 134.57 277.947 134.09 277.423 133.541L277.374 133.5H267.491C267.491 128.622 267.374 123.788 267.272 118.913L267.095 118.956C265.585 119.284 263.965 119.58 262.225 119.825C260.539 120.068 258.751 120.272 256.852 120.431L255.013 112.198C254.775 111.498 254.489 110.908 254.152 110.428C253.814 109.937 253.416 109.567 252.961 109.306L252.884 109.288L237.357 109.39L227.788 100.246H227.722C226.828 100.322 226.066 100.136 225.443 99.6888C224.809 99.2416 224.303 98.5237 223.925 97.5374L223.915 97.5119C223.636 97.0826 223.501 96.661 223.519 96.2471C223.537 95.8255 223.705 95.4039 224.009 94.99L224.058 94.9134L224.032 94.8393C223.9 94.4995 223.915 94.198 224.076 93.9348C224.252 93.6486 224.589 93.3957 225.088 93.1683L225.215 93.1095L225.182 92.9818C225.055 92.5602 225.124 92.1641 225.366 91.7834C225.629 91.3874 226.102 91.0169 226.769 90.672L226.953 90.5698L224.413 88.0377C223.138 86.4101 222.666 85.4571 222.995 85.1965C223.358 84.9103 224.6 85.2808 226.718 86.3003L256.142 106.429L256.226 106.319C258.623 103.171 261.474 100.77 264.775 99.0986C268.033 97.4531 271.728 96.5256 275.872 96.3059ZM276.066 99.1139C275.887 98.4572 275.938 97.4787 276.217 96.1705L276.26 95.9763L276.056 95.9865C271.787 96.1884 267.982 97.1337 264.64 98.8201C261.331 100.491 258.48 102.885 256.075 106.007L226.886 86.0397L226.861 86.032C224.625 84.9435 223.274 84.5807 222.801 84.9512C222.313 85.3472 222.768 86.4434 224.178 88.2421L224.193 88.2498L226.429 90.4931C225.813 90.8406 225.376 91.2111 225.113 91.6148C224.835 92.0287 224.743 92.4682 224.845 92.9409C224.347 93.1759 223.999 93.4544 223.815 93.7764C223.603 94.1034 223.57 94.4765 223.713 94.8725C223.391 95.3196 223.233 95.7744 223.207 96.2292C223.189 96.7096 223.332 97.1925 223.647 97.6652C224.043 98.7025 224.582 99.4614 225.256 99.9417C225.933 100.422 226.743 100.634 227.671 100.565L237.188 109.659L237.291 109.702L252.843 109.6C253.239 109.837 253.595 110.165 253.899 110.604C254.218 111.059 254.489 111.626 254.709 112.29L256.607 120.76L256.742 120.753C258.689 120.592 260.539 120.382 262.277 120.137C263.94 119.892 265.501 119.613 266.978 119.301L267.18 129.601V133.812H277.247C277.727 134.31 278.075 134.757 278.294 135.143C278.496 135.523 278.573 135.843 278.511 136.096L278.488 136.216L278.596 136.275C284.994 139.537 290.546 141.689 295.237 142.736C299.938 143.781 303.794 143.715 306.781 142.524L306.839 142.483C308.477 140.585 309.811 138.536 310.848 136.374C313.483 130.891 314.157 124.726 312.739 118.704C311.331 112.689 307.821 106.807 302.082 101.881C299.297 99.4946 295.988 97.3279 292.14 95.478L292.089 95.4704C289.508 95.1919 287.145 95.1919 284.986 95.4704L284.902 95.5036C282.032 97.9002 279.838 99.3592 278.327 99.8753C277.676 100.092 277.162 100.144 276.792 100.008C276.429 99.883 276.184 99.5866 276.066 99.1139Z" fill="black"/>
<path d="M270.218 133.676C270.808 130.25 273.626 128.167 278.665 127.416C283.752 126.65 291.103 127.255 300.689 129.23L300.756 128.926C291.121 126.944 283.744 126.338 278.614 127.105C273.432 127.881 270.53 130.048 269.906 133.625L270.218 133.676Z" fill="black"/>
<path d="M274.209 133.684C274.436 133.042 274.784 132.411 275.264 131.778C275.744 131.136 276.352 130.513 277.096 129.887L276.961 129.729C276.209 130.36 275.583 131.001 275.095 131.653C274.605 132.302 274.242 132.958 274.015 133.617L274.209 133.684Z" fill="black"/>
<path d="M276.943 133.684C277.137 133.053 277.441 132.544 277.862 132.166C278.276 131.778 278.816 131.507 279.467 131.364L279.424 131.162C278.731 131.313 278.167 131.601 277.719 132.013C277.272 132.419 276.95 132.958 276.748 133.625L276.943 133.684Z" fill="black"/>
<path d="M218.836 157.811C221.14 151.712 223.207 146.945 225.021 143.503C226.828 140.079 228.379 137.986 229.679 137.22L229.526 136.949C228.169 137.751 226.582 139.885 224.743 143.36C222.929 146.809 220.851 151.592 218.539 157.701L218.836 157.811Z" fill="black"/>
<path d="M253.265 164.138L250.092 164.153L236.818 187.951L237.089 188.104L250.278 164.457L253.265 164.449V164.138Z" fill="black"/>
<path fill-rule="evenodd" clip-rule="evenodd" d="M258.521 128.64C259.264 131.98 259.645 133.651 259.645 133.651C262.573 133.651 265.128 133.651 267.331 133.651C267.964 133.651 268.565 133.651 269.137 133.651C270.445 133.651 271.603 133.651 272.589 133.651C274.007 133.651 275.103 133.651 275.88 133.651C276.833 133.651 277.313 133.651 277.313 133.651C278.343 134.714 278.8 135.541 278.665 136.132C278.563 136.586 278.115 136.906 277.313 137.085C245.5 137.085 229.603 137.085 229.603 137.085C228.389 136.586 227.653 135.692 227.418 134.376C226.48 130.539 225.663 127.197 224.97 124.355C222.995 116.281 222.017 112.25 222.017 112.25C221.756 110.637 222.413 109.769 223.992 109.651C232.86 109.585 237.291 109.549 237.291 109.549C247.687 109.475 252.884 109.441 252.884 109.441C253.745 109.937 254.405 110.875 254.859 112.25C255.559 115.372 256.175 118.154 256.725 120.599C257.468 123.908 258.066 126.591 258.521 128.64Z" fill="#010101"/>
<path fill-rule="evenodd" clip-rule="evenodd" d="M312.174 116.644C337.886 169.427 317.499 194.522 251.011 191.931L259.264 176.519C260.015 175.145 260.371 173.88 260.337 172.707C260.302 171.527 259.865 170.456 259.037 169.485C258.066 168.44 256.937 167.385 255.907 166.373L255.805 166.542L255.695 166.718C254.995 166.018 254.177 165.208 253.265 164.299C257.897 164.281 267.745 164.247 282.817 164.204C296.318 162.829 304.274 155.616 306.696 142.558C306.722 142.55 306.755 142.535 306.781 142.524L306.839 142.483C308.477 140.585 309.811 138.536 310.848 136.374C313.483 130.891 314.157 124.726 312.739 118.704C312.578 118.011 312.394 117.326 312.174 116.644Z" fill="#E2EAFF"/>
<path fill-rule="evenodd" clip-rule="evenodd" d="M237.148 187.994C237.477 188.635 237.866 189.402 238.313 190.314C237.493 190.179 236.69 190.043 235.898 189.908C236.243 189.292 236.591 188.669 236.953 188.027L237.089 188.104L237.148 187.994Z" fill="#E2EAFF"/>
<path fill-rule="evenodd" clip-rule="evenodd" d="M218.692 157.76C218.692 157.76 215.08 164.6 207.867 178.293C203.444 172.311 206.633 164.618 217.417 155.213C217.788 155.989 218.187 156.774 218.59 157.574C218.575 157.617 218.557 157.658 218.539 157.701L218.692 157.76Z" fill="#E2EAFF"/>
<path d="M315.118 144.566C315.667 154.546 314.098 162.61 310.427 168.742C306.755 174.876 300.976 179.092 293.093 181.405L293.178 181.701C301.144 179.371 306.985 175.104 310.69 168.903C314.402 162.712 315.979 154.597 315.432 144.558L315.118 144.566Z" fill="black"/>
<path d="M290.183 182.232C286.925 183.142 283.898 183.852 281.113 184.374C278.335 184.89 275.788 185.217 273.483 185.345L273.501 185.656C275.821 185.531 278.379 185.201 281.171 184.678C283.964 184.164 286.994 183.446 290.267 182.534L290.183 182.232Z" fill="black"/>
<path fill-rule="evenodd" clip-rule="evenodd" d="M284.833 95.5624L283.44 86.8905C283.836 86.985 284.393 87.0438 284.774 86.9339C285.239 86.8062 285.653 86.5379 285.972 86.1572C286.284 85.7688 286.361 85.4315 286.394 84.9589C286.427 84.4785 286.327 83.9982 286.064 83.5689C285.811 83.1371 285.433 82.8177 285.001 82.6235C284.562 82.4294 284.184 82.5903 283.693 82.6823L283.634 82.7079C283.374 82.8842 283.111 82.994 282.868 83.0528C282.505 83.1371 282.081 83.0962 281.754 82.9174C281.417 82.7411 281.102 82.4115 280.798 81.9567C280.241 81.0879 279.746 79.7465 279.324 77.9248L279.288 77.7485L279.12 77.8149C277.727 78.3285 276.749 78.4741 275.796 78.4051C274.876 78.3387 274.158 77.9912 273.659 77.3601L273.516 77.1736L273.399 77.3857C273.146 77.8737 272.893 78.2621 272.64 78.5482C272.395 78.8191 272.16 78.9954 271.93 79.0797L271.838 79.1129L271.83 79.2074C271.046 79.2151 270.581 79.1052 270.581 79.1052C271.71 74.0769 276.411 70.694 281.534 71.2254C286.657 71.7569 290.571 76.034 290.638 81.1799C290.242 85.1786 290.554 88.3341 291.576 90.6362C293.533 92.6777 294.529 94.8802 294.562 96.9038C293.778 96.4745 292.909 96.0274 292.074 95.6237L292.023 95.6058C289.549 95.5215 287.002 95.5036 284.833 95.5624Z" fill="#010101"/>
<path fill-rule="evenodd" clip-rule="evenodd" d="M275.752 89.5989C276.023 90.7972 276.217 92.182 276.268 93.2347C276.319 94.2721 276.225 95.2507 276.066 96.1449C274.758 96.2037 273.333 96.357 272.116 96.5589C273.205 94.8802 273.66 91.8601 273.417 88.283C274.015 88.8579 274.883 89.3638 275.752 89.5989Z" fill="#010101"/>
<path fill-rule="evenodd" clip-rule="evenodd" d="M7.83892 59.416H101.068C105.286 59.416 108.738 62.8679 108.738 67.0837V119.69C108.738 123.908 105.286 127.358 101.068 127.358H7.83892C3.62052 127.358 0.16864 123.908 0.16864 119.69V67.0837C0.16864 62.8679 3.62052 59.416 7.83892 59.416Z" fill="white"/>
<path fill-rule="evenodd" clip-rule="evenodd" d="M9.492 80.3367H47.6186V118.652H9.492V80.3367Z" fill="#E2EAFF"/>
<path fill-rule="evenodd" clip-rule="evenodd" d="M54.8673 83.8627H82.0148V86.1418H54.8673V83.8627Z" fill="#E2EAFF"/>
<path fill-rule="evenodd" clip-rule="evenodd" d="M54.8673 91.321H68.4372V93.5975H54.8673V91.321Z" fill="#E2EAFF"/>
<path fill-rule="evenodd" clip-rule="evenodd" d="M73.5167 91.321H87.0841V93.5975H73.5167V91.321Z" fill="#E2EAFF"/>
<path fill-rule="evenodd" clip-rule="evenodd" d="M54.8673 98.5671H82.0148V100.844H54.8673V98.5671Z" fill="#E2EAFF"/>
<path fill-rule="evenodd" clip-rule="evenodd" d="M54.8673 105.399H93.1957V107.678H54.8673V105.399Z" fill="#E2EAFF"/>
<path fill-rule="evenodd" clip-rule="evenodd" d="M54.8673 112.232H68.4372V114.511H54.8673V112.232Z" fill="#E2EAFF"/>
<path fill-rule="evenodd" clip-rule="evenodd" d="M0.16864 71.1182H108.738V67.0837C108.738 62.8679 105.286 59.416 101.068 59.416H7.83892C3.62052 59.416 0.16864 62.8679 0.16864 67.0837V71.1182Z" fill="#1958DF"/>
<path d="M7.83892 59.2474H101.068C105.381 59.2474 108.907 62.7734 108.907 67.0837V119.69C108.907 124 105.381 127.526 101.068 127.526H7.83892C3.52853 127.526 0 124 0 119.69V67.0837C0 62.7734 3.52853 59.2474 7.83892 59.2474ZM101.068 59.5949H7.83892C3.7125 59.5949 0.337268 62.9599 0.337268 67.0837V119.69C0.337268 123.814 3.7125 127.189 7.83892 127.189H101.068C105.194 127.189 108.57 123.814 108.57 119.69V67.0837C108.57 62.9599 105.194 59.5949 101.068 59.5949Z" fill="black"/>
<path fill-rule="evenodd" clip-rule="evenodd" d="M10.8513 63.8873C11.6536 63.8873 12.3128 64.5363 12.3128 65.3386C12.3128 66.1485 11.6536 66.7975 10.8513 66.7975C10.049 66.7975 9.40002 66.1485 9.40002 65.3386C9.40002 64.5363 10.049 63.8873 10.8513 63.8873Z" fill="white"/>
<path fill-rule="evenodd" clip-rule="evenodd" d="M16.6156 63.8873C17.4179 63.8873 18.0745 64.5363 18.0745 65.3386C18.0745 66.1485 17.4179 66.7975 16.6156 66.7975C15.8133 66.7975 15.1643 66.1485 15.1643 65.3386C15.1643 64.5363 15.8133 63.8873 16.6156 63.8873Z" fill="white"/>
<path fill-rule="evenodd" clip-rule="evenodd" d="M22.3797 63.8873C23.1794 63.8873 23.8386 64.5363 23.8386 65.3386C23.8386 66.1485 23.1794 66.7975 22.3797 66.7975C21.5774 66.7975 20.9284 66.1485 20.9284 65.3386C20.9284 64.5363 21.5774 63.8873 22.3797 63.8873Z" fill="white"/>
<path fill-rule="evenodd" clip-rule="evenodd" d="M82.6715 24.7719C83.8698 24.7719 84.8484 25.7505 84.8484 26.9565C84.8484 28.1548 83.8698 29.1334 82.6715 29.1334C81.4655 29.1334 80.4869 28.1548 80.4869 26.9565C80.4869 25.7505 81.4655 24.7719 82.6715 24.7719Z" fill="#1958DF"/>
<path fill-rule="evenodd" clip-rule="evenodd" d="M92.4598 24.7719C93.6582 24.7719 94.6368 25.7505 94.6368 26.9565C94.6368 28.1548 93.6582 29.1334 92.4598 29.1334C91.2539 29.1334 90.2753 28.1548 90.2753 26.9565C90.2753 25.7505 91.2539 24.7719 92.4598 24.7719Z" fill="#1958DF"/>
<path fill-rule="evenodd" clip-rule="evenodd" d="M102.248 24.7719C103.447 24.7719 104.425 25.7505 104.425 26.9565C104.425 28.1548 103.447 29.1334 102.248 29.1334C101.042 29.1334 100.071 28.1548 100.071 26.9565C100.071 25.7505 101.042 24.7719 102.248 24.7719Z" fill="#1958DF"/>
<path fill-rule="evenodd" clip-rule="evenodd" d="M330.223 31.502C332.316 32.5904 332.158 37.0464 329.861 41.4565C327.566 45.8614 324.012 48.5519 321.919 47.4711C319.827 46.3826 319.988 41.9215 322.282 37.5166C324.579 33.1065 328.131 30.4161 330.223 31.502Z" fill="#E2EAFF"/>
<path fill-rule="evenodd" clip-rule="evenodd" d="M340.602 46.5103C341.954 48.4419 339.751 52.3128 335.684 55.1643C331.616 58.0157 327.211 58.7669 325.862 56.8353C324.51 54.9037 326.713 51.0328 330.78 48.1813C334.856 45.3299 339.253 44.5787 340.602 46.5103Z" fill="#E2EAFF"/>
<path fill-rule="evenodd" clip-rule="evenodd" d="M303.61 35.6948C301.811 37.215 302.958 41.5254 306.175 45.3197C309.389 49.1088 313.447 50.9485 315.246 49.4205C317.042 47.8926 315.894 43.5924 312.688 39.7956C309.474 36.0065 305.406 34.1694 303.61 35.6948Z" fill="#E2EAFF"/>
<path fill-rule="evenodd" clip-rule="evenodd" d="M298.3 48.8124C296.941 50.7364 299.144 54.6175 303.222 57.469C307.289 60.3204 311.684 61.0691 313.043 59.1374C314.392 57.2058 312.19 53.3349 308.114 50.4835C304.047 47.6243 299.652 46.8808 298.3 48.8124Z" fill="#E2EAFF"/>
<path d="M299.667 49.3541C303.204 51.6383 306.418 53.8485 309.313 55.9922C312.215 58.1256 314.798 60.1927 317.067 62.1754L316.873 62.4028C314.612 60.4201 312.031 58.3633 309.136 56.2272C306.242 54.0938 303.035 51.8836 299.506 49.5969L299.667 49.3541Z" fill="#010101"/>
<path d="M305.051 36.9851C313.659 44.3002 318.409 52.7268 319.313 62.2776L319.009 62.3006C318.123 52.8367 313.406 44.4765 304.867 37.2151L305.051 36.9851Z" fill="#010101"/>
<path d="M329.677 33.8986C325.862 38.117 323.338 42.5883 322.114 47.3126C320.89 52.0344 320.951 57.0116 322.308 62.2521L322.014 62.3262C320.647 57.0372 320.588 52.0114 321.827 47.236C323.069 42.4606 325.609 37.956 329.447 33.7044L329.677 33.8986Z" fill="#010101"/>
<path d="M338.131 47.8263C333.236 50.297 329.659 52.7447 327.397 55.1644C325.162 57.561 324.216 59.9321 324.579 62.2674L324.283 62.3109C323.902 59.881 324.873 57.4256 327.178 54.9625C329.464 52.5173 333.067 50.0543 337.996 47.5656L338.131 47.8263Z" fill="#010101"/>
<path fill-rule="evenodd" clip-rule="evenodd" d="M320.696 62.1243H328.156C328.89 62.1243 329.541 62.5791 329.49 63.1361L328.182 75.9676C328.131 76.5246 327.581 76.9871 326.856 76.9871H314.546C313.812 76.9871 313.271 76.5246 313.212 75.9676L311.911 63.1361C311.853 62.5791 312.512 62.1243 313.245 62.1243H320.696Z" fill="#1958DF"/>
<path d="M305.718 76.8287H335.834V92.5525H335.533V77.1404H305.718V76.8287Z" fill="black"/>
<path fill-rule="evenodd" clip-rule="evenodd" d="M222.921 0.332825H263.677C268.217 0.332825 271.93 4.04532 271.93 8.58311V61.2812C271.93 65.8113 268.217 69.5238 263.677 69.5238H222.921C218.381 69.5238 214.676 65.8113 214.676 61.2812V8.58311C214.676 4.04532 218.381 0.332825 222.921 0.332825Z" fill="white"/>
<path d="M222.921 0.130951H263.677C266.007 0.130951 268.118 1.08399 269.653 2.61191C271.178 4.1475 272.134 6.25543 272.134 8.58308V61.2812C272.134 63.6012 271.178 65.7193 269.653 67.2447C268.118 68.7803 266.007 69.7256 263.677 69.7256H222.921C220.591 69.7256 218.48 68.7803 216.945 67.2447C215.417 65.7193 214.464 63.6012 214.464 61.2812V8.58308C214.464 6.25543 215.417 4.1475 216.945 2.61191C218.48 1.08399 220.591 0.130951 222.921 0.130951ZM263.677 0.53465H222.921C220.708 0.53465 218.692 1.44681 217.241 2.89808C215.78 4.35702 214.878 6.37296 214.878 8.58308V61.2812C214.878 63.4913 215.78 65.4996 217.241 66.9585C218.692 68.4098 220.708 69.3194 222.921 69.3194H263.677C265.89 69.3194 267.905 68.4098 269.357 66.9585C270.816 65.4996 271.72 63.4913 271.72 61.2812V8.58308C271.72 6.37296 270.816 4.35702 269.357 2.89808C267.905 1.44681 265.89 0.53465 263.677 0.53465Z" fill="black"/>
<path fill-rule="evenodd" clip-rule="evenodd" d="M225.351 50.762H261.247C262.32 50.762 263.197 51.6383 263.197 52.7191C263.197 53.7897 262.32 54.6686 261.247 54.6686H225.351C224.278 54.6686 223.401 53.7897 223.401 52.7191C223.401 51.6383 224.278 50.762 225.351 50.762Z" fill="#E2EAFF"/>
<path fill-rule="evenodd" clip-rule="evenodd" d="M225.351 44.7295H261.247C262.32 44.7295 263.197 45.6084 263.197 46.6867C263.197 47.7598 262.32 48.6362 261.247 48.6362H225.351C224.278 48.6362 223.401 47.7598 223.401 46.6867C223.401 45.6084 224.278 44.7295 225.351 44.7295Z" fill="#E2EAFF"/>
<path fill-rule="evenodd" clip-rule="evenodd" d="M243.298 13.6447C251.045 13.6447 257.322 19.9301 257.322 27.6745C257.322 35.4163 251.045 41.6941 243.298 41.6941C235.553 41.6941 229.273 35.4163 229.273 27.6745C229.273 19.9301 235.553 13.6447 243.298 13.6447Z" fill="#1958DF"/>
<path fill-rule="evenodd" clip-rule="evenodd" d="M255.255 35.0126C252.785 30.9961 248.354 28.3235 243.298 28.3235C238.244 28.3235 233.813 30.9961 231.343 35.0126C233.813 39.019 238.244 41.6941 243.298 41.6941C248.354 41.6941 252.785 39.019 255.255 35.0126Z" fill="white"/>
<path fill-rule="evenodd" clip-rule="evenodd" d="M243.298 27.2682C246.328 27.2682 248.783 24.8051 248.783 21.7774C248.783 18.7496 246.328 16.2942 243.298 16.2942C240.27 16.2942 237.815 18.7496 237.815 21.7774C237.815 24.8051 240.27 27.2682 243.298 27.2682Z" fill="white"/>
<path d="M227.773 51.8172C227.773 51.7227 227.847 51.6486 227.942 51.6486C228.034 51.6486 228.11 51.7227 228.11 51.8172V52.4918L228.701 52.1545C228.777 52.1034 228.887 52.1366 228.928 52.2133C228.979 52.2976 228.946 52.3972 228.869 52.4483L228.279 52.7856L228.869 53.1229C228.946 53.1663 228.979 53.2762 228.928 53.3503C228.887 53.4371 228.777 53.4601 228.701 53.4192L228.11 53.0743V53.7565C228.11 53.8485 228.034 53.9251 227.942 53.9251C227.847 53.9251 227.773 53.8485 227.773 53.7565V53.0743L227.191 53.4192C227.106 53.4601 227.004 53.4371 226.953 53.3503C226.912 53.2762 226.938 53.1663 227.022 53.1229L227.602 52.7856L227.022 52.4483C226.938 52.3972 226.912 52.2976 226.953 52.2133C227.004 52.1366 227.106 52.1034 227.191 52.1545L227.773 52.4918V51.8172Z" fill="#1958DF"/>
<path d="M230.844 51.8172C230.844 51.7227 230.918 51.6486 231.013 51.6486C231.105 51.6486 231.182 51.7227 231.182 51.8172V52.4918L231.772 52.1545C231.849 52.1034 231.958 52.1366 231.999 52.2133C232.05 52.2976 232.017 52.3972 231.94 52.4483L231.35 52.7856L231.94 53.1229C232.017 53.1663 232.05 53.2762 231.999 53.3503C231.958 53.4371 231.849 53.4601 231.772 53.4192L231.182 53.0743V53.7565C231.182 53.8485 231.105 53.9251 231.013 53.9251C230.918 53.9251 230.844 53.8485 230.844 53.7565V53.0743L230.262 53.4192C230.177 53.4601 230.075 53.4371 230.024 53.3503C229.983 53.2762 230.009 53.1663 230.093 53.1229L230.676 52.7856L230.093 52.4483C230.009 52.3972 229.983 52.2976 230.024 52.2133C230.075 52.1366 230.177 52.1034 230.262 52.1545L230.844 52.4918V51.8172Z" fill="#1958DF"/>
<path d="M233.916 51.8172C233.916 51.7227 233.992 51.6486 234.084 51.6486C234.176 51.6486 234.253 51.7227 234.253 51.8172V52.4918L234.843 52.1545C234.92 52.1034 235.03 52.1366 235.07 52.2133C235.122 52.2976 235.088 52.3972 235.012 52.4483L234.422 52.7856L235.012 53.1229C235.088 53.1663 235.122 53.2762 235.07 53.3503C235.03 53.4371 234.92 53.4601 234.843 53.4192L234.253 53.0743V53.7565C234.253 53.8485 234.176 53.9251 234.084 53.9251C233.992 53.9251 233.916 53.8485 233.916 53.7565V53.0743L233.333 53.4192C233.249 53.4601 233.147 53.4371 233.098 53.3503C233.055 53.2762 233.08 53.1663 233.164 53.1229L233.747 52.7856L233.164 52.4483C233.08 52.3972 233.055 52.2976 233.098 52.2133C233.147 52.1366 233.249 52.1034 233.333 52.1545L233.916 52.4918V51.8172Z" fill="#1958DF"/>
<path d="M236.987 51.8172C236.987 51.7227 237.063 51.6486 237.155 51.6486C237.247 51.6486 237.324 51.7227 237.324 51.8172V52.4918L237.914 52.1545C237.991 52.1034 238.101 52.1366 238.144 52.2133C238.193 52.2976 238.159 52.3972 238.083 52.4483L237.493 52.7856L238.083 53.1229C238.159 53.1663 238.193 53.2762 238.144 53.3503C238.101 53.4371 237.991 53.4601 237.914 53.4192L237.324 53.0743V53.7565C237.324 53.8485 237.247 53.9251 237.155 53.9251C237.063 53.9251 236.987 53.8485 236.987 53.7565V53.0743L236.404 53.4192C236.32 53.4601 236.218 53.4371 236.169 53.3503C236.126 53.2762 236.151 53.1663 236.236 53.1229L236.818 52.7856L236.236 52.4483C236.151 52.3972 236.126 52.2976 236.169 52.2133C236.218 52.1366 236.32 52.1034 236.404 52.1545L236.987 52.4918V51.8172Z" fill="#1958DF"/>
<path d="M240.058 51.8172C240.058 51.7227 240.135 51.6486 240.227 51.6486C240.321 51.6486 240.395 51.7227 240.395 51.8172V52.4918L240.988 52.1545C241.062 52.1034 241.164 52.1366 241.215 52.2133C241.267 52.2976 241.231 52.3972 241.157 52.4483L240.564 52.7856L241.157 53.1229C241.231 53.1663 241.267 53.2762 241.215 53.3503C241.164 53.4371 241.062 53.4601 240.988 53.4192L240.395 53.0743V53.7565C240.395 53.8485 240.321 53.9251 240.227 53.9251C240.135 53.9251 240.058 53.8485 240.058 53.7565V53.0743L239.475 53.4192C239.391 53.4601 239.291 53.4371 239.24 53.3503C239.197 53.2762 239.223 53.1663 239.307 53.1229L239.889 52.7856L239.307 52.4483C239.223 52.3972 239.197 52.2976 239.24 52.2133C239.291 52.1366 239.391 52.1034 239.475 52.1545L240.058 52.4918V51.8172Z" fill="#1958DF"/>
<path d="M243.129 51.8172C243.129 51.7227 243.206 51.6486 243.298 51.6486C243.392 51.6486 243.466 51.7227 243.466 51.8172V52.4918L244.059 52.1545C244.133 52.1034 244.235 52.1366 244.287 52.2133C244.327 52.2976 244.302 52.3972 244.228 52.4483L243.638 52.7856L244.228 53.1229C244.302 53.1663 244.327 53.2762 244.287 53.3503C244.235 53.4371 244.133 53.4601 244.059 53.4192L243.466 53.0743V53.7565C243.466 53.8485 243.392 53.9251 243.298 53.9251C243.206 53.9251 243.129 53.8485 243.129 53.7565V53.0743L242.547 53.4192C242.462 53.4601 242.363 53.4371 242.311 53.3503C242.271 53.2762 242.294 53.1663 242.37 53.1229L242.96 52.7856L242.37 52.4483C242.294 52.3972 242.271 52.2976 242.311 52.2133C242.363 52.1366 242.462 52.1034 242.547 52.1545L243.129 52.4918V51.8172Z" fill="#1958DF"/>
<path d="M246.203 51.8172C246.203 51.7227 246.277 51.6486 246.371 51.6486C246.463 51.6486 246.54 51.7227 246.54 51.8172V52.4918L247.123 52.1545C247.207 52.1034 247.307 52.1366 247.358 52.2133C247.401 52.2976 247.376 52.3972 247.299 52.4483L246.709 52.7856L247.299 53.1229C247.376 53.1663 247.401 53.2762 247.358 53.3503C247.307 53.4371 247.207 53.4601 247.123 53.4192L246.54 53.0743V53.7565C246.54 53.8485 246.463 53.9251 246.371 53.9251C246.277 53.9251 246.203 53.8485 246.203 53.7565V53.0743L245.62 53.4192C245.536 53.4601 245.434 53.4371 245.383 53.3503C245.342 53.2762 245.367 53.1663 245.441 53.1229L246.034 52.7856L245.441 52.4483C245.367 52.3972 245.342 52.2976 245.383 52.2133C245.434 52.1366 245.536 52.1034 245.62 52.1545L246.203 52.4918V51.8172Z" fill="#1958DF"/>
<path d="M249.274 51.8172C249.274 51.7227 249.348 51.6486 249.443 51.6486C249.535 51.6486 249.611 51.7227 249.611 51.8172V52.4918L250.194 52.1545C250.278 52.1034 250.378 52.1366 250.429 52.2133C250.472 52.2976 250.447 52.3972 250.37 52.4483L249.78 52.7856L250.37 53.1229C250.447 53.1663 250.472 53.2762 250.429 53.3503C250.378 53.4371 250.278 53.4601 250.194 53.4192L249.611 53.0743V53.7565C249.611 53.8485 249.535 53.9251 249.443 53.9251C249.348 53.9251 249.274 53.8485 249.274 53.7565V53.0743L248.684 53.4192C248.607 53.4601 248.505 53.4371 248.454 53.3503C248.413 53.2762 248.438 53.1663 248.513 53.1229L249.105 52.7856L248.513 52.4483C248.438 52.3972 248.413 52.2976 248.454 52.2133C248.505 52.1366 248.607 52.1034 248.684 52.1545L249.274 52.4918V51.8172Z" fill="#1958DF"/>
<path d="M252.345 51.8172C252.345 51.7227 252.422 51.6486 252.514 51.6486C252.606 51.6486 252.682 51.7227 252.682 51.8172V52.4918L253.265 52.1545C253.349 52.1034 253.451 52.1366 253.5 52.2133C253.543 52.2976 253.518 52.3972 253.434 52.4483L252.851 52.7856L253.434 53.1229C253.518 53.1663 253.543 53.2762 253.5 53.3503C253.451 53.4371 253.349 53.4601 253.265 53.4192L252.682 53.0743V53.7565C252.682 53.8485 252.606 53.9251 252.514 53.9251C252.422 53.9251 252.345 53.8485 252.345 53.7565V53.0743L251.755 53.4192C251.678 53.4601 251.576 53.4371 251.528 53.3503C251.476 53.2762 251.51 53.1663 251.586 53.1229L252.176 52.7856L251.586 52.4483C251.51 52.3972 251.476 52.2976 251.528 52.2133C251.576 52.1366 251.678 52.1034 251.755 52.1545L252.345 52.4918V51.8172Z" fill="#1958DF"/>
<path d="M255.416 51.8172C255.416 51.7227 255.493 51.6486 255.585 51.6486C255.677 51.6486 255.754 51.7227 255.754 51.8172V52.4918L256.336 52.1545C256.42 52.1034 256.523 52.1366 256.574 52.2133C256.615 52.2976 256.589 52.3972 256.505 52.4483L255.922 52.7856L256.505 53.1229C256.589 53.1663 256.615 53.2762 256.574 53.3503C256.523 53.4371 256.42 53.4601 256.336 53.4192L255.754 53.0743V53.7565C255.754 53.8485 255.677 53.9251 255.585 53.9251C255.493 53.9251 255.416 53.8485 255.416 53.7565V53.0743L254.826 53.4192C254.749 53.4601 254.64 53.4371 254.599 53.3503C254.548 53.2762 254.581 53.1663 254.657 53.1229L255.248 52.7856L254.657 52.4483C254.581 52.3972 254.548 52.2976 254.599 52.2133C254.64 52.1366 254.749 52.1034 254.826 52.1545L255.416 52.4918V51.8172Z" fill="#1958DF"/>
<path d="M258.487 51.8172C258.487 51.7227 258.564 51.6486 258.656 51.6486C258.751 51.6486 258.825 51.7227 258.825 51.8172V52.4918L259.407 52.1545C259.492 52.1034 259.594 52.1366 259.645 52.2133C259.686 52.2976 259.66 52.3972 259.576 52.4483L258.993 52.7856L259.576 53.1229C259.66 53.1663 259.686 53.2762 259.645 53.3503C259.594 53.4371 259.492 53.4601 259.407 53.4192L258.825 53.0743V53.7565C258.825 53.8485 258.751 53.9251 258.656 53.9251C258.564 53.9251 258.487 53.8485 258.487 53.7565V53.0743L257.897 53.4192C257.821 53.4601 257.711 53.4371 257.67 53.3503C257.619 53.2762 257.652 53.1663 257.729 53.1229L258.319 52.7856L257.729 52.4483C257.652 52.3972 257.619 52.2976 257.67 52.2133C257.711 52.1366 257.821 52.1034 257.897 52.1545L258.487 52.4918V51.8172Z" fill="#1958DF"/>
<path fill-rule="evenodd" clip-rule="evenodd" d="M226.623 46.0811H259.975C260.302 46.0811 260.572 46.3494 260.572 46.6866C260.572 47.0162 260.302 47.2871 259.975 47.2871H226.623C226.296 47.2871 226.026 47.0162 226.026 46.6866C226.026 46.3494 226.296 46.0811 226.623 46.0811Z" fill="#1958DF"/>
<path d="M243.298 13.4427C247.23 13.4427 250.784 15.0371 253.367 17.61C255.94 20.183 257.535 23.7422 257.535 27.6744C257.535 31.6041 255.94 35.1556 253.367 37.7286C250.784 40.3092 247.23 41.8959 243.298 41.8959C239.366 41.8959 235.814 40.3092 233.231 37.7286C230.658 35.1556 229.064 31.6041 229.064 27.6744C229.064 23.7422 230.658 20.183 233.231 17.61C235.814 15.0371 239.366 13.4427 243.298 13.4427ZM253.071 17.9039C250.572 15.3999 247.112 13.8567 243.298 13.8567C239.486 13.8567 236.026 15.3999 233.527 17.9039C231.021 20.4027 229.477 23.8597 229.477 27.6744C229.477 31.4866 231.021 34.9436 233.527 37.4424C236.026 39.9464 239.486 41.4922 243.298 41.4922C247.112 41.4922 250.572 39.9464 253.071 37.4424C255.577 34.9461 257.121 31.4866 257.121 27.6744C257.121 23.8597 255.577 20.4027 253.071 17.9039Z" fill="black"/>
</svg>
