<svg width="18" height="18" viewBox="0 0 18 18" fill="none" xmlns="http://www.w3.org/2000/svg">
<g clip-path="url(#clip0_8_248)">
<path d="M8.91844 9.73406L12.2934 12.2653C12.3525 12.3096 12.4198 12.3419 12.4913 12.3602C12.5629 12.3785 12.6374 12.3826 12.7105 12.3722C12.7836 12.3617 12.854 12.337 12.9175 12.2993C12.9811 12.2617 13.0366 12.2119 13.0809 12.1528C13.1253 12.0937 13.1575 12.0265 13.1758 11.9549C13.1942 11.8834 13.1982 11.8089 13.1878 11.7358C13.1773 11.6626 13.1526 11.5923 13.115 11.5287C13.0773 11.4652 13.0275 11.4096 12.9684 11.3653L9.84375 9V4.21875C9.84375 4.06957 9.78449 3.92649 9.679 3.821C9.57351 3.71551 9.43043 3.65625 9.28125 3.65625C9.13207 3.65625 8.98899 3.71551 8.8835 3.821C8.77801 3.92649 8.71875 4.06957 8.71875 4.21875V9.28125C8.71875 9.468 8.79694 9.63619 8.91844 9.73406Z" fill="#71737F"/>
<path d="M9.56247 0.5625C5.44525 0.5625 1.92935 3.53419 1.2431 7.59375L1.02935 7.27594C0.945804 7.15211 0.816494 7.06655 0.669864 7.03807C0.523234 7.00959 0.371296 7.04052 0.247473 7.12406C0.12365 7.20761 0.0380855 7.33692 0.00960346 7.48355C-0.0188786 7.63018 0.0120544 7.78211 0.0955976 7.90594L1.2206 9.59344C1.26628 9.66292 1.32681 9.72141 1.39781 9.76469C1.46881 9.80797 1.54853 9.83497 1.63122 9.84375H1.68747C1.76123 9.8435 1.83422 9.82872 1.90227 9.80024C1.97031 9.77177 2.03208 9.73017 2.08404 9.67781L3.49028 8.27156C3.5907 8.16498 3.64564 8.02348 3.64346 7.87707C3.64128 7.73065 3.58215 7.59085 3.47861 7.4873C3.37506 7.38376 3.23526 7.32463 3.08884 7.32245C2.94243 7.32027 2.80093 7.37521 2.69435 7.47563L2.3456 7.82719C2.99332 3.84075 6.74997 1.13456 10.7361 1.78228C14.7223 2.43 17.429 6.18637 16.7813 10.1728C16.2062 13.7126 13.1487 16.3131 9.56247 16.3125C8.44801 16.3327 7.34516 16.0834 6.34771 15.5859C5.35025 15.0884 4.4877 14.3574 3.83341 13.455C3.79057 13.3948 3.73628 13.3436 3.67366 13.3044C3.61104 13.2652 3.54131 13.2387 3.46844 13.2264C3.39558 13.2141 3.32101 13.2163 3.24899 13.2329C3.17698 13.2494 3.10893 13.28 3.04872 13.3228C2.98852 13.3657 2.93734 13.4199 2.89812 13.4826C2.8589 13.5452 2.83239 13.6149 2.82011 13.6878C2.80784 13.7606 2.81004 13.8352 2.82658 13.9072C2.84312 13.9792 2.87369 14.0473 2.91653 14.1075C3.67424 15.1567 4.67417 16.0074 5.83128 16.5872C6.98838 17.167 8.26842 17.4587 9.56247 17.4375C14.2225 17.4375 18 13.66 18 9C18 4.33997 14.2225 0.5625 9.56247 0.5625Z" fill="#71737F"/>
</g>
<defs>
<clipPath id="clip0_8_248">
<rect width="18" height="18" fill="white"/>
</clipPath>
</defs>
</svg>
