<svg width="26" height="26" viewBox="0 0 26 26" fill="none" xmlns="http://www.w3.org/2000/svg">
<path d="M23.6945 10.1106C23.273 9.53673 22.623 9.20665 21.9121 9.20665H21.3738V7.75938C21.3738 6.54063 20.3836 5.5504 19.1597 5.5504H12.7004C12.3297 5.5504 11.9742 5.40313 11.7101 5.14415L10.6945 4.1336C10.2781 3.71719 9.72458 3.48868 9.13552 3.48868H4.08786C2.86911 3.48868 1.87888 4.47891 1.87888 5.70274V18.5859C1.86365 19.0785 2.01091 19.566 2.31052 19.9723C2.73708 20.5512 3.39216 20.8863 4.11325 20.8863H19.6472C20.6172 20.8863 21.4652 20.2617 21.7597 19.3324L24.0297 12.0758C24.2379 11.4004 24.116 10.6844 23.6945 10.1106ZM2.6863 5.70274C2.6863 4.93087 3.31599 4.30118 4.08279 4.30118H9.13552C9.50622 4.30118 9.85661 4.44844 10.1258 4.70743L11.1414 5.71797C11.5578 6.13438 12.1113 6.3629 12.7004 6.3629H19.1648C19.9367 6.3629 20.5664 6.99258 20.5664 7.75938V9.20665H6.34763C5.37771 9.20665 4.52966 9.83126 4.23513 10.7555L2.68122 15.7117V5.70274H2.6863ZM23.2476 11.8371L20.9777 19.0938C20.7949 19.6828 20.2566 20.0738 19.6422 20.0738H4.10818C3.65115 20.0738 3.23474 19.8606 2.96052 19.4949C2.69138 19.1242 2.61013 18.6621 2.74724 18.2254L5.007 10.9992C5.18982 10.4102 5.7281 10.0191 6.34255 10.0191H21.907C22.359 10.0191 22.7703 10.2274 23.0343 10.5879C23.3086 10.9535 23.3847 11.4055 23.2476 11.8371Z" fill="#71737F"/>
</svg>
