<svg width="152" height="154" viewBox="0 0 152 154" fill="none" xmlns="http://www.w3.org/2000/svg">
<path d="M24.1484 120.393L134.5 126.413L124.871 18.4788L32.0412 24.2925L24.1484 120.393ZM134.808 126.988C134.802 126.988 134.796 126.986 134.792 126.986L23.8331 120.934C23.7577 120.93 23.6861 120.896 23.6378 120.839C23.5875 120.781 23.5643 120.708 23.5701 120.632L31.5074 24.0062C31.519 23.8689 31.6292 23.7606 31.7665 23.7529L125.107 17.9044C125.262 17.8966 125.389 18.0088 125.401 18.1577L135.085 126.682C135.092 126.763 135.063 126.843 135.007 126.901C134.955 126.957 134.881 126.988 134.808 126.988Z" fill="#1958DF"/>
<path d="M21.4213 120.311L61.4287 144.684L118.999 133.563L146.559 73.3511L124.917 18.4168L75.2802 5.32344L31.9772 24.2499L4.68994 70.1039L21.4213 120.311ZM61.3745 145.257C61.3242 145.257 61.274 145.243 61.2314 145.216L21.0441 120.735C20.988 120.7 20.9455 120.648 20.9242 120.584L4.1194 70.16C4.09425 70.0826 4.10393 69.9975 4.14454 69.9279L31.544 23.8863C31.5749 23.8379 31.6194 23.7973 31.6716 23.7741L75.1468 4.77417C75.2029 4.74903 75.2667 4.74323 75.3286 4.7587L125.196 17.914C125.283 17.9372 125.352 17.9991 125.383 18.0803L147.12 73.2583C147.149 73.3279 147.147 73.4072 147.114 73.4768L119.446 133.925C119.409 134.008 119.334 134.066 119.247 134.084L61.4287 145.253C61.4113 145.255 61.3919 145.257 61.3745 145.257Z" fill="#1958DF"/>
<path d="M61.009 142.843C60.9258 142.843 60.8446 142.806 60.7905 142.736L4.1639 70.2431C4.06913 70.1213 4.09234 69.9453 4.21225 69.8505C4.33409 69.7557 4.50816 69.779 4.60486 69.8989L61.0728 142.195L146.064 87.8989C146.193 87.8157 146.366 87.8544 146.449 87.984C146.532 88.1136 146.493 88.2857 146.364 88.3669L61.1599 142.8C61.1134 142.829 61.0612 142.843 61.009 142.843Z" fill="#1958DF"/>
<path d="M132.978 126.988C132.878 126.988 132.777 126.93 132.731 126.831L75.2609 10.1953L22.9008 119.155C22.835 119.294 22.6687 119.352 22.5295 119.286C22.3922 119.219 22.3322 119.052 22.3999 118.915L75.0056 9.43713C75.052 9.34236 75.1487 9.28047 75.257 9.28047C75.3634 9.28047 75.4601 9.34043 75.5084 9.43519L133.23 126.585C133.297 126.725 133.239 126.891 133.102 126.959C133.063 126.978 133.021 126.988 132.978 126.988Z" fill="#1958DF"/>
<path d="M146.863 73.6374C146.859 73.6374 146.859 73.6374 146.857 73.6374L6.20638 71.0806C6.05166 71.0767 5.92982 70.951 5.93368 70.7963C5.93562 70.6416 6.071 70.5178 6.21605 70.5236L146.867 73.0804C147.021 73.0823 147.143 73.21 147.141 73.3647C147.137 73.5175 147.014 73.6374 146.863 73.6374Z" fill="#1958DF"/>
<path d="M38.994 33.1639H24.2083C23.953 33.1639 23.7461 32.9569 23.7461 32.7036V17.914C23.7461 17.6587 23.953 17.4518 24.2083 17.4518H38.994C39.2493 17.4518 39.4562 17.6587 39.4562 17.914V32.7036C39.4562 32.9569 39.2493 33.1639 38.994 33.1639Z" fill="#1958DF"/>
<path d="M26.678 20.289C26.5252 20.289 26.3995 20.4128 26.3995 20.5675V30.4156C26.3995 30.5684 26.5252 30.6922 26.678 30.6922H36.5242C36.677 30.6922 36.8027 30.5684 36.8027 30.4156V20.5675C36.8027 20.4128 36.677 20.289 36.5242 20.289H26.678ZM36.5242 31.2511H26.678C26.2177 31.2511 25.8425 30.8759 25.8425 30.4156V20.5675C25.8425 20.1053 26.2177 19.732 26.678 19.732H36.5242C36.9845 19.732 37.3597 20.1053 37.3597 20.5675V30.4156C37.3597 30.8759 36.9845 31.2511 36.5242 31.2511Z" fill="#CADDFF"/>
<path d="M132.516 25.8571H117.73C117.477 25.8571 117.27 25.6501 117.27 25.3948V10.6072C117.27 10.3519 117.477 10.145 117.73 10.145H132.516C132.771 10.145 132.978 10.3519 132.978 10.6072V25.3948C132.978 25.6501 132.771 25.8571 132.516 25.8571Z" fill="#1958DF"/>
<path d="M120.202 12.9822C120.047 12.9822 119.922 13.106 119.922 13.2588V23.1069C119.922 23.2616 120.047 23.3854 120.202 23.3854H130.046C130.199 23.3854 130.325 23.2616 130.325 23.1069V13.2588C130.325 13.106 130.199 12.9822 130.046 12.9822H120.202ZM130.046 23.9443H120.202C119.742 23.9443 119.367 23.5691 119.367 23.1069V13.2588C119.367 12.8004 119.742 12.4252 120.202 12.4252H130.046C130.509 12.4252 130.882 12.8004 130.882 13.2588V23.1069C130.882 23.5691 130.509 23.9443 130.046 23.9443Z" fill="#CADDFF"/>
<path d="M30.3971 127.438H16.7313C16.1665 127.438 15.7101 126.982 15.7101 126.417V112.749C15.7101 112.185 16.1665 111.726 16.7313 111.726H30.3971C30.9619 111.726 31.4183 112.185 31.4183 112.749V126.417C31.4183 126.982 30.9619 127.438 30.3971 127.438Z" fill="#99B9FF"/>
<path d="M18.6401 114.563C18.4873 114.563 18.3616 114.689 18.3616 114.842V124.69C18.3616 124.843 18.4873 124.969 18.6401 124.969H28.4862C28.641 124.969 28.7647 124.843 28.7647 124.69V114.842C28.7647 114.689 28.641 114.563 28.4862 114.563H18.6401ZM28.4862 125.526H18.6401C18.1798 125.526 17.8046 125.15 17.8046 124.69V114.842C17.8046 114.382 18.1798 114.006 18.6401 114.006H28.4862C28.9465 114.006 29.3217 114.382 29.3217 114.842V124.69C29.3217 125.15 28.9465 125.526 28.4862 125.526Z" fill="#CADDFF"/>
<path d="M66.7589 148.633H55.2611C55.0058 148.633 54.7988 148.426 54.7988 148.171V136.671C54.7988 136.416 55.0058 136.209 55.2611 136.209H66.7589C67.0142 136.209 67.2211 136.416 67.2211 136.671V148.171C67.2211 148.426 67.0142 148.633 66.7589 148.633Z" fill="#1958DF"/>
<path d="M57.2339 138.511C57.0812 138.511 56.9554 138.634 56.9554 138.789V146.342C56.9554 146.496 57.0812 146.62 57.2339 146.62H64.7863C64.9391 146.62 65.0648 146.496 65.0648 146.342V138.789C65.0648 138.634 64.9391 138.511 64.7863 138.511H57.2339ZM64.7863 147.177H57.2339C56.7736 147.177 56.3984 146.804 56.3984 146.342V138.789C56.3984 138.329 56.7736 137.952 57.2339 137.952H64.7863C65.2466 137.952 65.6218 138.329 65.6218 138.789V146.342C65.6218 146.804 65.2466 147.177 64.7863 147.177Z" fill="#CADDFF"/>
<path d="M81.0069 12.9242H69.5091C69.2538 12.9242 69.0469 12.7173 69.0469 12.462V0.962234C69.0469 0.706942 69.2538 0.5 69.5091 0.5H81.0069C81.2603 0.5 81.4692 0.706942 81.4692 0.962234V12.462C81.4692 12.7173 81.2603 12.9242 81.0069 12.9242Z" fill="#1958DF"/>
<path d="M71.4819 2.80148C71.3271 2.80148 71.2034 2.92719 71.2034 3.07998V10.6324C71.2034 10.7871 71.3271 10.9109 71.4819 10.9109H79.0343C79.1871 10.9109 79.3108 10.7871 79.3108 10.6324V3.07998C79.3108 2.92719 79.1871 2.80148 79.0343 2.80148H71.4819ZM79.0343 11.4679H71.4819C71.0196 11.4679 70.6464 11.0946 70.6464 10.6324V3.07998C70.6464 2.61774 71.0196 2.24448 71.4819 2.24448H79.0343C79.4946 2.24448 79.8698 2.61774 79.8698 3.07998V10.6324C79.8698 11.0946 79.4946 11.4679 79.0343 11.4679Z" fill="#CADDFF"/>
<path d="M150.957 79.571H140.577C140.014 79.571 139.556 79.1146 139.556 78.5498V68.1699C139.556 67.6052 140.014 67.1468 140.577 67.1468H150.957C151.52 67.1468 151.976 67.6052 151.976 68.1699V78.5498C151.976 79.1146 151.52 79.571 150.957 79.571Z" fill="#99B9FF"/>
<path d="M141.989 69.4483C141.836 69.4483 141.71 69.574 141.71 69.7268V77.2811C141.71 77.4339 141.836 77.5596 141.989 77.5596H149.541C149.694 77.5596 149.82 77.4339 149.82 77.2811V69.7268C149.82 69.574 149.694 69.4483 149.541 69.4483H141.989ZM149.541 78.1167H141.989C141.529 78.1167 141.155 77.7414 141.155 77.2811V69.7268C141.155 69.2665 141.529 68.8913 141.989 68.8913H149.541C150.002 68.8913 150.377 69.2665 150.377 69.7268V77.2811C150.377 77.7414 150.002 78.1167 149.541 78.1167Z" fill="#CADDFF"/>
<path d="M11.4011 76.8692H1.02117C0.458366 76.8692 0 76.4108 0 75.848V65.4661C0 64.9014 0.458366 64.4449 1.02117 64.4449H11.4011C11.9639 64.4449 12.4223 64.9014 12.4223 65.4661V75.848C12.4223 76.4108 11.9639 76.8692 11.4011 76.8692Z" fill="#99B9FF"/>
<path d="M2.43487 66.7465C2.28208 66.7465 2.15637 66.8722 2.15637 67.025V74.5793C2.15637 74.7321 2.28208 74.8578 2.43487 74.8578H9.98727C10.1401 74.8578 10.2658 74.7321 10.2658 74.5793V67.025C10.2658 66.8722 10.1401 66.7465 9.98727 66.7465H2.43487ZM9.98727 75.4148H2.43487C1.97457 75.4148 1.59937 75.0396 1.59937 74.5793V67.025C1.59937 66.5647 1.97457 66.1895 2.43487 66.1895H9.98727C10.4476 66.1895 10.8228 66.5647 10.8228 67.025V74.5793C10.8228 75.0396 10.4476 75.4148 9.98727 75.4148Z" fill="#CADDFF"/>
<path d="M110.044 146.129C110.044 146.129 104.589 129.469 110.777 115.08C110.984 114.6 112.845 115.465 113.079 114.989C113.377 114.382 112.056 112.436 112.402 111.84C113.682 109.628 115.29 107.508 117.293 105.559C117.293 105.559 119.699 110.599 120.204 117.954C120.241 118.509 118.015 119.687 118.028 120.267C118.042 120.814 120.299 120.764 120.289 121.331C120.152 128.682 117.862 137.658 110.044 146.129Z" fill="#99B9FF"/>
<path d="M106.047 126.847C105.79 126.348 103.666 127.672 103.399 127.193C103.138 126.723 104.502 123.824 104.233 123.373C98.9491 114.54 92.5764 109.872 92.5764 109.872C91.3251 113.831 90.7836 117.724 90.772 121.489C90.77 122.093 93.2707 123.489 93.2978 124.085C93.323 124.737 91.0311 125.185 91.0892 125.829C91.9305 135.335 95.7889 143.276 99.8426 149.645C103.91 148.895 107.672 147.742 111.137 146.239C110.822 138.368 108.834 132.262 106.047 126.847Z" fill="#99B9FF"/>
<path d="M104.939 145.09C103.6 142.22 102.32 139.277 101.135 136.343C101.076 136.199 101.144 136.037 101.287 135.979C101.43 135.921 101.593 135.991 101.651 136.132C102.833 139.058 104.109 141.994 105.444 144.854L104.939 145.09Z" fill="#CADDFF"/>
<path d="M99.7497 132.308C99.6375 132.308 99.5312 132.239 99.4886 132.126C97.6107 127.127 95.9281 121.984 94.4949 116.838L93.8374 114.486C93.7968 114.339 93.8838 114.184 94.0308 114.144C94.1797 114.103 94.3325 114.188 94.375 114.337L95.0307 116.689C96.4619 121.818 98.1367 126.947 100.011 131.931C100.065 132.074 99.9915 132.235 99.8484 132.289C99.8155 132.302 99.7826 132.308 99.7497 132.308Z" fill="#CADDFF"/>
<path d="M109.462 146.918C109.462 146.918 108.936 129.951 125.964 126.769C125.964 126.769 125.053 141.365 109.462 146.918Z" fill="#99B9FF"/>
<path d="M113.071 143.118C113.027 143.118 112.982 143.108 112.94 143.085C112.804 143.013 112.754 142.843 112.826 142.708C115.51 137.71 122.556 130.428 122.627 130.355C122.734 130.245 122.91 130.243 123.02 130.349C123.13 130.457 123.132 130.633 123.026 130.744C122.956 130.815 115.965 138.041 113.317 142.971C113.267 143.063 113.17 143.118 113.071 143.118Z" fill="#CADDFF"/>
<path d="M13.3195 140.114L12.3777 146.732L9.96593 146.742L9.85376 140.232L13.3195 140.114Z" fill="white"/>
<path d="M10.1363 140.501L10.2407 146.461L12.1361 146.454L12.9967 140.404L10.1363 140.501ZM9.96608 147.02C9.81523 147.02 9.69145 146.899 9.68758 146.746L9.57541 140.238C9.57154 140.085 9.69145 139.959 9.84424 139.953L13.31 139.835C13.3913 139.832 13.4725 139.866 13.5286 139.928C13.5827 139.988 13.6079 140.071 13.5963 140.153L12.6544 146.771C12.635 146.908 12.5171 147.009 12.3798 147.011L9.96802 147.02C9.96802 147.02 9.96802 147.02 9.96608 147.02Z" fill="black"/>
<path d="M12.4591 153.058C11.5134 153.159 10.1054 153.2 8.22167 153.033C7.54862 152.975 7.07285 152.351 7.18116 151.683C7.47513 149.887 8.28936 146.719 9.57549 145.266L10.2118 146.171L10.5889 145.235C10.6489 145.135 12.2464 145.067 12.2812 145.259L12.3779 146.171L13.285 145.154L13.2347 148.494C13.2308 148.862 13.2637 149.231 13.3391 149.591L13.577 150.745C13.7201 151.44 13.5441 152.177 13.0587 152.693C12.8691 152.896 12.6583 153.037 12.4591 153.058Z" fill="white"/>
<path d="M9.5599 145.728C8.42656 147.258 7.71097 150.169 7.45761 151.728C7.41699 151.973 7.48081 152.227 7.6336 152.422C7.78446 152.616 8.00107 152.735 8.24669 152.757C10.2504 152.933 11.6274 152.867 12.43 152.782C12.546 152.768 12.7008 152.668 12.8555 152.503C13.2655 152.064 13.4338 151.428 13.3042 150.801L13.0663 149.647C12.987 149.268 12.9503 148.877 12.9561 148.49L12.9947 145.899L12.5847 146.357C12.5112 146.44 12.3971 146.471 12.2927 146.436C12.1883 146.401 12.1128 146.311 12.1012 146.2L12.02 145.44C11.7434 145.4 11.0665 145.413 10.7996 145.46L10.4708 146.276C10.4322 146.371 10.3451 146.436 10.2426 146.448C10.142 146.461 10.0415 146.415 9.98345 146.332L9.5599 145.728ZM10.6275 153.424C9.94864 153.424 9.14022 153.395 8.19641 153.312C7.798 153.277 7.4402 153.082 7.19264 152.764C6.94702 152.447 6.84258 152.037 6.90641 151.639C6.98377 151.165 7.70903 146.957 9.36843 145.081C9.42452 145.019 9.50768 144.984 9.59085 144.988C9.67594 144.992 9.75524 145.036 9.80359 145.106L10.144 145.591L10.3296 145.133C10.3354 145.119 10.3432 145.106 10.349 145.092C10.5579 144.744 12.1399 144.897 12.1554 144.901C12.2424 144.916 12.5112 144.966 12.5557 145.208C12.5557 145.216 12.5577 145.222 12.5577 145.228L12.5886 145.518L13.076 144.968C13.1553 144.883 13.2771 144.852 13.3854 144.895C13.4937 144.937 13.5653 145.042 13.5633 145.158L13.5131 148.498C13.5092 148.846 13.5421 149.194 13.6117 149.535L13.8496 150.689C14.0159 151.494 13.7954 152.314 13.2616 152.884C13.0102 153.151 12.7433 153.308 12.49 153.335C12.0432 153.383 11.4243 153.424 10.6275 153.424Z" fill="black"/>
<path d="M10.7358 152.244C10.0686 152.244 9.24276 152.192 8.30863 152.028C8.15777 152.002 8.05527 151.857 8.08234 151.707C8.10942 151.554 8.25447 151.453 8.40533 151.48C10.7126 151.885 12.3643 151.563 12.3798 151.562C12.5306 151.529 12.6776 151.627 12.7086 151.778C12.7395 151.929 12.6409 152.076 12.4919 152.107C12.4475 152.115 11.7938 152.244 10.7358 152.244Z" fill="black"/>
<path d="M11.5054 149.707H9.31805C9.16526 149.707 9.03955 149.581 9.03955 149.428C9.03955 149.274 9.16526 149.15 9.31805 149.15H11.5054C11.6602 149.15 11.7839 149.274 11.7839 149.428C11.7839 149.581 11.6602 149.707 11.5054 149.707Z" fill="black"/>
<path d="M30.6254 140.706L31.4744 148.419L34.7178 149.098L34.5205 140.054L30.6254 140.706Z" fill="white"/>
<path d="M31.7298 148.187L34.4316 148.751L34.2498 140.381L30.9329 140.936L31.7298 148.187ZM34.7178 149.376C34.6985 149.376 34.6811 149.374 34.6618 149.37L31.4184 148.689C31.3004 148.666 31.2114 148.568 31.1979 148.448L30.3489 140.735C30.3334 140.588 30.434 140.454 30.5809 140.429L34.4742 139.779C34.5554 139.766 34.6366 139.787 34.6985 139.839C34.7604 139.892 34.7971 139.967 34.7991 140.046L34.9963 149.09C34.9983 149.177 34.9615 149.256 34.8958 149.312C34.8455 149.353 34.7836 149.376 34.7178 149.376Z" fill="black"/>
<path d="M30.1032 152.095C30.0317 150.743 30.0297 148.254 30.8536 147.055L33.4472 147.98V147.425C33.4472 147.247 33.5748 147.1 33.7373 147.09L35.1839 147.007C35.7255 146.976 36.2631 147.088 36.7563 147.33C38.2107 148.045 42.6358 149.881 43.2508 151.943C43.4306 152.552 42.9549 153.161 42.3205 153.178C40.8642 153.221 37.3616 153.267 31.078 153.053C30.5539 153.033 30.1303 152.619 30.1032 152.095Z" fill="white"/>
<path d="M30.9716 147.394C30.4842 148.279 30.2695 149.966 30.3817 152.082C30.401 152.463 30.7047 152.761 31.0876 152.772C37.3036 152.985 40.7887 152.944 42.3127 152.9C42.5371 152.894 42.7479 152.782 42.8814 152.6C43.0051 152.43 43.0419 152.219 42.9839 152.024C42.4791 150.328 38.9649 148.678 37.2765 147.887C37.027 147.769 36.8085 147.666 36.6325 147.579C36.1838 147.359 35.6867 147.256 35.2013 147.285L33.7527 147.369C33.7469 147.369 33.7256 147.386 33.7256 147.425V147.98C33.7256 148.071 33.6812 148.156 33.6077 148.208C33.5342 148.26 33.4394 148.272 33.3543 148.243L30.9716 147.394ZM39.4175 153.494C37.4854 153.494 34.7565 153.457 31.0683 153.329C30.3952 153.308 29.8595 152.782 29.8247 152.111C29.7512 150.707 29.757 148.161 30.6235 146.899C30.695 146.794 30.8265 146.75 30.9464 146.794L33.1686 147.585V147.425C33.1686 147.098 33.4123 146.829 33.7218 146.812L35.1684 146.728C35.7506 146.695 36.3424 146.817 36.8781 147.08C37.0522 147.165 37.2669 147.266 37.5144 147.382C39.4098 148.272 42.9413 149.929 43.5176 151.865C43.626 152.227 43.5583 152.614 43.332 152.927C43.0999 153.248 42.7247 153.447 42.3302 153.457C41.7035 153.474 40.752 153.494 39.4175 153.494Z" fill="black"/>
<path d="M38.4139 152.211C36.5708 152.211 34.0797 152.13 31.3605 151.815C31.2077 151.797 31.0974 151.658 31.1148 151.505C31.1323 151.353 31.2715 151.242 31.4243 151.262C36.9421 151.902 41.5045 151.567 41.549 151.565C41.6998 151.554 41.8371 151.668 41.8487 151.823C41.8603 151.975 41.7443 152.109 41.5915 152.12C41.5683 152.122 40.346 152.211 38.4139 152.211Z" fill="black"/>
<path d="M37.6092 150.003C37.5531 150.003 37.4951 149.987 37.4467 149.952L34.948 148.154C34.8242 148.065 34.7952 147.891 34.8842 147.765C34.9751 147.641 35.1491 147.612 35.2748 147.701L37.7717 149.5C37.8974 149.589 37.9245 149.763 37.8355 149.887C37.7813 149.964 37.6962 150.003 37.6092 150.003Z" fill="black"/>
<path d="M31.6388 90.6608C31.6388 90.6608 36.2883 122.563 35.2961 143.856L33.8475 144.001C33.0662 144.079 32.2809 144.098 31.4996 144.059L30.1226 143.99C30.1226 143.99 24.5777 111.645 21.8101 106.272C21.8101 106.272 14.2809 135.037 13.9908 142.829C13.9908 142.829 10.643 143.166 9.31043 142.686C8.59291 135.167 8.38597 127.38 8.35115 122.495C8.24865 108.508 9.58507 102.155 10.3161 99.1396C10.9892 96.372 11.7125 94.1246 12.2386 92.6025L13.9985 87.5798L31.6388 90.6608Z" fill="#1958DF"/>
<path d="M30.3605 143.723L31.5132 143.781C32.2791 143.82 33.0546 143.8 33.8186 143.723L35.0293 143.603C35.9228 123.454 31.7781 93.6314 31.3913 90.9005L14.1842 87.895L12.5016 92.6953C11.7648 94.8208 11.1207 97.0121 10.5889 99.2053C9.70116 102.857 8.533 109.243 8.62971 122.493C8.65872 126.551 8.82118 134.519 9.56965 142.477C10.703 142.789 12.9813 142.636 13.7239 142.574C14.1533 134.499 21.4659 106.489 21.5413 106.203C21.5703 106.09 21.6651 106.009 21.7792 105.996C21.8952 105.984 22.0055 106.042 22.0577 106.145C24.7247 111.322 29.8267 140.632 30.3605 143.723ZM32.2849 144.357C32.018 144.357 31.7511 144.351 31.4842 144.338L30.1091 144.268C29.9795 144.261 29.8712 144.166 29.848 144.036C29.7958 143.727 24.688 114.045 21.8817 107.108C20.6884 111.726 14.5285 135.876 14.2693 142.841C14.2635 142.98 14.1572 143.092 14.0179 143.108C13.8787 143.121 10.5927 143.444 9.21572 142.949C9.11515 142.913 9.04359 142.82 9.03198 142.713C8.26611 134.674 8.10171 126.597 8.0727 122.497C7.97407 109.185 9.15189 102.754 10.0474 99.0738C10.585 96.8632 11.2329 94.6545 11.9756 92.5116L13.7356 87.487C13.782 87.3593 13.9135 87.282 14.0469 87.3052L31.6853 90.3861C31.8052 90.4074 31.8961 90.5021 31.9135 90.6201C31.9599 90.9392 36.5552 122.793 35.5747 143.87C35.5689 144.007 35.4625 144.119 35.3252 144.133L33.8746 144.278C33.3466 144.33 32.8148 144.357 32.2849 144.357Z" fill="black"/>
<path d="M21.5489 107.485C21.5238 107.485 21.4987 107.483 21.4755 107.475C21.3265 107.435 21.2395 107.282 21.2801 107.135L22.0537 104.319C22.2916 103.454 22.9821 102.806 23.8582 102.625L24.5815 102.476C24.7324 102.445 24.8794 102.541 24.9103 102.692C24.9432 102.843 24.8465 102.99 24.6956 103.021L23.9704 103.17C23.3012 103.309 22.7713 103.804 22.5914 104.466L21.8178 107.282C21.783 107.406 21.6708 107.485 21.5489 107.485Z" fill="black"/>
<path d="M11.3315 102.242C11.1961 102.242 11.0782 102.145 11.0569 102.008C11.0318 101.857 11.1343 101.714 11.2851 101.689C15.2731 101.023 16.0699 97.9134 16.0776 97.8824C16.1144 97.7316 16.2652 97.6407 16.4142 97.6774C16.5631 97.7122 16.6559 97.8631 16.6192 98.0139C16.6114 98.0487 15.7237 101.513 11.3779 102.236C11.3605 102.24 11.3451 102.242 11.3315 102.242Z" fill="black"/>
<path d="M31.8478 100.145C31.8111 100.145 31.7724 100.138 31.7376 100.122C29.173 99.008 29.2349 96.5673 29.2369 96.5421C29.2427 96.3893 29.3761 96.2714 29.525 96.2752C29.6778 96.281 29.7977 96.4106 29.7939 96.5634C29.79 96.6543 29.7552 98.6541 31.9581 99.6095C32.0992 99.6714 32.165 99.8358 32.1031 99.977C32.0567 100.081 31.9542 100.145 31.8478 100.145Z" fill="black"/>
<path d="M31.2638 64.1084C28.1887 63.7622 21.6226 63.1395 17.1086 63.5533C15.7451 63.6771 13.7782 64.5107 12.7415 65.4042C9.68769 68.0403 3.92814 73.8443 2.96499 80.8088C2.8238 81.8261 3.49104 82.7796 4.49287 83.002L9.81533 84.1817C9.81533 84.1817 7.69177 92.5445 7.86389 93.9892C8.03409 95.434 12.4321 97.8921 17.9305 95.8749C22.2183 94.3025 28.2854 93.0532 32.1399 94.4089C32.1766 94.4225 32.5441 97.3835 32.5828 97.3893C33.8186 97.5691 35.0661 97.0876 35.0371 95.3489L34.4511 86.3169L41.5025 85.3847L42.133 85.1758C44.04 84.5395 45.0244 82.4372 44.2895 80.567C42.6339 76.3489 40.1332 69.5179 35.5032 65.7465C34.511 64.94 32.5325 64.2515 31.2638 64.1084Z" fill="black"/>
<path d="M28.057 91.9043H39.0791C39.5587 91.9043 39.9745 91.5775 40.0906 91.1133L43.9045 75.7339C44.0669 75.0763 43.5699 74.44 42.893 74.44H31.8709C31.3913 74.44 30.9755 74.7668 30.8594 75.231L27.0455 90.6124C26.883 91.2699 27.3801 91.9043 28.057 91.9043Z" fill="#99B9FF"/>
<path d="M42.1117 82.3019L41.7404 83.8549L40.4078 83.4101C39.6748 83.1644 38.9689 82.8395 38.3075 82.4372L37.5435 81.975C36.973 81.6288 36.2322 81.8996 36.0098 82.5281C35.5379 83.8665 35.6308 86.108 40.431 87.516C43.0807 88.2935 43.8388 84.8993 43.4965 83.0136C43.4075 82.532 43.1716 82.2226 42.9279 82.0292C42.6378 81.7951 42.2045 81.9402 42.1117 82.3019Z" fill="white"/>
<path d="M37.0018 82.1007C36.9148 82.1007 36.8278 82.1162 36.7427 82.1452C36.5222 82.2264 36.3501 82.3986 36.2727 82.621C36.0174 83.3462 36.0484 84.0289 36.3675 84.6517C36.9206 85.7309 38.3151 86.6051 40.5082 87.2491C41.2122 87.4541 41.8021 87.3478 42.2663 86.93C43.1579 86.1274 43.4518 84.3326 43.2217 83.0619C43.1598 82.7196 43.0012 82.445 42.7537 82.2458C42.6647 82.1742 42.5699 82.1936 42.5332 82.2071C42.4984 82.2187 42.4113 82.2593 42.3823 82.3695L42.0129 83.9187C41.9936 83.9941 41.9452 84.0599 41.8775 84.0966C41.8079 84.1353 41.7267 84.1431 41.6532 84.1179L40.3206 83.675C39.5683 83.4236 38.8411 83.0871 38.1642 82.6771L37.3983 82.2129C37.2765 82.1394 37.1392 82.1007 37.0018 82.1007ZM41.1658 87.9067C40.9067 87.9067 40.634 87.8661 40.3516 87.7829C38.0037 87.0944 36.4971 86.1254 35.8724 84.9051C35.4856 84.1527 35.443 83.2979 35.7467 82.4372C35.882 82.0543 36.176 81.7565 36.5551 81.6211C36.9322 81.4857 37.3461 81.5282 37.6884 81.7352L38.4524 82.1994C39.0945 82.59 39.783 82.9091 40.4966 83.1451L41.541 83.4932L41.8408 82.238C41.8408 82.2361 41.8408 82.2342 41.8408 82.2322C41.9085 81.9711 42.1019 81.7642 42.3572 81.6772C42.6144 81.594 42.8929 81.6424 43.1018 81.8106C43.4576 82.0969 43.682 82.4837 43.769 82.9633C44.0243 84.3635 43.7149 86.3749 42.6396 87.3439C42.2237 87.7172 41.7248 87.9067 41.1658 87.9067Z" fill="black"/>
<path d="M16.621 73.3976C16.0698 73.9643 15.4432 74.4478 14.7566 74.8384C12.4435 76.1555 6.91412 79.3467 5.53903 80.5226C3.78679 82.0195 2.94935 82.5784 4.35733 86.4291C6.65303 92.707 17.354 76.5907 17.354 76.5907C17.354 76.5907 20.4988 77.1593 21.2047 74.4033C21.2047 74.4033 22.8409 74.7127 23.5236 74.4149C24.0477 74.1886 24.0245 73.3009 23.3263 73.2022L18.8046 72.359C18.1818 72.2488 17.5455 72.4518 17.1026 72.9044L16.621 73.3976Z" fill="white"/>
<path d="M18.4681 72.6066C18.0329 72.6066 17.6133 72.7826 17.3019 73.0997L16.8203 73.5929C16.2517 74.1751 15.6038 74.676 14.894 75.0802C12.5886 76.3934 7.07665 79.5749 5.72089 80.7334L5.56617 80.8649C3.97639 82.2187 3.31882 82.7796 4.61849 86.3324C4.90473 87.1118 5.32054 87.5257 5.89108 87.5914C5.94911 87.5992 6.01099 87.6011 6.07095 87.603C9.04936 87.603 15.0275 79.5903 17.122 76.4359C17.1839 76.3431 17.2941 76.2967 17.4044 76.316C17.5224 76.3373 20.3016 76.8015 20.934 74.3356C20.9707 74.1925 21.1119 74.1035 21.255 74.1306C21.6883 74.2118 22.9183 74.3743 23.4134 74.1596C23.572 74.0919 23.6242 73.914 23.6068 73.7766C23.5933 73.6799 23.5333 73.5136 23.2877 73.4788L18.7543 72.6317C18.6596 72.6162 18.5629 72.6066 18.4681 72.6066ZM6.05548 88.1581C5.97618 88.1581 5.90076 88.1542 5.82533 88.1446C5.03624 88.0517 4.4541 87.5063 4.0963 86.5239C2.71927 82.7564 3.39618 81.9808 5.2045 80.4413L5.35923 80.3098C6.75173 79.1204 12.2985 75.9176 14.6194 74.5967C15.2828 74.2176 15.8881 73.7496 16.4219 73.2042L16.9035 72.7091C17.4102 72.1907 18.1393 71.9567 18.8549 72.0844L23.3786 72.9276C23.7906 72.9856 24.1019 73.2912 24.158 73.7032C24.2141 74.1151 23.9994 74.5135 23.6358 74.6702C23.0421 74.9293 21.9146 74.7978 21.402 74.7205C20.6458 77.0336 18.1877 76.9601 17.4914 76.8885C16.5592 78.2694 9.76882 88.1562 6.05548 88.1581Z" fill="black"/>
<path d="M27.0977 58.1941L27.4362 62.9035C27.5116 63.5166 27.9526 64.0194 28.5483 64.1761L30.2019 64.6074L29.1304 65.4236C26.7515 67.2357 23.456 67.2377 21.0752 65.4313L19.3771 64.1432L21.431 63.6849C22.0209 63.5533 22.4754 63.0795 22.5818 62.4838L23.4908 56.2543L27.0977 58.1941Z" fill="white"/>
<path d="M20.023 64.2844L21.2434 65.2089C23.5159 66.934 26.6896 66.9321 28.9602 65.2031L29.5791 64.7312L28.4786 64.4449C27.7669 64.2593 27.2486 63.6674 27.1596 62.9364L26.8308 58.3682L23.7073 56.6875L22.8583 62.5244C22.7287 63.242 22.193 63.799 21.4909 63.9556L20.023 64.2844ZM25.0979 67.0578C23.6184 67.0578 22.1408 66.5898 20.9069 65.6537L19.2088 64.3656C19.1217 64.2999 19.0811 64.1896 19.1043 64.0852C19.1275 63.9769 19.2107 63.8957 19.3151 63.8705L21.371 63.4121C21.8526 63.3058 22.2201 62.9209 22.309 62.4355L23.2142 56.2137C23.2277 56.1247 23.2838 56.0454 23.365 56.0048C23.4462 55.9642 23.541 55.9661 23.6222 56.0087L27.2292 57.9504C27.3143 57.9949 27.3685 58.08 27.3762 58.1748L27.7147 62.8842C27.7746 63.3715 28.1305 63.7777 28.6198 63.9053L30.2734 64.3366C30.3759 64.3637 30.4552 64.4488 30.4765 64.5513C30.4977 64.6577 30.4571 64.764 30.372 64.8279L29.2986 65.646C28.0628 66.5878 26.5794 67.0578 25.0979 67.0578Z" fill="black"/>
<path d="M32.4471 51.6416C31.3157 51.0421 32.2267 52.9084 28.5037 49.6844C27.0222 48.4021 26.968 50.7984 26.5832 50.4657C25.1597 49.2396 25.21 49.2802 24.3107 49.1235C23.7169 49.021 22.9201 49.841 22.6841 50.6185C22.3728 51.6436 23.0535 52.2567 22.8215 54.6181C22.6571 56.2775 22.1368 57.0917 22.6145 57.5617C23.0961 58.0394 23.8832 57.4573 24.4499 57.9369C25.1849 58.5597 24.3474 59.9406 24.8889 60.9231C25.2293 61.54 26.3511 62.2672 28.7125 62.2111C29.0935 62.2015 29.4184 61.921 29.4803 61.542C29.5616 61.0565 29.6583 60.4415 29.7028 59.8477C29.9136 57.0182 29.3043 56.0764 29.9039 55.5929C30.8245 54.8502 32.3872 56.233 33.0506 55.5813C33.7391 54.9043 33.9963 52.4617 32.4471 51.6416Z" fill="black"/>
<path d="M26.8174 53.2275L26.8638 54.0011C26.8851 54.3667 26.8831 54.7322 26.8541 55.0958C26.8019 55.7785 26.7187 56.9544 26.7245 57.6159C26.7303 58.5867 29.732 58.7763 29.732 58.7763L30.113 58.3527L30.465 58.3663C30.5326 58.3701 30.6023 58.3585 30.6642 58.3256C30.815 58.2483 30.8904 58.0858 30.8653 57.9292C30.7222 57.0705 30.4746 55.1751 30.7493 53.7033C30.7493 53.7033 29.0802 52.3475 26.8174 53.2275Z" fill="white"/>
<path d="M27.1075 53.419L27.1423 53.9856C27.1636 54.3609 27.1616 54.7399 27.1326 55.1171C27.0823 55.7669 26.9992 56.9583 27.003 57.6139C27.005 58.0239 28.3317 58.3894 29.6159 58.4881L29.906 58.167C29.9621 58.1032 30.0414 58.0703 30.1246 58.0742L30.4766 58.0897C30.4998 58.0897 30.523 58.0858 30.5346 58.08C30.5849 58.0549 30.5945 58.0065 30.5907 57.9736C30.434 57.0356 30.2155 55.2795 30.4456 53.8271C30.0472 53.5602 28.7727 52.8562 27.1075 53.419ZM29.732 59.0548C29.7262 59.0548 29.7203 59.0548 29.7145 59.0528C28.9487 59.0064 26.4518 58.7588 26.4441 57.6178C26.4402 56.9409 26.5253 55.734 26.5775 55.0745C26.6046 54.7245 26.6066 54.3686 26.5853 54.0185L26.5389 53.2449C26.5311 53.125 26.6027 53.0128 26.7149 52.9683C29.1015 52.04 30.8518 53.4267 30.9253 53.4867C31.0026 53.5505 31.0413 53.6549 31.022 53.7536C30.7512 55.206 31.0142 57.1265 31.1399 57.8827C31.1863 58.1632 31.0452 58.4417 30.7918 58.5751C30.6932 58.6254 30.5752 58.6505 30.4533 58.6447L30.2329 58.6351L29.9389 58.9619C29.8867 59.0219 29.8112 59.0548 29.732 59.0548Z" fill="black"/>
<path d="M26.2892 55.6122C26.2892 55.6122 26.179 53.7517 25.3454 53.9876C24.5119 54.2236 24.684 56.2659 26.2892 55.6122Z" fill="white"/>
<path d="M79.8543 120.768C76.7502 122.321 73.1549 121.565 71.4606 119L61.6048 104.091C56.3849 98.5748 53.037 91.6374 51.925 84.0328L48.0086 57.2387C47.204 51.7287 51.103 46.0929 56.9709 44.2826L73.4546 39.1942C77.0152 38.0957 80.7382 38.2794 83.8713 39.7048L104.869 49.2628C108.878 51.0885 111.062 55.148 110.4 59.5518L106.848 83.2128C105.302 93.5076 99.9103 103.333 91.6636 110.877L83.7862 118.068C82.6123 119.141 81.2836 120.052 79.8543 120.768Z" fill="#1958DF"/>
<path d="M70.7682 117.998L58.6921 105.238C53.474 99.7217 50.1262 92.7824 49.0142 85.1797L45.4459 60.7606C44.444 53.9083 49.2907 46.8994 56.5898 44.6481L70.5535 40.3391C74.1063 39.2406 77.8235 39.4243 80.9528 40.8478L100.345 49.6747C105.331 51.9453 108.045 56.9931 107.223 62.4703L103.937 84.3597C102.392 94.6545 96.9995 104.479 88.7527 112.024L82.471 117.772C78.9762 120.969 73.6769 121.071 70.7682 117.998Z" fill="white"/>
<path d="M75.1914 39.9059C73.6847 39.9059 72.1491 40.138 70.6348 40.6041L56.671 44.9131C49.5557 47.1102 44.7458 54.0534 45.7206 60.72L49.2908 85.1391C50.3932 92.6876 53.7139 99.5708 58.8952 105.046L70.9713 117.807C73.7505 120.745 78.9298 120.634 82.2815 117.567L88.5652 111.819C96.7636 104.317 102.125 94.5501 103.66 84.3171L106.948 62.4277C107.753 57.0589 105.117 52.1541 100.229 49.9281L80.8387 41.1011C79.0904 40.3063 77.166 39.9059 75.1914 39.9059ZM76.2338 120.534C74.0986 120.534 72.0485 119.756 70.5671 118.19L58.491 105.429C53.2304 99.8706 49.8574 92.8829 48.7396 85.2203L45.1694 60.8012C44.6762 57.4186 45.5658 53.8735 47.6759 50.8216C49.782 47.7755 52.919 45.4895 56.5067 44.3813L70.4704 40.0722C74.1025 38.9524 77.8661 39.1362 81.0689 40.5944L100.461 49.4233C105.579 51.7519 108.343 56.8906 107.499 62.5109L104.212 84.4003C102.657 94.759 97.2335 104.642 88.9404 112.229L82.6567 117.979C80.7981 119.679 78.4695 120.534 76.2338 120.534Z" fill="black"/>
<path d="M81.1076 113.569C78.3632 116.08 74.1973 116.161 71.9113 113.745L60.9318 102.141C56.381 97.3332 53.4625 91.2874 52.4936 84.6594L48.8266 59.6737C48.1149 54.8212 51.5478 49.8546 56.7175 48.259L71.8997 43.5728C74.4178 42.7973 77.05 42.9249 79.2664 43.9345L98.423 52.6551C101.897 54.2371 103.819 57.728 103.316 61.5458L100.369 83.9419C99.0206 92.9178 94.319 101.482 87.1321 108.057L81.1076 113.569Z" fill="#1958DF"/>
<path d="M62.1464 72.7806L74.118 92.1171C74.5783 92.8597 75.7929 92.7147 76.2242 91.8676L90.6908 63.416C90.9132 63.006 90.6656 62.5515 90.2053 62.5225L84.8906 62.1802C84.587 62.1608 84.2833 62.3368 84.1499 62.6134L75.3404 80.8416C75.0986 81.3445 74.3791 81.4315 74.1142 80.9906L67.3973 69.8041C67.2232 69.514 66.8229 69.4328 66.4902 69.6204L62.4578 71.8716C62.1096 72.0669 61.9704 72.477 62.1464 72.7806Z" fill="white"/>
<path d="M125.329 55.1945C127.109 53.2682 129.756 52.862 131.746 53.4055C134.264 54.094 135.533 56.2737 136.429 57.8093C138.013 60.5266 137.247 61.5091 138.492 63.0873C140.695 65.8819 146.041 64.033 148.644 66.1778C154.897 71.3359 151.489 79.8611 145.944 83.8839C142.248 86.5684 137.22 85.0153 135.85 84.5937C131.7 83.3114 124.821 80.8011 124.153 74.8056C123.707 70.775 127.82 67.5413 125.61 64.18C125.047 63.3251 124.581 63.0931 124.163 62.0216C123.484 60.2848 123.331 57.3587 125.329 55.1945Z" fill="black"/>
<path d="M131.827 55.6702C130.882 54.9024 131.479 52.6376 132.087 51.4173C132.313 50.9608 133.328 48.9107 134.663 48.992C136.036 49.0732 137.347 51.3747 136.858 53.2004C136.247 55.4807 132.936 56.5695 131.827 55.6702Z" fill="black"/>
<path d="M138.216 69.5701C135.361 68.6399 131.013 67.9707 125.815 69.6281C123.919 70.2316 122.56 71.9006 122.326 73.8753L118.092 98.2615C117.881 100.033 120.252 101.756 121.92 102.389C123.664 103.05 126.3 103.675 130.031 103.675C134.032 103.675 138.864 103.652 140.486 102.942C140.535 102.921 140.583 102.899 140.633 102.876C142.72 101.903 143.95 99.6985 143.745 97.4047L142.883 93.819C141.931 89.8678 141.49 85.8083 141.571 81.7429L141.711 74.647C141.815 72.3609 140.39 70.2818 138.216 69.5701Z" fill="#1958DF"/>
<path d="M118.222 80.0487C118.222 80.0487 121.602 70.6841 125.393 69.7828L123.465 83.0522L118.222 80.0487Z" fill="#1958DF"/>
<path d="M146.609 85.5124C148.058 84.3655 148.665 82.4566 148.149 80.6831C147.685 79.0895 147.101 77.167 146.59 75.7784C144.845 71.0246 141.231 69.9628 139.821 69.6243C139.6 69.5721 137.096 69.2394 137.096 69.2394L138.602 83.7853L145.045 86.4253L146.609 85.5124Z" fill="#1958DF"/>
<path d="M142.039 97.1127C141.941 97.1127 141.842 97.0585 141.794 96.9638C138.927 91.5214 130.186 91.3028 126.401 92.0513C124.004 92.5252 121.515 94.1265 121.49 94.1439C121.361 94.2271 121.188 94.1904 121.103 94.0608C121.022 93.9312 121.057 93.7591 121.186 93.6759C121.291 93.6082 123.79 91.9991 126.292 91.5059C128.072 91.1539 131.269 90.9683 134.419 91.6065C138.214 92.3743 140.933 94.1362 142.285 96.7046C142.356 96.84 142.306 97.0082 142.169 97.0798C142.128 97.103 142.084 97.1127 142.039 97.1127Z" fill="black"/>
<path d="M131.609 87.6978L115.011 87.6727C114.59 87.6707 114.224 87.3845 114.123 86.9764L111.307 75.262C111.164 74.6837 111.601 74.1267 112.197 74.1267L128.795 74.1519C129.217 74.1538 129.584 74.44 129.683 74.8481L132.501 86.5625C132.642 87.1408 132.205 87.6978 131.609 87.6978Z" fill="#99B9FF"/>
<path d="M131.609 87.4193C131.611 87.4193 131.611 87.4193 131.611 87.4193C131.808 87.4193 131.99 87.3304 132.112 87.1756C132.234 87.0209 132.276 86.8217 132.23 86.6302L129.412 74.9139C129.342 74.6296 129.087 74.4303 128.795 74.4303L112.195 74.4052C111.998 74.4052 111.816 74.4942 111.694 74.6489C111.572 74.8036 111.53 75.0028 111.576 75.1943L114.394 86.9107C114.464 87.195 114.717 87.3942 115.009 87.3942L131.609 87.4193ZM131.611 87.9763H131.609L115.009 87.9512C114.46 87.9512 113.984 87.576 113.853 87.0422L111.035 75.3258C110.948 74.968 111.029 74.5967 111.255 74.3046C111.483 74.0145 111.826 73.8482 112.195 73.8482H112.197L128.795 73.8733C129.344 73.8733 129.822 74.2486 129.954 74.7823L132.769 86.4987C132.858 86.8546 132.777 87.2278 132.549 87.5199C132.323 87.81 131.98 87.9763 131.611 87.9763Z" fill="black"/>
<path d="M120.444 81.1337C120.61 81.8416 121.277 82.2883 121.937 82.1355C122.594 81.9808 122.993 81.2826 122.828 80.5767C122.66 79.8688 121.993 79.4201 121.337 79.5749C120.678 79.7277 120.279 80.4258 120.444 81.1337Z" fill="white"/>
<path d="M112.28 79.7199L112.489 80.5632C112.58 80.9171 112.971 81.1028 113.301 80.9461L116.11 79.6155C116.483 79.4356 116.93 79.6232 117.057 80.0158C117.322 80.8165 117.1 82.2361 113.526 83.6866C111.342 84.5705 111.263 82.1723 111.619 80.7102C111.777 80.0622 112.28 79.7199 112.28 79.7199Z" fill="white"/>
<path d="M112.127 80.2692C112.033 80.4007 111.938 80.5709 111.89 80.7778C111.648 81.7661 111.665 82.9923 112.162 83.4236C112.431 83.6557 112.855 83.6576 113.419 83.4294C115.963 82.3986 117.16 81.2169 116.792 80.1048C116.756 79.9926 116.676 79.9075 116.568 79.8611C116.46 79.8128 116.336 79.8147 116.229 79.865L113.421 81.1995C113.187 81.3078 112.92 81.3097 112.684 81.1995C112.452 81.0892 112.282 80.8823 112.218 80.6309L112.127 80.2692ZM112.679 84.1585C112.332 84.1585 112.04 84.0541 111.799 83.8452C111.048 83.1973 111.087 81.7178 111.348 80.6444C111.528 79.8998 112.098 79.5072 112.122 79.4898C112.197 79.4395 112.292 79.4298 112.377 79.4608C112.462 79.4936 112.526 79.5652 112.549 79.6542L112.76 80.4955C112.781 80.5825 112.841 80.656 112.924 80.6947C113.007 80.7353 113.1 80.7334 113.181 80.6947L115.99 79.3621C116.241 79.2442 116.533 79.2383 116.788 79.3486C117.042 79.4569 117.235 79.6696 117.322 79.9288C117.655 80.9442 117.287 82.4624 113.628 83.9458C113.278 84.087 112.961 84.1585 112.679 84.1585Z" fill="black"/>
<path d="M136.512 76.1284C136.512 76.1284 143.968 80.3311 145.505 81.6482C147.043 82.9672 148.71 83.9671 146.536 86.8391C144.689 89.2837 141.434 87.1002 135.698 78.869C135.429 78.4841 134.99 78.2443 134.531 78.1418C133.955 78.0122 133.12 77.5577 132.735 76.0472C132.735 76.0472 130.015 76.434 129.776 75.1092L133.86 74.4574C134.408 74.3607 134.967 74.5425 135.355 74.9409L136.512 76.1284Z" fill="white"/>
<path d="M132.735 75.7706C132.86 75.7706 132.973 75.8557 133.005 75.9795C133.348 77.3256 134.056 77.7511 134.591 77.871C135.164 77.9986 135.638 78.2965 135.926 78.7103C140.024 84.5917 142.927 87.4676 144.801 87.5044C145.389 87.516 145.88 87.2433 146.314 86.6728C148.159 84.2339 147.12 83.3656 145.683 82.1626C145.565 82.064 145.443 81.9634 145.323 81.8609C143.824 80.5748 136.45 76.4146 136.377 76.3721C136.353 76.3605 136.332 76.3431 136.313 76.3237L135.154 75.1343C134.831 74.8017 134.365 74.6508 133.909 74.732L130.168 75.3277C130.696 76.0298 132.673 75.7764 132.696 75.7725C132.71 75.7706 132.723 75.7706 132.735 75.7706ZM144.838 88.0614C144.821 88.0614 144.807 88.0614 144.791 88.0614C142.697 88.0208 139.736 85.1507 135.469 79.0275C135.261 78.7297 134.905 78.5111 134.47 78.4144C133.934 78.2945 132.994 77.8652 132.53 76.3508C131.808 76.4166 129.741 76.4804 129.501 75.1595C129.489 75.084 129.505 75.0086 129.549 74.9486C129.592 74.8868 129.658 74.8461 129.731 74.8345L133.816 74.1847C134.448 74.0706 135.102 74.2814 135.555 74.7456L136.684 75.9079C137.307 76.258 144.184 80.1493 145.687 81.4373C145.805 81.5379 145.923 81.6385 146.041 81.7352C147.457 82.9207 148.923 84.1469 146.758 87.0093C146.228 87.7075 145.583 88.0614 144.838 88.0614Z" fill="black"/>
<path d="M128.865 65.0812C128.462 65.2824 127.979 65.1992 127.662 64.8801C127.304 64.5203 127.016 64.1393 126.78 63.7525L126.323 63.7603C126.178 63.7641 126.056 63.65 126.051 63.505L125.971 61.7257C125.621 61.1532 125.48 60.6697 125.447 60.2809C125.393 59.6195 125.983 58.432 126.579 58.14C127.387 57.7454 128.845 57.5327 129.607 58.6776C129.934 59.1689 130.464 59.5209 130.785 59.4648C131.089 59.4106 131.213 59.1515 131.361 58.8846C131.64 58.3837 132.332 57.9137 132.996 58.7028C133.669 59.5054 133.203 60.2403 132.785 60.8534C132.617 61.101 132.798 61.7895 132.866 62.0815L133.852 66.2784C134.106 67.3576 134.876 68.2395 135.91 68.6379L136.964 69.0421C136.964 69.0421 135.802 72.5756 131.137 72.475C127.578 72.3977 127.851 69.4792 127.851 69.4792L128.317 69.2723C129.542 68.7307 130.213 67.4001 129.917 66.0966L129.603 64.7118L128.865 65.0812Z" fill="white"/>
<path d="M128.126 69.661C128.132 69.9782 128.209 70.7131 128.735 71.3011C129.248 71.8716 130.058 72.1733 131.143 72.1965C134.868 72.2778 136.245 69.9763 136.601 69.2007L135.81 68.8971C134.688 68.4677 133.855 67.5123 133.58 66.3422L132.58 62.0777C132.452 61.5477 132.346 61.0043 132.555 60.6968C133.013 60.0218 133.299 59.4977 132.783 58.8827C132.588 58.6506 132.39 58.5423 132.195 58.5616C131.932 58.5867 131.714 58.8246 131.605 59.018L131.578 59.0683C131.431 59.3352 131.249 59.6659 130.836 59.7394C130.337 59.8265 129.71 59.3372 129.373 58.8304C128.681 57.788 127.323 58.0858 126.701 58.3895C126.234 58.6177 125.677 59.6814 125.726 60.2558C125.761 60.6658 125.921 61.1126 126.209 61.5806C126.234 61.6193 126.248 61.6657 126.25 61.7121L126.329 63.4934L126.774 63.474C126.871 63.4721 126.966 63.5224 127.018 63.6075C127.258 64.002 127.54 64.3637 127.859 64.6848C128.093 64.9188 128.447 64.9787 128.739 64.8317L129.478 64.4623C129.555 64.4237 129.644 64.4217 129.722 64.4585C129.799 64.4952 129.857 64.5648 129.874 64.6499L130.188 66.0347C130.513 67.4659 129.772 68.9338 128.432 69.5276L128.126 69.661ZM131.329 72.7555C131.263 72.7555 131.197 72.7535 131.131 72.7535C129.882 72.7265 128.932 72.3609 128.315 71.6666C127.466 70.7151 127.569 69.5024 127.573 69.4521C127.582 69.3516 127.646 69.2645 127.739 69.2239L128.207 69.017C129.306 68.5315 129.911 67.3286 129.644 66.1566L129.41 65.1199L128.99 65.3288C128.482 65.5841 127.869 65.4835 127.465 65.0774C127.151 64.764 126.871 64.4121 126.627 64.0349L126.329 64.0388C126.325 64.0388 126.321 64.0388 126.318 64.0388C126.024 64.0388 125.786 63.8125 125.772 63.5166L125.697 61.8088C125.387 61.2867 125.209 60.7799 125.171 60.3022C125.111 59.5692 125.735 58.2425 126.457 57.8905C127.532 57.3625 129.05 57.3374 129.838 58.5229C130.133 58.9677 130.574 59.2192 130.737 59.1902C130.876 59.165 130.948 59.0586 131.091 58.7995L131.12 58.7473C131.3 58.4204 131.667 58.053 132.141 58.0065C132.408 57.9833 132.81 58.051 133.209 58.5249C134.036 59.5093 133.396 60.4492 133.015 61.012C132.978 61.0758 132.965 61.2925 133.122 61.9481L133.137 62.0177L134.123 66.2146C134.355 67.2048 135.061 68.0132 136.011 68.3768L137.065 68.781C137.204 68.8352 137.276 68.988 137.229 69.1292C137.218 69.164 135.98 72.7555 131.329 72.7555Z" fill="black"/>
<path d="M129.106 138.238L131.578 145.614C131.578 145.614 128.886 145.384 128.629 145.435C128.371 145.485 125.221 138.706 125.221 138.706L129.106 138.238Z" fill="white"/>
<path d="M128.594 145.158C128.588 145.158 128.582 145.16 128.576 145.162C128.582 145.16 128.586 145.158 128.594 145.158ZM128.774 145.15C129.259 145.15 130.402 145.237 131.181 145.301L128.915 138.542L125.637 138.938C126.927 141.7 128.364 144.638 128.733 145.152C128.745 145.152 128.76 145.15 128.774 145.15ZM131.578 145.893C131.57 145.893 131.564 145.893 131.555 145.893C130.282 145.783 128.859 145.686 128.677 145.709C128.412 145.761 128.311 145.783 126.579 142.21C125.768 140.541 124.977 138.841 124.969 138.824C124.933 138.743 124.935 138.65 124.979 138.571C125.022 138.493 125.101 138.441 125.19 138.429L129.073 137.961C129.205 137.946 129.331 138.023 129.371 138.149L131.843 145.525C131.872 145.614 131.855 145.713 131.798 145.786C131.744 145.854 131.663 145.893 131.578 145.893Z" fill="black"/>
<path d="M131.013 143.994C131.013 143.994 127.294 142.47 126.608 144.382C125.733 146.815 124.366 150.527 124.366 150.527C124.134 151.173 124.581 151.863 125.263 151.917C126.621 152.028 128.648 152.117 129.594 151.784C131.083 151.262 133.557 146.543 133.557 146.543L132.793 142.53C132.793 142.53 131.445 142.338 131.013 143.994Z" fill="#99B9FF"/>
<path d="M128.37 143.694C128.035 143.694 127.718 143.74 127.453 143.856C127.165 143.986 126.973 144.187 126.871 144.475C126.006 146.881 124.643 150.587 124.629 150.624C124.548 150.846 124.577 151.092 124.706 151.293C124.836 151.494 125.049 151.621 125.287 151.641C127.321 151.803 128.816 151.761 129.501 151.521C130.615 151.13 132.551 147.844 133.265 146.5L132.563 142.802C132.226 142.825 131.559 143.009 131.284 144.063C131.263 144.141 131.211 144.206 131.137 144.241C131.066 144.278 130.982 144.282 130.907 144.251C130.89 144.243 129.53 143.694 128.37 143.694ZM127.451 152.295C126.708 152.295 125.925 152.25 125.242 152.196C124.828 152.161 124.463 151.943 124.238 151.594C124.014 151.246 123.964 150.823 124.105 150.434C124.119 150.393 125.482 146.692 126.347 144.288C126.501 143.854 126.797 143.539 127.227 143.348C128.358 142.845 130.145 143.384 130.835 143.628C131.292 142.392 132.321 142.181 132.833 142.253C132.951 142.27 133.046 142.359 133.067 142.477L133.829 146.49C133.841 146.552 133.833 146.616 133.804 146.672C133.545 147.165 131.236 151.503 129.685 152.047C129.159 152.231 128.335 152.295 127.451 152.295Z" fill="black"/>
<path d="M129.137 150.589H125.318C125.165 150.589 125.039 150.465 125.039 150.31C125.039 150.157 125.165 150.032 125.318 150.032H129.137C129.29 150.032 129.414 150.157 129.414 150.31C129.414 150.465 129.29 150.589 129.137 150.589Z" fill="black"/>
<path d="M136.115 140.05L135.276 147.469L131.899 146.543L132.158 139.857L136.115 140.05Z" fill="white"/>
<path d="M132.183 146.334L135.036 147.115L135.806 140.313L132.425 140.149L132.183 146.334ZM135.276 147.75C135.251 147.75 135.226 147.746 135.202 147.738L131.824 146.814C131.698 146.779 131.613 146.663 131.619 146.533L131.88 139.847C131.882 139.772 131.915 139.702 131.969 139.652C132.023 139.601 132.096 139.574 132.172 139.578L136.129 139.772C136.206 139.776 136.278 139.81 136.328 139.868C136.378 139.928 136.402 140.006 136.392 140.081L135.553 147.502C135.543 147.583 135.5 147.655 135.433 147.701C135.384 147.732 135.33 147.75 135.276 147.75Z" fill="black"/>
<path d="M135.595 152.939H130.249C129.526 152.939 128.969 152.295 129.075 151.579C129.255 150.372 129.837 148.368 131.58 145.614C131.77 145.313 132.102 145.131 132.458 145.131H134.085C134.363 145.131 134.599 145.342 134.628 145.622L134.752 146.794L135.243 146.287C135.436 146.09 135.773 146.166 135.86 146.429C136.171 147.378 136.738 149.411 136.783 151.73C136.794 152.393 136.258 152.939 135.595 152.939Z" fill="#99B9FF"/>
<path d="M132.456 145.409C132.199 145.409 131.951 145.545 131.814 145.763C130.093 148.485 129.524 150.451 129.35 151.62C129.313 151.881 129.389 152.146 129.561 152.345C129.733 152.544 129.984 152.66 130.249 152.66H135.595C135.841 152.66 136.071 152.563 136.243 152.387C136.415 152.211 136.508 151.981 136.502 151.736C136.461 149.473 135.916 147.494 135.595 146.518C135.579 146.475 135.547 146.462 135.529 146.458C135.51 146.454 135.473 146.45 135.442 146.483L134.951 146.99C134.875 147.067 134.759 147.094 134.659 147.057C134.556 147.022 134.485 146.931 134.473 146.823L134.349 145.651C134.336 145.512 134.222 145.409 134.083 145.409H132.456ZM135.595 153.215H130.249C129.822 153.215 129.418 153.031 129.139 152.708C128.861 152.385 128.739 151.96 128.801 151.538C128.982 150.316 129.568 148.27 131.344 145.465C131.586 145.081 132.002 144.852 132.456 144.852H134.083C134.508 144.852 134.86 145.172 134.904 145.593L134.964 146.173L135.044 146.094C135.204 145.932 135.432 145.864 135.655 145.914C135.875 145.966 136.051 146.127 136.123 146.344C136.454 147.351 137.016 149.39 137.059 151.726C137.067 152.12 136.918 152.494 136.639 152.778C136.363 153.06 135.991 153.215 135.595 153.215Z" fill="black"/>
<path d="M135.659 151.937H130.244C130.091 151.937 129.967 151.813 129.967 151.66C129.967 151.505 130.091 151.382 130.244 151.382H135.659C135.814 151.382 135.938 151.505 135.938 151.66C135.938 151.813 135.814 151.937 135.659 151.937Z" fill="black"/>
<path d="M123.428 95.4843C123.567 95.1419 123.851 94.8808 124.203 94.7706C126.159 94.1556 132.974 92.5407 139.989 97.0392C140.32 97.252 140.532 97.6078 140.56 98.0024C140.813 101.567 141.761 120.209 135.864 142.282L131.893 141.998L131.083 104.259C131.083 104.259 125.199 118.095 129.982 140.114L125.851 140.876C125.851 140.876 119.807 132.925 118.724 120.776C117.767 110.03 122.356 98.0952 123.428 95.4843Z" fill="black"/>
<path d="M134.852 124.864C134.702 124.864 134.58 124.746 134.572 124.597C134.566 124.444 134.686 124.313 134.839 124.307C138.129 124.166 138.512 119.542 138.514 119.495C138.527 119.342 138.662 119.226 138.813 119.238C138.966 119.25 139.082 119.383 139.071 119.538C139.067 119.588 138.641 124.7 134.864 124.864C134.86 124.864 134.856 124.864 134.852 124.864Z" fill="#CADDFF"/>
<path d="M130.737 107.997C130.735 107.997 130.731 107.997 130.729 107.997C130.574 107.994 130.454 107.864 130.458 107.711L130.564 104.126C130.582 103.509 130.292 102.928 129.787 102.572L128.242 101.486C128.114 101.397 128.083 101.223 128.172 101.097C128.261 100.971 128.435 100.942 128.561 101.029L130.108 102.116C130.766 102.58 131.145 103.336 131.121 104.141L131.013 107.727C131.009 107.879 130.887 107.997 130.737 107.997Z" fill="#CADDFF"/>
</svg>
