<svg width="310" height="75" viewBox="0 0 310 75" fill="none" xmlns="http://www.w3.org/2000/svg">
<path d="M0 12C0 5.37258 5.37258 0 12 0H63C69.6274 0 75 5.37258 75 12V63C75 69.6274 69.6274 75 63 75H12C5.37258 75 0 69.6274 0 63V12Z" fill="black"/>
<path d="M14.2502 51.7499L21.8102 23.2499H30.0002L22.4402 51.7499H14.2502Z" fill="white"/>
<path d="M30.0002 51.7499L37.5602 23.2499H45.7502L38.1902 51.7499H30.0002Z" fill="white"/>
<path d="M45.7502 51.7499L53.3102 23.2499H61.5003L53.9403 51.7499H45.7502Z" fill="white"/>
<path d="M98.552 55.5V48.636H104.216V28.764H98.552V21.9H118.088V28.764H112.376V48.636H118.088V55.5H98.552ZM124.073 55.5V30.012H131.369L131.609 35.196L130.073 35.772C130.425 34.62 131.049 33.58 131.945 32.652C132.873 31.692 133.977 30.924 135.257 30.348C136.537 29.772 137.881 29.484 139.289 29.484C141.209 29.484 142.825 29.884 144.137 30.684C145.449 31.452 146.441 32.62 147.113 34.188C147.785 35.724 148.121 37.612 148.121 39.852V55.5H140.393V40.476C140.393 39.452 140.249 38.604 139.961 37.932C139.673 37.26 139.225 36.764 138.617 36.444C138.041 36.092 137.321 35.932 136.457 35.964C135.785 35.964 135.161 36.076 134.585 36.3C134.009 36.492 133.513 36.796 133.097 37.212C132.681 37.596 132.345 38.044 132.089 38.556C131.865 39.068 131.753 39.628 131.753 40.236V55.5H127.961C127.065 55.5 126.297 55.5 125.657 55.5C125.017 55.5 124.489 55.5 124.073 55.5ZM164.766 55.98C162.302 55.98 160.094 55.404 158.142 54.252C156.19 53.1 154.638 51.532 153.486 49.548C152.366 47.532 151.806 45.26 151.806 42.732C151.806 40.204 152.366 37.948 153.486 35.964C154.638 33.948 156.19 32.364 158.142 31.212C160.094 30.06 162.302 29.484 164.766 29.484C167.038 29.484 169.118 29.884 171.006 30.684C172.926 31.484 174.446 32.604 175.566 34.044L171.39 39.036C170.942 38.524 170.414 38.044 169.806 37.596C169.198 37.148 168.526 36.796 167.79 36.54C167.054 36.284 166.286 36.156 165.486 36.156C164.27 36.156 163.198 36.444 162.27 37.02C161.342 37.564 160.622 38.332 160.11 39.324C159.598 40.316 159.342 41.452 159.342 42.732C159.342 43.948 159.598 45.052 160.11 46.044C160.654 47.036 161.39 47.82 162.318 48.396C163.246 48.972 164.302 49.26 165.486 49.26C166.318 49.26 167.086 49.164 167.79 48.972C168.494 48.748 169.134 48.428 169.71 48.012C170.318 47.596 170.878 47.084 171.39 46.476L175.518 51.516C174.43 52.892 172.91 53.98 170.958 54.78C169.038 55.58 166.974 55.98 164.766 55.98ZM190.778 55.98C188.122 55.98 185.754 55.404 183.674 54.252C181.626 53.1 179.994 51.532 178.778 49.548C177.594 47.564 177.002 45.292 177.002 42.732C177.002 40.172 177.594 37.9 178.778 35.916C179.994 33.932 181.626 32.364 183.674 31.212C185.754 30.06 188.122 29.484 190.778 29.484C193.434 29.484 195.786 30.06 197.834 31.212C199.914 32.364 201.546 33.932 202.73 35.916C203.914 37.9 204.506 40.172 204.506 42.732C204.506 45.292 203.914 47.564 202.73 49.548C201.546 51.532 199.914 53.1 197.834 54.252C195.786 55.404 193.434 55.98 190.778 55.98ZM190.778 49.356C191.93 49.356 192.954 49.068 193.85 48.492C194.746 47.916 195.45 47.132 195.962 46.14C196.474 45.148 196.714 44.012 196.682 42.732C196.714 41.452 196.474 40.316 195.962 39.324C195.45 38.3 194.746 37.5 193.85 36.924C192.954 36.348 191.93 36.06 190.778 36.06C189.626 36.06 188.586 36.348 187.658 36.924C186.762 37.5 186.058 38.3 185.546 39.324C185.034 40.316 184.794 41.452 184.826 42.732C184.794 44.012 185.034 45.148 185.546 46.14C186.058 47.132 186.762 47.916 187.658 48.492C188.586 49.068 189.626 49.356 190.778 49.356ZM223.799 55.5V21.9H238.295C240.407 21.9 242.279 22.38 243.911 23.34C245.575 24.3 246.887 25.612 247.847 27.276C248.839 28.94 249.335 30.812 249.335 32.892C249.335 35.068 248.839 37.02 247.847 38.748C246.887 40.444 245.575 41.788 243.911 42.78C242.279 43.772 240.407 44.268 238.295 44.268H231.959V55.5H223.799ZM231.815 37.116H237.143C237.847 37.116 238.487 36.94 239.063 36.588C239.639 36.236 240.103 35.756 240.455 35.148C240.807 34.54 240.983 33.836 240.983 33.036C240.983 32.204 240.807 31.5 240.455 30.924C240.103 30.348 239.639 29.9 239.063 29.58C238.487 29.26 237.847 29.1 237.143 29.1H231.815V37.116ZM262.744 55.932C260.6 55.932 258.68 55.372 256.984 54.252C255.32 53.1 253.992 51.532 253 49.548C252.008 47.532 251.512 45.26 251.512 42.732C251.512 40.14 252.008 37.852 253 35.868C253.992 33.884 255.352 32.332 257.08 31.212C258.808 30.06 260.776 29.484 262.984 29.484C264.2 29.484 265.304 29.66 266.296 30.012C267.32 30.364 268.216 30.86 268.984 31.5C269.752 32.108 270.408 32.828 270.952 33.66C271.496 34.46 271.896 35.324 272.152 36.252L270.568 36.06V30.012H278.2V55.5H270.424V49.356L272.152 49.308C271.896 50.204 271.48 51.052 270.904 51.852C270.328 52.652 269.624 53.356 268.792 53.964C267.96 54.572 267.032 55.052 266.008 55.404C264.984 55.756 263.896 55.932 262.744 55.932ZM264.856 49.452C266.04 49.452 267.064 49.18 267.928 48.636C268.792 48.092 269.464 47.324 269.944 46.332C270.424 45.308 270.664 44.108 270.664 42.732C270.664 41.356 270.424 40.172 269.944 39.18C269.464 38.156 268.792 37.372 267.928 36.828C267.064 36.252 266.04 35.964 264.856 35.964C263.704 35.964 262.696 36.252 261.832 36.828C261 37.372 260.344 38.156 259.864 39.18C259.384 40.172 259.144 41.356 259.144 42.732C259.144 44.108 259.384 45.308 259.864 46.332C260.344 47.324 261 48.092 261.832 48.636C262.696 49.18 263.704 49.452 264.856 49.452ZM286.67 66.54L292.478 52.86L292.574 56.796L280.286 30.012H288.974L294.35 42.828C294.638 43.468 294.91 44.156 295.166 44.892C295.422 45.628 295.614 46.332 295.742 47.004L294.686 47.628C294.878 47.148 295.086 46.556 295.31 45.852C295.566 45.116 295.838 44.332 296.126 43.5L300.83 30.012H309.566L298.718 55.5L294.302 66.54H286.67Z" fill="black"/>
</svg>
