<svg width="231" height="30" viewBox="0 0 231 30" fill="none" xmlns="http://www.w3.org/2000/svg">
<path d="M10.1625 1.16724C11.7621 1.16724 13.0512 1.45669 14.0297 2.03442C15.007 2.61333 15.7242 3.39146 16.1813 4.3688C16.6371 5.34732 16.8656 6.43599 16.8656 7.63599C16.8656 8.8149 16.6371 9.89771 16.1813 10.8844C15.7242 11.8723 14.9965 12.661 13.9969 13.2516C12.9961 13.8399 11.6742 14.1329 10.0313 14.1329H2.79844V23.3344H0V1.16724H10.1625ZM9.46407 11.9016C11.107 11.9016 12.2684 11.5079 12.9469 10.7204C13.6242 9.93052 13.9641 8.90162 13.9641 7.63599C13.9641 6.32349 13.6289 5.29107 12.9609 4.53755C12.2953 3.78169 11.1621 3.40318 9.56251 3.40318H2.79844V11.9016H9.46407Z" fill="black"/>
<path d="M25.6967 23.7657C24.0959 23.7657 22.7787 23.3543 21.7451 22.5328C20.7103 21.7114 20.1935 20.5114 20.1935 18.9328C20.1935 17.5805 20.5873 16.4813 21.3748 15.6375C22.1646 14.7914 23.4607 14.2242 25.2607 13.936L29.4936 13.2328C30.3842 13.0805 31.0228 12.8602 31.4107 12.5719C31.801 12.2813 31.9967 11.8254 31.9967 11.2032C31.9967 10.3571 31.7178 9.64573 31.1623 9.07034C30.6057 8.4926 29.517 8.20315 27.8951 8.20315C26.2732 8.20315 25.1119 8.54768 24.4123 9.2344C23.7115 9.92229 23.3178 10.8117 23.231 11.9016H20.5967C20.64 10.1239 21.2775 8.71292 22.5092 7.66878C23.7432 6.62581 25.5057 6.10315 27.7967 6.10315C30.0842 6.10315 31.76 6.57542 32.8264 7.51878C33.8951 8.46331 34.4295 9.69143 34.4295 11.2032V19.2C34.4295 19.8 34.44 20.4352 34.4623 21.1032C34.4834 21.7688 34.5385 22.5129 34.6264 23.3344H32.1936C32.1279 22.6219 32.0728 21.9504 32.0295 21.3188C31.985 20.6848 31.9639 20.0567 31.9639 19.4344C31.7635 20.1 31.4131 20.768 30.9139 21.436C30.4135 22.1016 29.7396 22.6571 28.8935 23.1C28.0498 23.543 26.9834 23.7657 25.6967 23.7657ZM26.231 21.6657C27.54 21.6657 28.6228 21.3657 29.4795 20.7657C30.335 20.1657 30.9678 19.3899 31.3779 18.436C31.7904 17.4797 31.9967 16.4801 31.9967 15.436V14.0016C31.5748 14.2899 31.1295 14.5172 30.6607 14.686C30.1943 14.8524 29.64 15.0024 28.9967 15.136L26.231 15.7032C25.0967 15.9258 24.2553 16.275 23.7092 16.7532C23.1654 17.2289 22.8935 17.9227 22.8935 18.8344C22.8935 19.7907 23.2041 20.502 23.8264 20.9672C24.451 21.4336 25.2525 21.6657 26.231 21.6657Z" fill="black"/>
<path d="M51.5925 6.67029H54.2269L46.3941 26.1C46.0589 26.9906 45.7203 27.723 45.3769 28.2984C45.0324 28.8762 44.5824 29.3039 44.0269 29.5828C43.4703 29.8605 42.6921 30 41.6925 30H38.5285V27.8344H43.1597L44.9925 23.3344H44.0597L37.4597 6.67029H40.2582L45.3582 19.5L45.9253 21.1031L46.4269 19.5L51.5925 6.67029Z" fill="black"/>
<path d="M91.4559 1.16724H94.2215L89.159 23.3344H84.4902L79.2215 3.26724L73.9246 23.3344H69.2559L64.1887 1.16724H66.9918L71.6559 21.5673L77.0559 1.16724H81.3918L86.7918 21.5673L91.4559 1.16724Z" fill="black"/>
<path d="M97.9209 3.93286V1.16724H101.352V3.93286H97.9209ZM98.2865 23.3344V6.67037H100.954V23.3344H98.2865Z" fill="black"/>
<path d="M111.285 23.3344C109.684 23.3344 108.613 23.0191 108.07 22.3875C107.526 21.7535 107.254 20.7691 107.254 19.4344V8.7656H104.085V7.27029L107.488 6.43592L108.487 2.96716H109.921V6.67029H115.42V8.7656H109.921V21.1687H115.218V23.3344H111.285Z" fill="black"/>
<path d="M127.95 6.13594C130.041 6.13594 131.551 6.69258 132.483 7.80469C133.417 8.91446 133.884 10.5469 133.884 12.7031V23.3344H131.217V13.0031C131.217 11.2254 130.856 10.0078 130.134 9.35157C129.412 8.69532 128.44 8.36719 127.219 8.36719C125.374 8.36719 123.968 9.08438 123 10.5188C122.034 11.9508 121.551 14.1 121.551 16.9688V23.3344H118.884V0H121.551V11.0344C122.064 9.52266 122.846 8.32852 123.9 7.45313C124.956 6.5754 126.306 6.13594 127.95 6.13594Z" fill="black"/>
<path d="M157.849 3.40318H153.147V21.1032H157.849V23.3344H145.713V21.1032H150.415V3.40318H145.713V1.16724H157.849V3.40318Z" fill="black"/>
<path d="M171.578 6.13593C173.669 6.13593 175.18 6.69257 176.111 7.80468C177.045 8.91444 177.513 10.5469 177.513 12.7031V23.3344H174.846V13.0031C174.846 11.2254 174.485 10.0078 173.763 9.35155C173.041 8.6953 172.068 8.36718 170.847 8.36718C169.003 8.36718 167.596 9.08436 166.628 10.5187C165.663 11.9508 165.18 14.1 165.18 16.9687V23.3344H162.513V6.6703H165.18V11.0344C165.692 9.52265 166.475 8.32851 167.528 7.45311C168.584 6.57538 169.934 6.13593 171.578 6.13593Z" fill="black"/>
<path d="M181.209 15C181.209 13.2914 181.526 11.7691 182.161 10.4344C182.795 9.10077 183.734 8.05077 184.978 7.28436C186.222 6.51913 187.744 6.13593 189.544 6.13593C192.056 6.13593 193.945 6.75819 195.211 8.00155C196.477 9.24608 197.176 10.8351 197.311 12.7687H194.813C194.612 11.3906 194.088 10.3019 193.242 9.50155C192.399 8.70233 191.199 8.30155 189.642 8.30155C187.889 8.30155 186.495 8.81952 185.461 9.85312C184.426 10.8844 183.909 12.6 183.909 15C183.909 17.4223 184.409 19.1461 185.409 20.1703C186.409 21.1922 187.787 21.7031 189.544 21.7031C191.234 21.7031 192.523 21.2707 193.411 20.4047C194.298 19.5363 194.82 18.3914 194.977 16.9687H197.513C197.443 18.2344 197.098 19.391 196.477 20.4375C195.854 21.4816 194.965 22.3148 193.809 22.9359C192.656 23.557 191.234 23.8688 189.544 23.8688C187.722 23.8688 186.193 23.4855 184.959 22.7203C183.728 21.9516 182.795 20.8957 182.161 19.5516C181.526 18.2086 181.209 16.691 181.209 15Z" fill="black"/>
<path d="M208.907 23.8688C207.042 23.8688 205.487 23.475 204.243 22.6875C202.999 21.8977 202.065 20.8301 201.44 19.4859C200.818 18.1395 200.507 16.6336 200.507 14.9672C200.507 13.3019 200.818 11.8019 201.44 10.4672C202.065 9.13358 202.999 8.0789 204.243 7.30311C205.487 6.52499 207.042 6.13593 208.907 6.13593C210.775 6.13593 212.326 6.53202 213.557 7.32186C214.791 8.10936 215.719 9.17108 216.342 10.5047C216.963 11.8359 217.275 13.3242 217.275 14.9672C217.275 16.6336 216.963 18.1395 216.342 19.4859C215.719 20.8301 214.791 21.8977 213.557 22.6875C212.326 23.475 210.775 23.8688 208.907 23.8688ZM203.207 15C203.207 17.3344 203.685 19.0359 204.642 20.1047C205.598 21.1711 207.019 21.7031 208.907 21.7031C210.798 21.7031 212.214 21.1711 213.159 20.1047C214.102 19.0359 214.575 17.3344 214.575 15C214.575 12.6445 214.102 10.9394 213.159 9.88593C212.214 8.83007 210.798 8.30155 208.907 8.30155C207.019 8.30155 205.598 8.83007 204.642 9.88593C203.685 10.9394 203.207 12.6445 203.207 15Z" fill="black"/>
<path d="M219.839 4.70161L220.842 3.03286L224.742 6.07036L224.072 1.16724H225.975L225.305 6.07036L229.205 3.03286L230.175 4.70161L225.605 6.56724L230.208 8.43287L229.205 10.1344L225.305 7.0688L225.975 11.9672H224.072L224.742 7.0688L220.842 10.1344L219.872 8.43287L224.442 6.56724L219.839 4.70161Z" fill="black"/>
</svg>
